<?xml version="1.0" encoding="UTF-8"?> <svg xmlns="http://www.w3.org/2000/svg" viewBox="0 0 338.4 200.2"> <defs> <style>.cls-1{fill:#f1eff4;}.cls-2{fill:#fff;}</style> </defs> <title>Ресурс 11</title> <g id="Слой_2" data-name="Слой 2"> <g id="_1" data-name=" 1"> <path class="cls-1" d="M36.68,40.15c4.92-10.72,13.69-20.29,25.09-23.29,11.73-3.08,24,1.11,36,2.61,28.06,3.48,55.53-7.81,83.13-14A231.35,231.35,0,0,1,228.33,0c16.75-.2,34,1.57,48.83,9.39s26.74,22.75,27.14,39.5c.16,6.8-1.52,13.68-.21,20.35,3.62,18.54,27.63,26.79,33.17,44.85,3.66,11.92-1.95,24.86-9.82,34.52a77.49,77.49,0,0,1-23,19.07c-21.25,11.55-46.6,12.51-70.74,11s-48.42-5.2-72.39-1.93c-17.77,2.42-34.78,8.6-51.89,14s-34.79,10.08-52.71,9.36-36.34-7.53-47.48-21.59-13-36-1.32-49.64c5.43-6.37,16.56-7.11,18-15.63,1.27-7.37-19-15.28-4.84-31C33.63,68.3,29.33,56.16,36.68,40.15Z"></path> <path class="cls-2" d="M36.39,186.12a50.87,50.87,0,0,0,30.73,4.09,7.11,7.11,0,0,0,3.53-1.38,2.69,2.69,0,0,0,.66-3.43,3.62,3.62,0,0,0-2.11-1.16c-3.94-1-8.07-.78-12.13-1.07a47.19,47.19,0,0,1-34.51-19.33c-1.84-2.57-6.11-6.08-8.28-1.54-1.5,3.13,2.06,6.78,3.83,9A51.49,51.49,0,0,0,36.39,186.12Z"></path> <path class="cls-1" d="M310.6,62.92c-.15,6.47,3.63,12.32,7.61,17.42,1.94,2.49,4.06,5,6.91,6.35s6.61,1.31,8.81-.95c2.51-2.56,2.1-6.85.48-10.05s-4.19-5.83-5.83-9a22.6,22.6,0,0,1-2.24-8,15.72,15.72,0,0,0-1-5.35c-2-4.15-8.43-5-11.71-1.81C311.13,53.93,310.67,59.62,310.6,62.92Z"></path> <path class="cls-1" d="M14.71,106.53c1.65,2.2,3,4.81,2.88,7.56s-2.35,5.52-5.1,5.44a4.36,4.36,0,0,1-2.19-.67,4.57,4.57,0,0,1-2.09-4A24.54,24.54,0,0,1,9,111.43a12.56,12.56,0,0,0-.87-6.28,8.85,8.85,0,0,1-.7-3.22c.11-2.28,2.74-3.65,4.18-1.49.48.73.48,1.84.83,2.64A18.22,18.22,0,0,0,14.71,106.53Z"></path> </g> </g> </svg> 