<?xml version="1.0" encoding="UTF-8"?> <svg xmlns="http://www.w3.org/2000/svg" viewBox="0 0 392.71 369.14"> <defs> <style>.cls-1{fill:#f1eff4;}.cls-2{fill:#fff;}.cls-3{fill:#ffbd71;}.cls-4{fill:#faac62;}.cls-5{fill:#fc810e;}.cls-6{fill:#5118b4;}.cls-7{fill:#361892;}.cls-8{fill:#21094c;}.cls-9{fill:#ffede4;}.cls-10{fill:#ec8d32;}.cls-11{fill:#e56906;}.cls-12{fill:#f5d2d9;}.cls-13{fill:#b7aec5;}.cls-14{fill:#5f4c7d;}.cls-15{fill:#dad6e1;}.cls-16{fill:#82739a;}.cls-17{fill:#e7a89a;}.cls-18{fill:#faf9fb;}</style> </defs> <title>Ресурс 1</title> <g id="Слой_2" data-name="Слой 2"> <g id="_1" data-name=" 1"> <path class="cls-1" d="M36.68,91.52C41.61,80.8,50.37,71.23,61.77,68.23c11.73-3.08,24,1.11,36,2.61,28.06,3.48,55.53-7.81,83.13-14a231.35,231.35,0,0,1,47.41-5.5c16.75-.2,34,1.57,48.83,9.39s26.74,22.75,27.14,39.5c.16,6.8-1.52,13.68-.21,20.35,3.62,18.54,27.63,26.79,33.17,44.85,3.66,11.92-1.95,24.86-9.82,34.52a77.49,77.49,0,0,1-23,19.07c-21.25,11.55-46.6,12.51-70.74,11s-48.42-5.2-72.39-1.93c-17.77,2.42-34.78,8.6-51.89,14s-34.79,10.08-52.71,9.36S20.38,244,9.24,229.9s-13-36-1.32-49.64c5.43-6.37,16.56-7.11,18-15.63,1.27-7.37-19-15.28-4.84-31C33.63,119.67,29.33,107.52,36.68,91.52Z"></path> <path class="cls-2" d="M36.39,237.49a50.87,50.87,0,0,0,30.73,4.09,7.11,7.11,0,0,0,3.53-1.38,2.69,2.69,0,0,0,.66-3.43,3.62,3.62,0,0,0-2.11-1.16c-3.94-1-8.07-.78-12.13-1.07a47.19,47.19,0,0,1-34.51-19.33c-1.84-2.57-6.11-6.08-8.28-1.54-1.5,3.13,2.06,6.78,3.83,9A51.49,51.49,0,0,0,36.39,237.49Z"></path> <path class="cls-1" d="M310.6,114.29c-.15,6.47,3.63,12.32,7.61,17.42,1.94,2.49,4.06,5,6.91,6.35s6.61,1.31,8.81-.95c2.51-2.56,2.1-6.85.48-10.05s-4.19-5.83-5.83-9a22.6,22.6,0,0,1-2.24-8,15.72,15.72,0,0,0-1-5.35c-2-4.15-8.43-5-11.71-1.81C311.13,105.3,310.67,111,310.6,114.29Z"></path> <path class="cls-1" d="M14.71,157.9c1.65,2.2,3,4.81,2.88,7.56s-2.35,5.52-5.1,5.44a4.36,4.36,0,0,1-2.19-.67,4.57,4.57,0,0,1-2.09-4A24.54,24.54,0,0,1,9,162.8a12.56,12.56,0,0,0-.87-6.28,8.85,8.85,0,0,1-.7-3.22c.11-2.28,2.74-3.65,4.18-1.49.48.73.48,1.84.83,2.64A18.22,18.22,0,0,0,14.71,157.9Z"></path> <path class="cls-3" d="M164.35,41.44s26.86,25,58.8,29.55L219.24,93s-34.34-1-60-32.73Z"></path> <path class="cls-3" d="M120.5,48.75,86.2,78.64,21.11,94.43c43.63,10.25,70.52,1.34,70.52,1.34S115.8,87.3,128.76,71Z"></path> <path class="cls-3" d="M154.9,347.25s-29-70.28-12.22-100.85l.19-73,32.82-3.31s-14.3,159.28-18.25,177.5Z"></path> <path class="cls-3" d="M125.46,347.25S96,287.45,111,246.88l-4.3-73.63,33.9-3.16s-4.15,61.85-7.27,91c0,0-3.71,61.53-4.68,85.72Z"></path> <path class="cls-4" d="M132,284.45H107.3s1.74,12.7,2.45,16l22.07-13.17Z"></path> <path class="cls-5" d="M115.53,351.58h21.1S127.92,332.93,115.53,351.58Z"></path> <polygon class="cls-5" points="159.16 337.88 174.03 351.53 151.03 351.31 152.01 339.67 159.16 337.88"></polygon> <path class="cls-6" d="M131.36,116.45s-26.57,23.59-24.63,56.8.39,85.68.58,111.2h26.58l9.91-125.73-3.17,85.77s-4.9,16.63-2.43,40h29.91s9.16-109.15,7.74-124.1S155,116.66,155,116.66Z"></path> <polygon class="cls-7" points="143.79 158.71 141.57 218.92 151.45 149.52 143.79 158.71"></polygon> <path class="cls-5" d="M166.1,27.14c-.42-.64-.89-1.27-1.33-1.87A24.15,24.15,0,0,1,162.61,22a8.86,8.86,0,0,1-.75-2c0-.25,0-.5,0-.75-.09-1.4,1.72-6.84,1.4-8.21-.21-.92-13-9.64-15.89-9.32a9.1,9.1,0,0,0-7.64,2.49,13.71,13.71,0,0,0-3.79,7.15c-.13.57-.22,1.16-.32,1.72a18.08,18.08,0,0,1-.73,3.17,18,18,0,0,1-2.5,4.25,28.21,28.21,0,0,0-2,3c-.25.47-.55,1-.87,1.46a12.18,12.18,0,0,0-1.82,3.8,4.75,4.75,0,0,0,2.14,5.1A7.61,7.61,0,0,0,133,35.06a8.35,8.35,0,0,0,.78.53,16.71,16.71,0,0,0,8,1.86,47.23,47.23,0,0,1,8.31.54c2.43.52,4.72,1.59,7.18,2a12.86,12.86,0,0,0,4.26-.07,5.67,5.67,0,0,0,2.35-.9,4.23,4.23,0,0,0,1.07-1.18,5.39,5.39,0,0,0,3.13-4.41A9.72,9.72,0,0,0,166.1,27.14Zm-33-4.18c-1.28,1.8-2.85,3.55-3.18,5.74a6.31,6.31,0,0,0,1.27,4.59,5.62,5.62,0,0,1-.73-.42A3.6,3.6,0,0,1,128.85,29a11.34,11.34,0,0,1,1.66-3.41c.32-.5.64-1,.91-1.53a27.37,27.37,0,0,1,1.89-2.89A19.22,19.22,0,0,0,136,16.62a19.31,19.31,0,0,0,.79-3.37c.09-.55.19-1.12.31-1.66A14.12,14.12,0,0,1,139,6.87c-1.91,3.17-1.72,6.76-2.07,8.06A25.2,25.2,0,0,1,133.14,23ZM166.9,33.29a4.49,4.49,0,0,1-1.2,2.58,11,11,0,0,0-1-6.14,50.43,50.43,0,0,1-2.46-6c.48.76,1,1.49,1.53,2.19s.89,1.21,1.3,1.82A8.61,8.61,0,0,1,166.9,33.29Z"></path> <path class="cls-6" d="M194.92,57.3s-13-13.67-35.76-18.59L138.1,35.3s-12.9-.37-36.49,22L122.3,85.37s.1,9.26,9.6,32.42l19,2.89s18.12-23,18.28-47.08l6.51,6.88Z"></path> <path class="cls-3" d="M146.25,42.2c-4.91-1-8.15-6.9-8.15-6.9,1.19.12,3.26-.13,4.37,0,1.1-5,1.9-13.85,1.9-13.85l9.3,1.68-.32,14.49c1.88.51,5.81,1.09,5.81,1.09A14.81,14.81,0,0,1,146.25,42.2Z"></path> <polygon class="cls-4" points="153.34 37.62 154.29 26.63 143.81 26.5 153.34 37.62"></polygon> <path class="cls-3" d="M137.15,13.46c.11-.93,1.5-2.15,2.49-1.24l0-.27c-.3-4.37,1.06-4.71,4.68-7.17,3.8-2.57,9-4.67,13.71-.4,3.14,2.87,4.38,6.37,4.18,7.83-.09.69-.3,1.41-.48,2.17,1.3-.78,1.83.85,1.93,1.71.23,1.86-1.24,4.18-3.49,3.84-1.43,5.89-5.56,12-11.17,11.45-6.25-.56-7.83-8.37-8.67-13.64A4.12,4.12,0,0,1,137.15,13.46Z"></path> <path class="cls-8" d="M154.78,12.82s3.32-2.42,4.48,1A4.72,4.72,0,0,0,154.78,12.82Z"></path> <path class="cls-8" d="M149.89,12.24s-2.87-2.94-4.59.29A4.72,4.72,0,0,1,149.89,12.24Z"></path> <path class="cls-9" d="M146.14,23.52s4.79,2.33,9.6,1.46C155.74,25,149.89,32.9,146.14,23.52Z"></path> <ellipse class="cls-8" cx="157.22" cy="15.49" rx="0.92" ry="0.52" transform="translate(118.25 168.59) rotate(-81.35)"></ellipse> <ellipse class="cls-8" cx="147.87" cy="14.06" rx="0.92" ry="0.52" transform="translate(111.74 158.14) rotate(-81.35)"></ellipse> <path class="cls-5" d="M146.92,2.26A4.12,4.12,0,0,1,150,.09a9.26,9.26,0,0,1,3.9.36c3.09.82,6.15,2.34,8,5,2.43,3.51,1.88,12.24-3.84,8.15C153.77,10.5,149.43,6.83,146.92,2.26Z"></path> <path class="cls-5" d="M139.11,7.11c-.65,2.44.85,5.16.69,7.68l3.3-2.9c2-1.76,7.93-6.81,4.7-9.77S139.77,4.64,139.11,7.11Z"></path> <path class="cls-8" d="M151.92,21.68h-.14l0-.45A2.4,2.4,0,0,0,154,20.07s0,0,0-.06a4.11,4.11,0,0,1-1.06-3.44,6.56,6.56,0,0,1,1.54-3.26l.34.28a6.11,6.11,0,0,0-1.44,3,3.66,3.66,0,0,0,.93,3.07.5.5,0,0,1,.18.35.48.48,0,0,1-.08.26A2.89,2.89,0,0,1,151.92,21.68Z"></path> <path class="cls-3" d="M25.32,90.4a7,7,0,0,0-3.5-.31A2.34,2.34,0,0,0,20,92.69a3.39,3.39,0,0,0,1,1.44,10.07,10.07,0,0,0,3.2,2.41c2,.79,4.25.23,6.33-.35a2.45,2.45,0,0,0,1-.45,2,2,0,0,0,.31-2.11C30.91,90.82,27.93,91.08,25.32,90.4Z"></path> <path class="cls-7" d="M120.89,82.77l6.16-5.15s0,25,8.75,40.48c0,0-3.95-.42-4.44-1.66C131.36,116.45,123.27,96.38,120.89,82.77Z"></path> <path class="cls-7" d="M148.13,47.22a13.24,13.24,0,0,1-2.42-.22c-7.13-1.32-10.91-8-11.07-8.32l1-.58c0,.06,3.69,6.51,10.26,7.73,4.44.82,9.21-.89,14.19-5.08l.76.91C156.51,45.35,152.22,47.22,148.13,47.22Z"></path> <polygon class="cls-4" points="177.91 77.79 192.22 60.56 185.29 82.4 177.91 77.79"></polygon> <path class="cls-4" d="M105.16,62.12,119.06,81a82.52,82.52,0,0,1-8.82,5.49Z"></path> <path class="cls-8" d="M103.35,178.35c-2.1-21.78,4.75-37.26,10.87-46.42a56.93,56.93,0,0,1,14-14.81l.33.5a56.35,56.35,0,0,0-13.8,14.67c-6.06,9.07-12.85,24.42-10.76,46Z"></path> <path class="cls-7" d="M179.14,76.31l-13.38-6.24s2.68,13.8-10.67,14.47c0,0,8.19,4.07,12.87,0a70.35,70.35,0,0,0,1.43-10.67l6.3,6.6Z"></path> <path class="cls-7" d="M141.38,84.73a10,10,0,0,1-3.65-.65,9.74,9.74,0,0,1-5.38-5.33l.56-.2a9.31,9.31,0,0,0,5,5c3.18,1.23,7.16.6,11.8-1.85l.28.53A18.89,18.89,0,0,1,141.38,84.73Z"></path> <path class="cls-10" d="M162.11,18.55l-.35-.48a2,2,0,0,0,.61-2.14c0-.13-.18-.58-.49-.65l.14-.58a1.39,1.39,0,0,1,.92,1.07A2.61,2.61,0,0,1,162.11,18.55Z"></path> <path class="cls-10" d="M137.51,14.55a1.75,1.75,0,0,1,1.42-2.22l.09.59a1.16,1.16,0,0,0-.94,1.46Z"></path> <path class="cls-11" d="M158.72,11.11c-3.55-1.83-5.92-4.1-7-6.77a.58.58,0,0,1,0-.49.39.39,0,0,1,.28-.19l.09.59a.2.2,0,0,0,.17-.16c1.07,2.56,3.34,4.74,6.77,6.5Z"></path> <path class="cls-11" d="M161,10.37a8.54,8.54,0,0,1-5-3.87l.51-.3a7.94,7.94,0,0,0,4.61,3.6Z"></path> <path class="cls-11" d="M134.44,33a3.26,3.26,0,0,1-2.27-2.66,5.54,5.54,0,0,1,.66-3.42,18.12,18.12,0,0,1,1.31-2.1l.52-.76a23.21,23.21,0,0,0,2.48-5l.56.2a23.82,23.82,0,0,1-2.55,5.08l-.52.77a17.75,17.75,0,0,0-1.27,2,5,5,0,0,0-.61,3.06,2.69,2.69,0,0,0,1.83,2.19Z"></path> <path class="cls-11" d="M138.41,33.34a5.34,5.34,0,0,1-1.33-6l.54.24a4.8,4.8,0,0,0,1.18,5.35Z"></path> <path class="cls-11" d="M158.5,35.85l-.34-.48a5.13,5.13,0,0,0,2.2-3.2,6.22,6.22,0,0,0-.07-1.94c-.16-1-.42-2-.67-2.92l.57-.16-.29.08.29-.07c.25,1,.52,2,.69,3a6.77,6.77,0,0,1,.07,2.13A5.6,5.6,0,0,1,158.5,35.85Z"></path> <path class="cls-10" d="M90.3,87.41A40.78,40.78,0,0,0,87.5,81l.52-.28a41.44,41.44,0,0,1,2.84,6.48Z"></path> <path class="cls-8" d="M101,55.9l-.46-.38c12.1-14.56,24.69-18.15,24.81-18.19l.16.57C125.35,37.94,112.94,41.49,101,55.9Z"></path> <path class="cls-8" d="M61.4,101.91a117,117,0,0,1-29.88-3.76l.17-.57c.28.08,28.73,8.36,57.4,0l.17.57A100,100,0,0,1,61.4,101.91Z"></path> <path class="cls-12" d="M213.58,59.78s-20.26,18.68-15.12,69.31l-40.12,21.84s58.12-.79,60.84-14S213.58,59.78,213.58,59.78Z"></path> <path class="cls-13" d="M250.54,348.84,209.8,164.62c-2.52-11.41-11.81-19.38-22.59-19.38H143.31c-11.51,0-21.16,9-23,21.37L94,349.17A4.17,4.17,0,0,0,97.22,354a3.92,3.92,0,0,0,4.42-3.5l10.5-72.72H226.87L243,350.81a3.94,3.94,0,0,0,3.75,3.22,3.57,3.57,0,0,0,.91-.12A4.24,4.24,0,0,0,250.54,348.84Zm-137.19-79.5L128,167.92c1.19-8.27,7.64-14.27,15.32-14.27h43.91c7.19,0,13.39,5.32,15.08,12.93L225,269.34Z"></path> <rect class="cls-14" x="143.71" y="145.39" width="44.26" height="8.26" rx="3.51" ry="3.51"></rect> <path class="cls-3" d="M240.41,147.41,212,237.46l12.64,122.71S255,273.56,248.77,235.76l20.53-74.31Z"></path> <path class="cls-3" d="M271.3,138.35s39.36,6.86,7.23,223.19c0,0-43-171.77-34.9-202.83S271.3,138.35,271.3,138.35Z"></path> <path class="cls-3" d="M264.58,130.83c-12.72-63.74-43.31-78.76-46.66-80.06-3.45-6.12-6.91-11-6.91-11s-12.3,5-6.78,9c19.1,13.88-4.24,36.07,4.42,48.37,2.58,3.67,6.39,8.07,11,7.73,4.12,10.9,15,37.07,26.26,43.41C245.56,177.35,270,131.85,264.58,130.83Z"></path> <polygon class="cls-4" points="214.93 266.17 248.3 266.17 245.73 283.11 214.93 266.17"></polygon> <path class="cls-6" d="M211.92,62.16s4.06,8.25,8.92-9.93L223.61,54s32.71,5.51,45.1,83.69c0,0-20.61,15.79-22.78,10.62,0,0-12.91-2.78-26.26-43.41,0,0-9,1.3-13.56-8.46C202.53,88.8,211.92,62.16,211.92,62.16Z"></path> <polygon class="cls-5" points="276.52 353.33 279.74 353.33 284.16 365.27 260.59 365.27 276.52 353.33"></polygon> <polygon class="cls-5" points="223.78 353.33 227 353.33 231.42 365.27 202.81 365.27 223.78 353.33"></polygon> <polygon class="cls-4" points="210.15 55.62 214.21 44.57 217.92 50.76 211.45 58.87 210.15 55.62"></polygon> <path class="cls-3" d="M219.22,33.76c-.84-2.08-2.35-.91-3.33.22v-.3c-.17-4.87-1.71-5.09-6-7.38-4.5-2.4-10.54-4.11-15.2,1.15C191.52,31,190.56,35,191,36.59c.18.75,6.27,23,16.83,19.66,8.2-2.61,9.65-10.9,8-16.09C217.54,39.37,220.19,36.16,219.22,33.76Z"></path> <path class="cls-8" d="M197.79,43.28a.93.93,0,0,1,0,1.28c-.29.2-.65,0-1-.55s-.42-1.11-.12-1.31S197.43,42.76,197.79,43.28Z"></path> <path class="cls-8" d="M204.05,40.45a.93.93,0,0,1,0,1.28c-.29.2-.65,0-1-.55s-.42-1.11-.12-1.31S203.69,39.93,204.05,40.45Z"></path> <path class="cls-8" d="M204.47,38.2c-.37.29-3,1.32-2.07.21a2.69,2.69,0,0,1,1.26-.72C204.1,37.55,205.28,37.55,204.47,38.2Z"></path> <path class="cls-8" d="M194.71,41.29c-.12.08-.25.18-.25.32a.32.32,0,0,0,.27.29.92.92,0,0,0,.42,0l.86-.23a1.54,1.54,0,0,0,.59-.25.53.53,0,0,0-.34-.94C195.74,40.43,195.12,41,194.71,41.29Z"></path> <path class="cls-9" d="M201.31,52.38a19,19,0,0,0,8-3.62S206.45,55.17,201.31,52.38Z"></path> <path class="cls-8" d="M202.9,48.24a1.79,1.79,0,0,1-.76.19,1.84,1.84,0,0,1-1.65-1,3.38,3.38,0,0,1-.24-.78l-.73-3.32.5-.11.73,3.32a2.92,2.92,0,0,0,.2.67,1.3,1.3,0,0,0,2.34,0l.47.21A1.83,1.83,0,0,1,202.9,48.24Z"></path> <path class="cls-10" d="M218.29,36.49l-.56-.38a2.6,2.6,0,0,0,.45-1,.91.91,0,0,0-.22-.81.52.52,0,0,0-.37-.13.35.35,0,0,0-.24.1l-.51-.45a1,1,0,0,1,.72-.33,1.21,1.21,0,0,1,.86.3,1.58,1.58,0,0,1,.43,1.43A3.21,3.21,0,0,1,218.29,36.49Z"></path> <path class="cls-15" d="M204.32,21.61c0-.25.05-.51.07-.76a3.87,3.87,0,0,0,1.15-4.38,4,4,0,0,0-4.28-2.68h0c-2.86.4-3.59,2.22-3.75,2.76h0l-.18.15c-.85.75-1.76,1.63-1.77,2.76a1,1,0,0,1-.1.58.77.77,0,0,1-.44.23,2.72,2.72,0,0,0-1.83,1.09c-.46.87.13,1.93.84,2.6a4.07,4.07,0,0,0,1.27.82c-9.89,6.26-2.79,16.45-2.79,16.45,4.6-3,6.4-11,6.4-11,6.11,8.48,17,3.71,17,3.71C216.64,22.45,210,20.87,204.32,21.61Zm-4.62-5.86a4,4,0,0,1,1.72-.61h0a2.68,2.68,0,0,1,2.82,1.81,2.51,2.51,0,0,1,0,1.76,3.52,3.52,0,0,0-1.47-1.59,10.62,10.62,0,0,0-2.44-1.18A4.81,4.81,0,0,0,199.7,15.75Z"></path> <path class="cls-12" d="M220.83,52.23l1.28.81s4.8,16.29-6.93,14.47c0,0-9.42,4.11-3.26-5.35,0,0,1.55,3.15,3.84,1.3S220.49,53.66,220.83,52.23Z"></path> <path class="cls-16" d="M240.31,143.91S202.6,236,209.42,266.17h81.73s11.18-130.31-26.8-129.58Z"></path> <path class="cls-13" d="M214.63,266.21C209.53,231.38,242,144,242.35,143.1l.56.21c-.33.88-32.77,88.14-27.68,122.82Z"></path> <path class="cls-13" d="M220.13,266.17c-.23-55.09,24.52-123,24.77-123.71l.56.2c-.25.68-25,68.52-24.73,123.5Z"></path> <path class="cls-13" d="M228.21,266.2c-3.92-46,19.57-124,19.81-124.79l.57.17c-.24.78-23.69,78.71-19.78,124.57Z"></path> <path class="cls-13" d="M236.7,266.2C233,233.75,250.83,141.44,251,140.51l.58.11c-.18.93-18,93.15-14.3,125.52Z"></path> <rect class="cls-13" x="185.68" y="202.55" width="127.11" height="0.59" transform="translate(26.17 434.15) rotate(-85.18)"></rect> <rect class="cls-13" x="192.26" y="202.09" width="127.61" height="0.59" transform="translate(47.23 453.23) rotate(-88.54)"></rect> <rect class="cls-13" x="261.94" y="137.51" width="0.59" height="128.67" transform="translate(-2.85 3.76) rotate(-0.82)"></rect> <rect class="cls-13" x="268.12" y="136.47" width="0.59" height="129.83" transform="translate(-12.06 17.17) rotate(-3.58)"></rect> <rect class="cls-13" x="274.17" y="136.45" width="0.59" height="130.16" transform="translate(-21.59 33.31) rotate(-6.68)"></rect> <rect class="cls-13" x="280.78" y="137.42" width="0.59" height="129.54" transform="translate(-28.02 46.17) rotate(-8.95)"></rect> <rect class="cls-13" x="284.14" y="141.09" width="0.59" height="78.69" transform="translate(-31.36 63.23) rotate(-12.03)"></rect> <path class="cls-13" d="M284.15,363.94,243.42,179.72c-2.52-11.41-11.81-19.38-22.59-19.38H176.92c-11.51,0-21.16,9-23,21.37L127.62,364.27a4.17,4.17,0,0,0,3.22,4.81,3.92,3.92,0,0,0,4.42-3.5l10.5-72.72H260.49l16.15,73.05a3.94,3.94,0,0,0,3.75,3.22,3.57,3.57,0,0,0,.91-.12A4.24,4.24,0,0,0,284.15,363.94ZM147,284.45,161.6,183c1.19-8.27,7.64-14.27,15.32-14.27h43.91c7.19,0,13.39,5.32,15.08,12.93l22.72,102.75Z"></path> <rect class="cls-14" x="177.33" y="160.5" width="44.26" height="8.26" rx="3.51" ry="3.51"></rect> <path class="cls-12" d="M197,167.63s56.18-36.41,59.81-55.93c0,0-9.81-35.54-23.81-51.46a8.69,8.69,0,0,0-15,4c-2,9.7-1.1,30.25,15.26,46.5Z"></path> <path class="cls-3" d="M206.55,160.19a2.23,2.23,0,0,1,0,1.82c-1,2.89-4,5.09-8,5.94a3,3,0,0,1-2.38-.31,1.32,1.32,0,0,1-.47-1.07,6,6,0,0,1,1.95-4.36,18.56,18.56,0,0,1,4.47-3.08C203.36,158.44,205.7,158.48,206.55,160.19Z"></path> <path class="cls-3" d="M169.31,150.62a2.16,2.16,0,0,1,.89.78c.44.82-.16,1.83-.89,2.4a9.54,9.54,0,0,1-4.54,1.68,9.14,9.14,0,0,1-4-.06c-3.84-1.14-2.61-3.71.22-5A9.31,9.31,0,0,1,169.31,150.62Z"></path> <path class="cls-17" d="M233.37,111.07l-.22-.55a8,8,0,0,1,4.72-.36h.37l.07.19-.27.1.25.14-.28.15v0l-.1,0A7.35,7.35,0,0,0,233.37,111.07Zm4.59-.59-.22.08Zm0,0h0Z"></path> <path class="cls-17" d="M205.76,131.93a19.11,19.11,0,0,1-4-.51,7.12,7.12,0,0,1-3.55-2.07l.45-.39a6.53,6.53,0,0,0,3.26,1.89,18.58,18.58,0,0,0,3.89.49Z"></path> <path class="cls-17" d="M256.82,111.7s-5.47-20.78-12.45-33.24c0,0,9.85,25.68,8.63,41.55C253,120,255.17,118.26,256.82,111.7Z"></path> <path class="cls-17" d="M218.46,105l1.26,24.21-10.29-27.94A13.76,13.76,0,0,0,218.46,105Z"></path> <path class="cls-14" d="M291.15,266.17s1.65-36.24,1.54-43.38c0,0-3.18,27.63-21.31,43.38Z"></path> <path class="cls-7" d="M219.67,104.9s6.24,8.55,11.6,9l-5.14,8.06S221.58,111.5,219.67,104.9Z"></path> <path class="cls-18" d="M207.93,32.4q-.48,0-1,0a10.67,10.67,0,0,1-7.28-3.19l.44-.4a10.23,10.23,0,0,0,6.88,3,22.15,22.15,0,0,0,7.68-1.15l.17.57A24.3,24.3,0,0,1,207.93,32.4Z"></path> <path class="cls-18" d="M190.94,40.59l.94-1.59.15.09a12.58,12.58,0,0,0,4.89-9.48l.59,0a13.17,13.17,0,0,1-5.44,10.16Z"></path> <path class="cls-18" d="M196,24.31a1.52,1.52,0,0,1-.39-3l.15.58a.93.93,0,0,0,.35,1.82l.08.59Z"></path> <path class="cls-18" d="M199.66,22.83l-.49,0,0-.59a4,4,0,0,0,1.7-.18,1.92,1.92,0,0,0,1.15-1,3,3,0,0,0,.13-1.17,2.92,2.92,0,0,0-.23-1.2,1.51,1.51,0,0,0-2-.58l-.05,0a1,1,0,0,1-.47.18,1,1,0,0,1-.49-.14l-.07,0a1.15,1.15,0,0,0-1.53,1.52l-.54.25a1.74,1.74,0,0,1,2.32-2.31l.08,0c.07,0,.15.09.19.07a.56.56,0,0,0,.19-.09l.06,0a2.11,2.11,0,0,1,2.88.82,3.43,3.43,0,0,1,.29,1.45,3.48,3.48,0,0,1-.17,1.41,2.51,2.51,0,0,1-1.5,1.38A4.1,4.1,0,0,1,199.66,22.83Z"></path> <path class="cls-18" d="M207.88,28.91a11.81,11.81,0,0,1-2.3-.22A9.06,9.06,0,0,1,201,26.33l.42-.42a8.47,8.47,0,0,0,4.33,2.2,12.84,12.84,0,0,0,4.95-.07l.11.58A15.08,15.08,0,0,1,207.88,28.91Z"></path> <path class="cls-8" d="M266.6,120.05c-5.16-37.47-23.24-55.47-30.77-61.47a3.5,3.5,0,0,1-.41-.35l.45-.39.33.27c7.59,6,25.8,24.17,31,61.86Z"></path> <rect class="cls-8" x="148.33" y="295.29" width="74.98" height="0.59"></rect> <rect class="cls-8" x="246.82" y="310.74" width="79.56" height="0.59" transform="translate(-55.34 559.95) rotate(-83.39)"></rect> <path class="cls-8" d="M295.45,226.61l-.59,0c1.38-43.71-4.49-65.8-9.66-76.64-5.56-11.65-11.44-13.06-11.49-13.07l.13-.58c.25.06,6.22,1.49,11.9,13.4C290.93,160.59,296.83,182.78,295.45,226.61Z"></path> <circle class="cls-6" cx="227.63" cy="64.4" r="0.5" transform="translate(21.14 179.82) rotate(-45)"></circle> <circle class="cls-6" cx="208.13" cy="70.07" r="0.5" transform="translate(11.41 167.7) rotate(-45)"></circle> <circle class="cls-6" cx="238.85" cy="100.79" r="0.5" transform="translate(-1.31 198.41) rotate(-45)"></circle> <circle class="cls-6" cx="238.85" cy="83.07" r="0.68" transform="translate(11.22 193.22) rotate(-45)"></circle> <circle class="cls-6" cx="242.56" cy="115.93" r="0.74"></circle> <circle class="cls-6" cx="225.47" cy="88.29" r="0.74"></circle> <circle class="cls-6" cx="211.97" cy="120.01" r="0.74"></circle> <circle class="cls-6" cx="195.65" cy="133.59" r="0.74"></circle> <circle class="cls-6" cx="206.34" cy="140.25" r="0.74"></circle> <circle class="cls-6" cx="201.59" cy="118.11" r="0.74"></circle> <circle class="cls-6" cx="202.81" cy="94.43" r="0.74"></circle> <circle class="cls-6" cx="234.83" cy="70.07" r="0.74"></circle> <circle class="cls-6" cx="221.35" cy="67.51" r="0.74"></circle> <circle class="cls-6" cx="202.81" cy="83.81" r="0.74"></circle> <circle class="cls-6" cx="232.07" cy="136.57" r="0.7" transform="translate(-28.6 204.1) rotate(-45)"></circle> <circle class="cls-6" cx="246.92" cy="99.23" r="0.66" transform="translate(2.15 203.65) rotate(-45)"></circle> <circle class="cls-6" cx="231.27" cy="123.45" r="0.7" transform="translate(-19.56 199.68) rotate(-45)"></circle> <circle class="cls-6" cx="214.58" cy="152.12" r="0.84" transform="translate(-44.71 196.28) rotate(-45)"></circle> <circle class="cls-6" cx="218.54" cy="139.2" r="0.84" transform="translate(-34.42 195.32) rotate(-45)"></circle> <circle class="cls-6" cx="231.27" cy="97.68" r="0.61" transform="translate(-1.33 192.14) rotate(-45)"></circle> <circle class="cls-6" cx="243.3" cy="126.23" r="0.61" transform="translate(-17.99 209.01) rotate(-45)"></circle> <circle class="cls-6" cx="220.42" cy="77.84" r="0.42" transform="translate(9.53 178.68) rotate(-45)"></circle> <circle class="cls-6" cx="206.34" cy="110.52" r="0.42" transform="translate(-17.71 178.28) rotate(-45)"></circle> <circle class="cls-6" cx="214.51" cy="131.64" r="0.42" transform="translate(-30.25 190.26) rotate(-45)"></circle> <circle class="cls-6" cx="200.85" cy="127.88" r="0.42" transform="translate(-31.59 179.5) rotate(-45)"></circle> <circle class="cls-6" cx="186.11" cy="139.2" r="0.42" transform="translate(-43.92 172.37) rotate(-45)"></circle> <circle class="cls-6" cx="197.42" cy="142.57" r="0.42" transform="translate(-42.99 181.37) rotate(-45)"></circle> <circle class="cls-6" cx="177.99" cy="142.98" r="0.42" transform="translate(-48.98 167.72) rotate(-45)"></circle> <circle class="cls-6" cx="206.75" cy="123.87" r="0.42" transform="translate(-27.04 182.47) rotate(-45)"></circle> <circle class="cls-6" cx="205.29" cy="101.64" r="0.42" transform="translate(-11.74 174.91) rotate(-45)"></circle> <circle class="cls-6" cx="198.89" cy="107.51" r="0.42" transform="translate(-17.77 172.12) rotate(-45)"></circle> <circle class="cls-6" cx="206.34" cy="77" r="0.42" transform="translate(5.99 168.46) rotate(-45)"></circle> <circle class="cls-6" cx="222.04" cy="146.61" r="0.42" transform="translate(-38.63 199.97) rotate(-45)"></circle> <circle class="cls-6" cx="231.68" cy="77.84" r="0.42" transform="translate(12.82 186.62) rotate(-45)"></circle> <circle class="cls-6" cx="207.09" cy="156.63" r="0.42" transform="translate(-50.1 192.31) rotate(-45)"></circle> <circle class="cls-6" cx="224.15" cy="133.59" r="0.42" transform="translate(-28.81 197.63) rotate(-45)"></circle> <circle class="cls-6" cx="236.11" cy="128.3" r="0.42" transform="translate(-21.57 204.53) rotate(-45)"></circle> <path class="cls-8" d="M211.67,68.57a2.37,2.37,0,0,1-1.81-.61c-.61-.68-.49-1.81.37-3.44l.53.28c-.71,1.35-.86,2.31-.45,2.77.82.92,3.72.07,4.77-.33l.07,0h.07a16.68,16.68,0,0,0,2.25.12l0,.59a16.66,16.66,0,0,1-2.27-.11A11.59,11.59,0,0,1,211.67,68.57Z"></path> <rect class="cls-18" x="214.03" y="69.07" width="0.59" height="2.47" transform="translate(36.52 209.1) rotate(-56.14)"></rect> <rect class="cls-18" x="210.18" y="73.35" width="2.39" height="0.59" transform="translate(34.67 211.04) rotate(-57.07)"></rect> <path class="cls-18" d="M215.92,78.18a3.69,3.69,0,0,1-1.84-1l.43-.41a3.09,3.09,0,0,0,1.54.86Z"></path> <rect class="cls-18" x="209.93" y="80.17" width="2.26" height="0.59" transform="translate(54.06 242.86) rotate(-66.84)"></rect> <rect class="cls-18" x="215.08" y="82.4" width="0.59" height="1.93"></rect> <path class="cls-18" d="M210.54,87.23a2.92,2.92,0,0,1-2.18-1l.45-.39a2.34,2.34,0,0,0,2.44.65l.19.56A2.76,2.76,0,0,1,210.54,87.23Z"></path> <path class="cls-18" d="M216.73,90.71a3.4,3.4,0,0,1-.3-2l.59.09a2.81,2.81,0,0,0,.25,1.62Z"></path> <rect class="cls-18" x="212.16" y="91.77" width="1.99" height="0.59" transform="translate(36.65 242.92) rotate(-63.88)"></rect> <path class="cls-18" d="M207.48,93.05a4.37,4.37,0,0,1-1.22-1.31l.51-.31a3.76,3.76,0,0,0,1.06,1.13Z"></path> <rect class="cls-18" x="211.23" y="97.2" width="2.53" height="0.59" transform="translate(-11.61 164.1) rotate(-41.2)"></rect> <path class="cls-18" d="M220.74,97.23a4.3,4.3,0,0,1-1.75-1.6l.51-.31A3.76,3.76,0,0,0,221,96.7Z"></path> <path class="cls-18" d="M218.17,101.8a1.5,1.5,0,0,1-.56-1.48l.58.12a.91.91,0,0,0,.33.89Z"></path> <path class="cls-18" d="M224.39,105.56a3.62,3.62,0,0,1-.93-.12l.15-.57a3.08,3.08,0,0,0,2-.17l.24.54A3.63,3.63,0,0,1,224.39,105.56Z"></path> <rect class="cls-18" x="222.99" y="54.6" width="0.59" height="1.13" transform="translate(-6.65 60.55) rotate(-15.22)"></rect> <path class="cls-18" d="M225.19,56.82l-.39,0,.06-.59a3.37,3.37,0,0,0,1.46-.18l.2.56A4,4,0,0,1,225.19,56.82Z"></path> <path class="cls-18" d="M238.47,64.6a11.66,11.66,0,0,1-2-1.23l.36-.47a11.11,11.11,0,0,0,1.92,1.17Z"></path> <path class="cls-18" d="M241.85,69.63l-.58-.11a5.73,5.73,0,0,0,.07-1.7l.59-.06A6.33,6.33,0,0,1,241.85,69.63Z"></path> <path class="cls-18" d="M226.61,109.42l-.14,0a.56.56,0,0,1-.3-.38,8,8,0,0,1-.34-2.09l.59,0a7.46,7.46,0,0,0,.31,1.93s0,0,0,0a.19.19,0,0,0-.22.05.23.23,0,0,0,0,.28l.48-.35a.36.36,0,0,1,0,.44A.42.42,0,0,1,226.61,109.42Z"></path> <polygon class="cls-18" points="231.66 110.64 228.6 110.53 228.79 109.81 229.36 109.96 229.36 109.96 231.68 110.05 231.66 110.64"></polygon> <path class="cls-18" d="M245.11,74a7,7,0,0,1-2.29-.58l.24-.54a6.41,6.41,0,0,0,2.1.53Z"></path> <path class="cls-18" d="M246.83,79.73a23,23,0,0,1-.31-3.41h.59a22.56,22.56,0,0,0,.3,3.32Z"></path> <path class="cls-18" d="M251,82.47a5.68,5.68,0,0,0-1.4-1l.26-.53A6.27,6.27,0,0,1,251.38,82Z"></path> <rect class="cls-18" x="249.45" y="84.83" width="1.59" height="0.59" transform="translate(149.62 329.55) rotate(-86.41)"></rect> <rect class="cls-18" x="251.83" y="88.44" width="1.57" height="0.59" transform="translate(-5.34 160.49) rotate(-34.9)"></rect> <path class="cls-18" d="M255.82,93.95a6.17,6.17,0,0,1-1-1.46l.53-.27a5.58,5.58,0,0,0,.94,1.32Z"></path> <path class="cls-18" d="M253.06,95.73l-.19-.56a1.67,1.67,0,0,0,.82-.61l.49.34A2.26,2.26,0,0,1,253.06,95.73Z"></path> <path class="cls-18" d="M256.9,99.09a3.65,3.65,0,0,1-.87-1.83l.59-.09a3,3,0,0,0,.73,1.53Z"></path> <path class="cls-18" d="M257.08,103a3.63,3.63,0,0,1-1.62-.64l.35-.48a3,3,0,0,0,1.35.54Z"></path> <rect class="cls-18" x="259.28" y="107.3" width="0.99" height="0.59" transform="translate(15.18 246.28) rotate(-52.05)"></rect> <rect class="cls-18" x="261.72" y="113.19" width="0.59" height="2.01" transform="translate(-19.97 160.84) rotate(-32.94)"></rect> <path class="cls-18" d="M258.57,119.34,258,119a7.3,7.3,0,0,0,.87-2.66l.59.07A7.88,7.88,0,0,1,258.57,119.34Z"></path> <path class="cls-18" d="M262.95,121.15l-.16-.07a2.06,2.06,0,0,1-1.18-.87l-.2-.4.53-.27.2.4a1.63,1.63,0,0,0,.87.58l.17.07Z"></path> <rect class="cls-18" x="253.72" y="121.53" width="1.57" height="0.59" transform="translate(-23.8 168.33) rotate(-35.07)"></rect> <rect class="cls-18" x="258.41" y="123.16" width="0.59" height="1.88"></rect> <path class="cls-18" d="M263.42,126.38h-.28l.05-.59a2.65,2.65,0,0,0,1.51-.32l.29.52A3.27,3.27,0,0,1,263.42,126.38Z"></path> <path class="cls-18" d="M265.54,132.34l-.58-.13a6.23,6.23,0,0,1,.91-2.1l.49.33A5.63,5.63,0,0,0,265.54,132.34Z"></path> <rect class="cls-18" x="261.81" y="129.89" width="1.33" height="0.59" transform="translate(-30.36 139.57) rotate(-28.22)"></rect> <path class="cls-18" d="M263,135.53a21,21,0,0,1-2.91-1l.23-.55a20.35,20.35,0,0,0,2.83,1Z"></path> <path class="cls-18" d="M256.43,128.6a8.87,8.87,0,0,1-1.63-2.3l.53-.26a8.29,8.29,0,0,0,1.52,2.15Z"></path> <path class="cls-18" d="M255.39,133.21l-.3-.51a4.06,4.06,0,0,0,1.39-1.38l.51.31A4.65,4.65,0,0,1,255.39,133.21Z"></path> <path class="cls-18" d="M249.7,129.24l-.14-.58c.91-.22,1.83-.47,2.72-.75l.18.57C251.55,128.76,250.62,129,249.7,129.24Z"></path> <rect class="cls-18" x="249.99" y="133.16" width="0.59" height="2.48"></rect> <path class="cls-18" d="M253.34,138.42h-.19l0-.59a4.4,4.4,0,0,0,2.32-.56l.29.52A5,5,0,0,1,253.34,138.42Z"></path> <path class="cls-18" d="M246.66,133.86a5.24,5.24,0,0,1-2.25-.51l.26-.54a4.62,4.62,0,0,0,2.24.44l0,.59Z"></path> <path class="cls-18" d="M245,138.67l-.58-.12a6.41,6.41,0,0,1,.89-2.2l.5.32A5.82,5.82,0,0,0,245,138.67Z"></path> <path class="cls-18" d="M240.65,142.25a4,4,0,0,1-2.18-1l.4-.44a3.44,3.44,0,0,0,1.86.86Z"></path> <path class="cls-18" d="M240.16,138.29l-.57-.18a24.11,24.11,0,0,1,1.12-2.9l.54.25A23.62,23.62,0,0,0,240.16,138.29Z"></path> <path class="cls-18" d="M248.36,140.81l-1.46-1a.56.56,0,0,1-.22-.62.35.35,0,0,1,.4-.21l-.11.58a.24.24,0,0,0,.21-.08.21.21,0,0,0,.06-.17l1.45,1Z"></path> <path class="cls-8" d="M194.26,125.73c-2.82-49.82,9.78-58.84,10.32-59.2l.33.49c-.13.09-12.85,9.29-10.06,58.67Z"></path> <rect class="cls-8" x="205.92" y="171.86" width="0.59" height="48.59" transform="translate(-36.06 46.82) rotate(-11.92)"></rect> <path class="cls-18" d="M215.76,33.95A16.6,16.6,0,0,0,212,35.07a16.59,16.59,0,0,0-3.57,2.56l-2.25,1.94a3,3,0,0,0-3.68-1.38,2.89,2.89,0,0,0-1,3.62,4.26,4.26,0,0,0-1.68.34,2.86,2.86,0,0,0-.87.51c0-.08-.09-.17-.14-.26a3.68,3.68,0,0,0-1.92-1.51,2.51,2.51,0,0,0-2.19.24,3.07,3.07,0,0,0-.48,4.28,3.69,3.69,0,0,0,1.92,1.51,2.86,2.86,0,0,0,.88.14,2.37,2.37,0,0,0,1.31-.38,2.52,2.52,0,0,0,1.09-1.91,3.49,3.49,0,0,0-.18-1.42,1.71,1.71,0,0,1,.82-.56,3.23,3.23,0,0,1,1.76-.26h0a3.75,3.75,0,0,0,1.63,1.54,2.69,2.69,0,0,0,1.12.26,2.19,2.19,0,0,0,1-.25,2.39,2.39,0,0,0,1.21-1.77,3.74,3.74,0,0,0-.33-2.18l2.36-2a16.15,16.15,0,0,1,3.43-2.47,16.16,16.16,0,0,1,3.62-1.08Zm-17,10.76a1.75,1.75,0,0,1-2.39,1.57A3,3,0,0,1,194.79,45a2.4,2.4,0,0,1,.28-3.33,1.69,1.69,0,0,1,.94-.27,2.18,2.18,0,0,1,.67.11,3,3,0,0,1,1.56,1.24,3.32,3.32,0,0,1,.28.54l0,0h0A2.85,2.85,0,0,1,198.74,44.71Zm7.39-2.53a1.6,1.6,0,0,1-2.39,1.26,3.11,3.11,0,0,1-1.41-1.4c-.67-1.28-.45-2.74.5-3.24a1.51,1.51,0,0,1,.71-.17,2.74,2.74,0,0,1,2.24,1.59A3.11,3.11,0,0,1,206.13,42.17Z"></path> <rect class="cls-8" x="323.64" y="307.27" width="53.58" height="0.65"></rect> <rect class="cls-8" x="339.87" y="311.83" width="36.71" height="0.65"></rect> <path class="cls-8" d="M322.71,302l1.69,15.54.07.66,2.68,24.68.07.66.47,4.31.07.69,1.2,11,.07.65.27,2.55h42.27l2.4-22.13.07-.65.82-7.5.07-.66,1.42-13.09.07-.68,1.74-16Zm53.09,15.78-.07.65-1.44,13.19-.07.66-.82,7.57-.07.65L371,362H329.9l-.22-2-.07-.65-1.15-10.57-.08-.74-.51-4.66-.07-.65-2.69-24.68-.07-.65-1.61-14.76h54Z"></path> <path class="cls-5" d="M328.9,287.45c-6.38-6.15-12.81-12.36-17.74-19.72s-8.33-16.05-7.92-24.9c.11-2.29,1.15-5.2,3.44-5.14a4.55,4.55,0,0,1,2.4,1c11,7.75,17.26,20.37,23.11,32.47,3.83,7.92,7.66,15.86,10.45,24.22,1.7,5.09.75,6-3.26,2.14C335.86,294.21,332.39,290.82,328.9,287.45Z"></path> <path class="cls-5" d="M341.85,261.39c-2.22-12.76-3.69-26-.34-38.53a16.06,16.06,0,0,1,3.33-6.92c1.76-1.9,4.56-3,7-2.18,2.85,1,4.26,4.13,5.19,7,6.49,20,5,41.87.45,62.44-.92,4.16-2,8.39-4.44,11.89a15.43,15.43,0,0,1-7.28,5.93C347.34,287.81,344.14,274.57,341.85,261.39Z"></path> <path class="cls-5" d="M372,247.28c.12-7,.14-14.05,1.39-20.94a11.72,11.72,0,0,1,2.24-5.71c3-3.45,9-2.65,12.18.59s4.26,8,4.67,12.58a63.31,63.31,0,0,1-4.24,28.92c-4.94,12.4-13.65,22.8-23.06,32.08-1.64,1.62-4.8,5.55-4,1.48.48-2.58,3.43-5.94,4.5-8.48A76.11,76.11,0,0,0,370.54,269,175.44,175.44,0,0,0,372,247.28Z"></path> <path class="cls-2" d="M351.92,292.4l-.55-.23c4.2-9.89,2.48-21.05.82-31.85-.19-1.23-.38-2.45-.55-3.66a216.85,216.85,0,0,1-2.14-39.76l.59,0a216.13,216.13,0,0,0,2.13,39.65c.18,1.21.37,2.43.55,3.66C354.46,271.11,356.19,282.35,351.92,292.4Z"></path> <path class="cls-2" d="M370.23,285.87l-.52-.28a130.52,130.52,0,0,0,10.13-24.87,73.34,73.34,0,0,0,2.92-14.6c.69-8.34-.66-16.74-2-24.86l.59-.09c1.31,8.16,2.66,16.59,2,25a73.91,73.91,0,0,1-2.94,14.72A131.11,131.11,0,0,1,370.23,285.87Z"></path> <path class="cls-2" d="M339.24,292.05a126.57,126.57,0,0,1-21.6-31.17c-.42-.86-.84-1.74-1.26-2.61-2.55-5.34-5.18-10.86-9.63-14.72l.39-.45c4.54,3.95,7.2,9.52,9.78,14.92.42.87.83,1.75,1.26,2.61a126,126,0,0,0,21.5,31Z"></path> </g> </g> </svg> 