<?xml version="1.0" encoding="UTF-8"?> <svg xmlns="http://www.w3.org/2000/svg" viewBox="0 0 554.6 498.3"> <defs> <style>.cls-1{fill:#996888;}.cls-2{fill:#b7aec5;}.cls-3{fill:#360a14;}.cls-4{fill:#fcbf7c;}.cls-5{fill:#e8a66f;}.cls-6{fill:#f7c4a5;}.cls-7{fill:#21094c;}.cls-8{fill:#ffede4;}.cls-9{fill:#e88873;}.cls-10{fill:#dc6a55;}.cls-11{fill:#915b76;}.cls-12{fill:#e7a89a;}.cls-13{fill:#faf9fb;}.cls-14{fill:#2e6171;}.cls-15{fill:#215267;}</style> </defs> <title>Ресурс 9</title> <g id="Слой_2" data-name="Слой 2"> <g id="_Layer_" data-name="&lt;Layer&gt;"> <path class="cls-1" d="M447.89,92.31s-26.59,24.51-19.85,91L375.4,211.94s80-1.78,83.58-19.14S447.89,92.31,447.89,92.31Z"></path> <path class="cls-2" d="M496.4,471.66,442.94,229.9c-3.31-15-15.5-25.43-29.64-25.43H355.67c-15.11,0-27.77,11.8-30.12,28L291,472.1a5.48,5.48,0,0,0,4.22,6.31,5.14,5.14,0,0,0,5.79-4.6l13.77-95.44H465.34l21.2,95.87a5.18,5.18,0,0,0,4.92,4.23,4.68,4.68,0,0,0,1.19-.16A5.56,5.56,0,0,0,496.4,471.66Zm-180-104.33,19.21-133.1c1.57-10.85,10-18.72,20.11-18.72H413.3c9.44,0,17.58,7,19.79,17L462.9,367.33Z"></path> <rect class="cls-3" x="356.21" y="204.67" width="58.09" height="10.84" rx="4.61" ry="4.61"></rect> <path class="cls-4" d="M483.1,207.32,445.78,325.5l16.59,161s7-.12,8-3.21c7.43-22.13,30.88-116.55,23.71-160.06L521,225.75Z"></path> <path class="cls-4" d="M523.65,195.43s55.7,15.31,15.77,291.11c-.4,2.74-6.27,1.8-6.27,1.8s-56.41-225.42-45.8-266.19S523.65,195.43,523.65,195.43Z"></path> <path class="cls-4" d="M514.82,185.55c-16.69-83.65-64-119-64-119s-22.39,6.07-15.14,11.34c25.07,18.21-5.56,47.34,5.8,63.48,3.39,4.81,8.39,10.59,14.44,10.15,5.4,14.31,19.62,48.65,34.46,57C489.86,246.61,521.94,186.89,514.82,185.55Z"></path> <polygon class="cls-5" points="449.67 363.17 494.68 363.17 491.94 385.4 449.67 363.17"></polygon> <path class="cls-6" d="M445.72,95.44s8,3.44,14.35-20.43c0,0,43.92,16.93,60.17,119.54,0,0-27.05,20.73-29.9,13.93,0,0-16.94-3.64-34.46-57,0,0-11.8,1.7-17.8-11.1C433.39,130.4,445.72,95.44,445.72,95.44Z"></path> <polygon class="cls-3" points="530.49 477.56 540.52 477.56 544.84 493.23 509.59 493.23 530.49 477.56"></polygon> <polygon class="cls-3" points="461.28 477.56 472.47 476.56 476.84 493.23 437.84 493.23 461.28 477.56"></polygon> <polygon class="cls-5" points="443.39 86.86 450.78 66.55 457.47 72.44 443.39 86.86"></polygon> <path class="cls-4" d="M455.3,58.16c-1.11-2.73-3.08-1.2-4.37.28q0-.2,0-.4c-.23-6.39-2.25-6.67-7.89-9.69-5.91-3.15-13.83-5.39-20,1.51-4.12,4.65-5.39,9.91-4.87,12,.24,1,8.23,30.2,22.09,25.8,10.77-3.42,12.66-14.3,10.49-21.12C453.1,65.53,456.57,61.31,455.3,58.16Z"></path> <path class="cls-7" d="M427.17,70.66a1.22,1.22,0,0,1-.06,1.68c-.38.26-.86,0-1.33-.72s-.55-1.46-.16-1.73S426.7,70,427.17,70.66Z"></path> <path class="cls-7" d="M435.39,66.95a1.22,1.22,0,0,1-.06,1.68c-.38.26-.86,0-1.33-.72s-.55-1.46-.16-1.73S434.92,66.26,435.39,66.95Z"></path> <path class="cls-7" d="M435.94,64c-.48.38-3.9,1.74-2.72.28a3.53,3.53,0,0,1,1.65-.95C435.45,63.14,437,63.14,435.94,64Z"></path> <path class="cls-7" d="M423.14,68.05c-.16.11-.33.24-.33.43a.42.42,0,0,0,.35.38,1.21,1.21,0,0,0,.56-.06l1.13-.31a2,2,0,0,0,.77-.33.69.69,0,0,0-.45-1.24C424.48,66.91,423.66,67.69,423.14,68.05Z"></path> <path class="cls-8" d="M431.79,82.6a25,25,0,0,0,10.56-4.76S438.54,86.26,431.79,82.6Z"></path> <path class="cls-7" d="M433.87,77.17a2.35,2.35,0,0,1-1,.24,2.41,2.41,0,0,1-2.17-1.32,4.45,4.45,0,0,1-.32-1l-1-4.35.66-.14,1,4.35a3.82,3.82,0,0,0,.27.87,1.7,1.7,0,0,0,3.07-.05L435,76A2.4,2.4,0,0,1,433.87,77.17Z"></path> <path class="cls-5" d="M454.07,61.75l-.74-.5a3.43,3.43,0,0,0,.6-1.27,1.19,1.19,0,0,0-.29-1.07.69.69,0,0,0-.49-.16.47.47,0,0,0-.32.13l-.67-.59a1.34,1.34,0,0,1,.94-.43,1.59,1.59,0,0,1,1.14.4,2.07,2.07,0,0,1,.57,1.88A4.22,4.22,0,0,1,454.07,61.75Z"></path> <path class="cls-2" d="M435.74,42.22c0-.33.07-.67.1-1a5.08,5.08,0,0,0,1.51-5.75A5.28,5.28,0,0,0,431.74,32h-.05c-3.75.53-4.72,2.91-4.92,3.63v0l-.24.2c-1.11,1-2.32,2.14-2.33,3.62a1.25,1.25,0,0,1-.13.76,1,1,0,0,1-.58.3,3.58,3.58,0,0,0-2.4,1.43c-.6,1.14.17,2.53,1.11,3.42a5.33,5.33,0,0,0,1.67,1.08c-13,8.21-3.67,21.59-3.67,21.59,6-3.91,8.4-14.44,8.4-14.44,8,11.12,22.34,4.87,22.34,4.87C451.91,43.32,443.15,41.25,435.74,42.22Zm-6.06-7.69a5.21,5.21,0,0,1,2.26-.8h0a3.52,3.52,0,0,1,3.69,2.37,3.3,3.3,0,0,1,.05,2.31,4.61,4.61,0,0,0-1.93-2.08,13.94,13.94,0,0,0-3.2-1.54A6.3,6.3,0,0,0,429.68,34.54Z"></path> <path class="cls-1" d="M460.07,75l2.48,1.23s2.85,28.6-12.55,26.21c0,0-12.36,5.4-4.28-7,0,0,1.73,1.21,4.73-1.22S459.61,76.89,460.07,75Z"></path> <path class="cls-9" d="M482,202.58s-48.54,121-39.59,160.59l110,0s13.65-158.58-32.93-173a.25.25,0,0,0-.15,0Z"></path> <path class="cls-10" d="M449.28,363.23c-6.7-45.71,35.94-160.42,36.37-161.57l.73.27c-.43,1.15-43,115.67-36.33,161.18Z"></path> <path class="cls-10" d="M456.49,363.17c-.3-72.3,32.18-161.46,32.5-162.35l.73.27C489.4,202,457,291,457.27,363.17Z"></path> <path class="cls-10" d="M467.09,363.21c-5.14-60.34,25.68-162.75,26-163.77l.75.23c-.31,1-31.09,103.29-26,163.48Z"></path> <path class="cls-10" d="M478.24,363.22c-4.91-42.59,18.54-163.74,18.77-165l.77.15c-.24,1.22-23.66,122.25-18.76,164.72Z"></path> <rect class="cls-10" x="411.28" y="279.67" width="166.81" height="0.78" transform="translate(174 749.43) rotate(-85.17)"></rect> <rect class="cls-10" x="419.92" y="279.08" width="167.47" height="0.78" transform="translate(211.49 775.86) rotate(-88.55)"></rect> <rect class="cls-10" x="511.37" y="194.32" width="0.78" height="168.86" transform="translate(-3.93 7.33) rotate(-0.82)"></rect> <rect class="cls-10" x="519.47" y="192.95" width="0.78" height="170.39" transform="translate(-16.37 33.04) rotate(-3.58)"></rect> <rect class="cls-10" x="527.41" y="192.93" width="0.78" height="170.82" transform="translate(-28.81 63.32) rotate(-6.68)"></rect> <rect class="cls-10" x="536.09" y="194.2" width="0.78" height="170" transform="translate(-36.89 86.82) rotate(-8.95)"></rect> <polygon class="cls-10" points="553.83 306.85 529.75 200.24 530.51 200.08 554.6 306.69 553.83 306.85"></polygon> <path class="cls-2" d="M540.51,491.49,487.05,249.72c-3.31-15-15.5-25.43-29.64-25.43H399.79c-15.11,0-27.77,11.8-30.12,28L335.09,491.92a5.48,5.48,0,0,0,4.22,6.31,5.14,5.14,0,0,0,5.79-4.6l13.77-95.44H509.46l21.2,95.87a5.18,5.18,0,0,0,4.92,4.23,4.69,4.69,0,0,0,1.19-.16A5.56,5.56,0,0,0,540.51,491.49Zm-180-104.33,19.21-133.1c1.57-10.85,10-18.72,20.1-18.72h57.62c9.44,0,17.57,7,19.79,17L507,387.16Z"></path> <rect class="cls-3" x="400.32" y="224.49" width="58.09" height="10.84" rx="4.61" ry="4.61"></rect> <path class="cls-4" d="M390.65,211.19a3.2,3.2,0,0,1,1.31,1.16c.66,1.21-.24,2.71-1.32,3.56a14.14,14.14,0,0,1-6.73,2.49,13.55,13.55,0,0,1-5.94-.09c-5.69-1.69-3.87-5.5.33-7.44A13.8,13.8,0,0,1,390.65,211.19Z"></path> <path class="cls-11" d="M437.63,187a25,25,0,0,1-5.27-.67,9.34,9.34,0,0,1-4.66-2.72l.59-.51a8.57,8.57,0,0,0,4.27,2.48,24.38,24.38,0,0,0,5.11.64Z"></path> <path class="cls-11" d="M455.88,151.52l1.48,4.58,2.15,26.5-17.06-35.9S448.45,151.3,455.88,151.52Z"></path> <path class="cls-12" d="M455.89,151.52s10.2,13,17.22,13.63L465.53,177S458.4,160.19,455.89,151.52Z"></path> <path class="cls-13" d="M440.49,56.38q-.62,0-1.26,0a14,14,0,0,1-9.56-4.18l.57-.53a13.42,13.42,0,0,0,9,3.93A29.07,29.07,0,0,0,449.36,54l.23.75A31.89,31.89,0,0,1,440.49,56.38Z"></path> <path class="cls-13" d="M418.18,67.13,419.42,65l.19.11A16.51,16.51,0,0,0,426,52.71l.78,0a17.28,17.28,0,0,1-7.13,13.34Z"></path> <path class="cls-13" d="M424.78,45.77a2,2,0,0,1-.51-3.93l.19.76a1.22,1.22,0,0,0,.46,2.39l.1.77Z"></path> <path class="cls-13" d="M429.63,43.82l-.65,0L429,43a5.25,5.25,0,0,0,2.23-.24,2.52,2.52,0,0,0,1.51-1.36,3.88,3.88,0,0,0,.17-1.54,3.83,3.83,0,0,0-.3-1.58,2,2,0,0,0-2.67-.76l-.07,0a1.27,1.27,0,0,1-.62.24,1.32,1.32,0,0,1-.65-.18l-.09,0a1.5,1.5,0,0,0-2,2l-.71.33a2.29,2.29,0,0,1,3-3L429,37c.1,0,.2.12.25.1a.74.74,0,0,0,.24-.12l.08-.05A2.76,2.76,0,0,1,433.35,38a4.5,4.5,0,0,1,.38,1.9,4.56,4.56,0,0,1-.23,1.86,3.3,3.3,0,0,1-2,1.8A5.38,5.38,0,0,1,429.63,43.82Z"></path> <path class="cls-13" d="M440.42,51.8a15.49,15.49,0,0,1-3-.29,11.89,11.89,0,0,1-6.07-3.09l.55-.56a11.11,11.11,0,0,0,5.68,2.89,16.84,16.84,0,0,0,6.49-.09l.15.77A19.78,19.78,0,0,1,440.42,51.8Z"></path> <rect class="cls-9" x="448.49" y="104.5" width="0.78" height="3.24" transform="matrix(0.56, -0.83, 0.83, 0.56, 110.65, 419.74)"></rect> <rect class="cls-9" x="443.44" y="110.12" width="3.14" height="0.78" transform="translate(110.24 423.83) rotate(-57.05)"></rect> <path class="cls-9" d="M451,116.46a4.84,4.84,0,0,1-2.42-1.35l.56-.54a4.05,4.05,0,0,0,2,1.13Z"></path> <rect class="cls-9" x="443.1" y="119.07" width="2.97" height="0.78" transform="translate(159.91 481.24) rotate(-66.84)"></rect> <rect class="cls-9" x="449.86" y="122" width="0.78" height="2.53"></rect> <path class="cls-9" d="M443.91,128.33a3.83,3.83,0,0,1-2.87-1.28l.59-.51a3.07,3.07,0,0,0,3.2.86l.25.74A3.62,3.62,0,0,1,443.91,128.33Z"></path> <path class="cls-9" d="M452,132.9a4.47,4.47,0,0,1-.39-2.57l.77.11a3.69,3.69,0,0,0,.32,2.12Z"></path> <rect class="cls-9" x="446.03" y="134.29" width="2.62" height="0.78" transform="translate(129.48 477.05) rotate(-63.88)"></rect> <path class="cls-9" d="M439.88,136a5.74,5.74,0,0,1-1.61-1.72l.67-.4a4.94,4.94,0,0,0,1.39,1.49Z"></path> <rect class="cls-9" x="444.81" y="141.42" width="3.32" height="0.78" transform="translate(17.1 329.14) rotate(-41.19)"></rect> <path class="cls-9" d="M457.29,141.46a5.65,5.65,0,0,1-2.3-2.1l.66-.41a4.94,4.94,0,0,0,2,1.81Z"></path> <path class="cls-9" d="M466.32,143.64a5.65,5.65,0,0,1-2.94,1l0-.78a4.94,4.94,0,0,0,2.54-.88Z"></path> <path class="cls-9" d="M460.3,132a5.65,5.65,0,0,1-2.29,2.1l-.35-.7a4.94,4.94,0,0,0,2-1.81Z"></path> <path class="cls-9" d="M456.94,122.54a5.64,5.64,0,0,1-2.3-2.1l.66-.41a4.94,4.94,0,0,0,2,1.81Z"></path> <path class="cls-9" d="M451.95,146.85a2,2,0,0,1,1.73-1.14v.78a1.2,1.2,0,0,0-1,.68Z"></path> <path class="cls-9" d="M460.45,149.33a2,2,0,0,1-.73-1.95l.76.16a1.2,1.2,0,0,0,.43,1.16Z"></path> <path class="cls-9" d="M462.09,152.4a4.75,4.75,0,0,1-1.22-.16l.2-.75a4,4,0,0,0,2.67-.22l.32.71A4.77,4.77,0,0,1,462.09,152.4Z"></path> <path class="cls-9" d="M463.13,88.42l-.51,0,.08-.78a4.43,4.43,0,0,0,1.91-.23l.26.73A5.19,5.19,0,0,1,463.13,88.42Z"></path> <path class="cls-9" d="M480.56,98.64A15.27,15.27,0,0,1,477.9,97l.47-.62a14.6,14.6,0,0,0,2.53,1.53Z"></path> <path class="cls-9" d="M472.85,89.46a15.3,15.3,0,0,1-1-2.94l.76-.18a14.59,14.59,0,0,0,1,2.79Z"></path> <path class="cls-9" d="M485,105.24l-.77-.15a7.51,7.51,0,0,0,.09-2.23l.78-.08A8.29,8.29,0,0,1,485,105.24Z"></path> <path class="cls-9" d="M465,157.46a.5.5,0,0,1-.19,0,.73.73,0,0,1-.4-.5,10.54,10.54,0,0,1-.44-2.74l.78,0a9.79,9.79,0,0,0,.41,2.53c0,.06,0,0-.05,0a.24.24,0,0,0-.29.07.31.31,0,0,0,0,.36l.63-.47a.47.47,0,0,1,0,.58A.55.55,0,0,1,465,157.46Z"></path> <path class="cls-9" d="M472.83,151.51a.75.75,0,0,1,.06.24.79.79,0,0,1-.29.66,9.12,9.12,0,0,1-2.4,1.6l-.4-.9a8.46,8.46,0,0,0,2.22-1.48s0,0,0,.06a.35.35,0,0,0,.21.31.27.27,0,0,0,.35-.15l-.75-.54a.42.42,0,0,1,.56-.22A.76.76,0,0,1,472.83,151.51Z"></path> <polygon class="cls-9" points="471.62 159.06 467.61 158.91 467.85 157.97 468.61 158.16 468.61 158.17 471.65 158.28 471.62 159.06"></polygon> <path class="cls-9" d="M489.28,111a9.2,9.2,0,0,1-3-.76l.32-.71a8.41,8.41,0,0,0,2.75.7Z"></path> <path class="cls-9" d="M491.53,118.49a30.17,30.17,0,0,1-.4-4.48h.78a29.61,29.61,0,0,0,.39,4.36Z"></path> <path class="cls-9" d="M497,122.1a7.44,7.44,0,0,0-1.83-1.27l.34-.7a8.23,8.23,0,0,1,2,1.4Z"></path> <rect class="cls-9" x="494.97" y="125.18" width="2.08" height="0.78" transform="translate(339.77 612.79) rotate(-86.43)"></rect> <rect class="cls-9" x="498.09" y="129.92" width="2.06" height="0.78" transform="translate(15.22 309.04) rotate(-34.9)"></rect> <path class="cls-9" d="M503.33,137.15a8.1,8.1,0,0,1-1.36-1.91l.69-.36a7.32,7.32,0,0,0,1.23,1.73Z"></path> <path class="cls-9" d="M499.71,139.49l-.25-.74a2.18,2.18,0,0,0,1.08-.8l.64.45A3,3,0,0,1,499.71,139.49Z"></path> <path class="cls-9" d="M504.75,143.9a4.79,4.79,0,0,1-1.14-2.4l.77-.12a4,4,0,0,0,1,2Z"></path> <path class="cls-9" d="M505,149.09a4.77,4.77,0,0,1-2.13-.84l.45-.63a4,4,0,0,0,1.78.7Z"></path> <rect class="cls-9" x="507.88" y="154.67" width="1.3" height="0.78" transform="translate(73.49 460.65) rotate(-52.04)"></rect> <rect class="cls-9" x="511.08" y="162.41" width="0.78" height="2.63" transform="translate(-6.79 304.49) rotate(-32.95)"></rect> <path class="cls-9" d="M506.94,170.48l-.68-.38a9.58,9.58,0,0,0,1.14-3.49l.77.09A10.34,10.34,0,0,1,506.94,170.48Z"></path> <path class="cls-9" d="M512.68,172.85l-.21-.09a2.7,2.7,0,0,1-1.54-1.14l-.26-.52.7-.35.26.52a2.14,2.14,0,0,0,1.15.76l.22.09Z"></path> <rect class="cls-9" x="500.58" y="173.35" width="2.06" height="0.78" transform="translate(-8.83 319.52) rotate(-35.04)"></rect> <rect class="cls-9" x="506.73" y="175.49" width="0.78" height="2.47"></rect> <path class="cls-9" d="M513.3,179.71l-.37,0,.07-.78a3.48,3.48,0,0,0,2-.42l.38.68A4.29,4.29,0,0,1,513.3,179.71Z"></path> <path class="cls-9" d="M516.09,187.53l-.76-.17a8.17,8.17,0,0,1,1.19-2.75l.65.43A7.4,7.4,0,0,0,516.09,187.53Z"></path> <rect class="cls-9" x="511.19" y="184.33" width="1.74" height="0.78" transform="translate(-26.47 264.16) rotate(-28.23)"></rect> <path class="cls-9" d="M512.74,191.72a27.57,27.57,0,0,1-3.82-1.32l.31-.72a26.71,26.71,0,0,0,3.72,1.28Z"></path> <path class="cls-9" d="M504.13,182.63a11.64,11.64,0,0,1-2.14-3l.7-.34a10.87,10.87,0,0,0,2,2.82Z"></path> <path class="cls-9" d="M502.77,188.69l-.4-.67a5.32,5.32,0,0,0,1.82-1.81l.67.4A6.1,6.1,0,0,1,502.77,188.69Z"></path> <path class="cls-9" d="M495.29,183.47l-.18-.76c1.2-.29,2.4-.62,3.57-1l.23.74C497.73,182.84,496.51,183.18,495.29,183.47Z"></path> <rect class="cls-9" x="495.68" y="188.61" width="0.78" height="3.25"></rect> <path class="cls-9" d="M500.08,195.51h-.25l0-.78a5.77,5.77,0,0,0,3-.74l.39.68A6.56,6.56,0,0,1,500.08,195.51Z"></path> <path class="cls-9" d="M491.31,189.53a6.87,6.87,0,0,1-3-.67l.34-.7a6.06,6.06,0,0,0,2.94.58l0,.78Z"></path> <path class="cls-9" d="M489.19,195.84l-.76-.15a8.42,8.42,0,0,1,1.17-2.89l.65.42A7.64,7.64,0,0,0,489.19,195.84Z"></path> <path class="cls-9" d="M483.42,200.55a5.3,5.3,0,0,1-2.86-1.32l.52-.58a4.52,4.52,0,0,0,2.44,1.13Z"></path> <path class="cls-9" d="M482.78,195.35l-.74-.23a31.66,31.66,0,0,1,1.47-3.81l.71.33A30.92,30.92,0,0,0,482.78,195.35Z"></path> <path class="cls-9" d="M493.53,198.66l-1.91-1.27a.74.74,0,0,1-.29-.81.46.46,0,0,1,.52-.28l-.14.77a.31.31,0,0,0,.28-.1.27.27,0,0,0,.07-.22L494,198Z"></path> <path class="cls-1" d="M429.89,226s60.47-36.92,78.25-63.25c3.45-5.11,3.51-11.39,1.8-17.31-4.11-14.19-13.26-42.86-31.14-60.75-6.64-6.64-19.49-3.53-21.36,5.67-2.6,12.73-1.44,39.69,20,61Z"></path> <path class="cls-11" d="M477.61,151.77l-.29-.72a10.46,10.46,0,0,1,6.19-.47H484l.09.25-.36.13.32.18-.36.2v0l-.13.06A9.65,9.65,0,0,0,477.61,151.77Zm6-.77-.28.1Zm0,0,0,0Z"></path> <path class="cls-4" d="M431,218.72a14.16,14.16,0,0,0-5.91,4.52,13.19,13.19,0,0,0-2.81,4.64,5.76,5.76,0,0,0,.76,5.2c1.89,2.36,5.77,2.11,8.18.29s3.71-4.72,4.91-7.49c.75-1.73,3.2-5.19,1.86-6.86C436.83,217.58,432.47,218.22,431,218.72Z"></path> <path class="cls-4" d="M154.34,58.41S121,76.13,140.89,162.62L74,211.31s67.19,3.56,105.49-25.75C197.58,171.71,154.34,58.41,154.34,58.41Z"></path> <path class="cls-14" d="M154.34,58.41s-26.88,8.43-22.62,68.22l40.22,3.5Z"></path> <path class="cls-5" d="M160.85,134s11.76,28.59,4.74,60.3c0,0,10.1-5.2,13.9-8.7C179.49,185.56,171.84,152.69,160.85,134Z"></path> <path class="cls-4" d="M153.16,347.61A1199.94,1199.94,0,0,1,172.6,483.28l7.62-.4s33.87-64.64,17.69-251.74Z"></path> <path class="cls-4" d="M259.89,215.7c9.81,33.17,8.09,88.18-4.89,112.66,0,0,30.79,52.09,13.6,149.12-.1.54-6.2,2.35-7.32.64-11.75-18-35.62-76.14-48.29-140.39-6.48-32.87-10.2-66-16.63-91.18C192,229.29,245.61,151.27,259.89,215.7Z"></path> <polygon class="cls-3" points="172.26 479.29 142.96 497.03 182.06 497.03 182.4 477.86 172.26 479.29"></polygon> <polygon class="cls-3" points="259.86 475.86 238.26 498.3 273.34 489.75 269.45 472.51 259.86 475.86"></polygon> <path class="cls-4" d="M136.59,22.66s14.61,21.22,18.33,39c0,0,11.42,29.13,17.5,25.06,2.37-1.59-.21-26.62,0-33.17,0,0-4.61-16.11-13.85-25.92-4.16-4.41-19.47-7.27-19.47-7.27Z"></path> <path class="cls-5" d="M150.6,48.34l13.32-13.81s4.35,7,6,12.43Z"></path> <path class="cls-4" d="M164.79,15.3c-2.82-5.08-4.75.07-4.75.07s-1.29-11-9.38-14.44c-9-3.88-24.67,5-24.06,15.64.15,2.74,1.4,6.39,3.26,10.3l.11.21c.12.26.25.52.37.77a1.45,1.45,0,0,0,.1.18c1.22,2.48,12.82,23.89,18.46,23.25,4.79-.54,15.19-3.54,16.34-13.76a22.3,22.3,0,0,0-2.9-13.38C165.61,23.47,167.25,19.72,164.79,15.3Z"></path> <ellipse class="cls-3" cx="135.81" cy="28.81" rx="0.77" ry="1.37" transform="translate(0.5 59.88) rotate(-24.91)"></ellipse> <ellipse class="cls-3" cx="147.3" cy="22.98" rx="0.77" ry="1.37" transform="translate(4.01 64.14) rotate(-24.89)"></ellipse> <path class="cls-3" d="M146.61,17.35a.61.61,0,0,1,.55.1.42.42,0,0,1,0,.46,1.1,1.1,0,0,1-.32.36,13.39,13.39,0,0,1-1.41,1,3.36,3.36,0,0,1-1.87.69.68.68,0,0,1-.58-.29C142.35,18.41,145.94,17.46,146.61,17.35Z"></path> <path class="cls-3" d="M130.86,25.56a.61.61,0,0,0-.28.48.42.42,0,0,0,.32.33,1.1,1.1,0,0,0,.49,0A13.41,13.41,0,0,0,133,25.9a3.36,3.36,0,0,0,1.73-1,.68.68,0,0,0,.15-.63C134.42,23,131.38,25.12,130.86,25.56Z"></path> <path class="cls-5" d="M164.75,18.32a3,3,0,0,0-.82-2.7,2.12,2.12,0,0,0-2.88,0,1.87,1.87,0,0,0-.4,1.89l.87-.31a.94.94,0,0,1,.2-.94,1.21,1.21,0,0,1,1.6,0,2.07,2.07,0,0,1,.53,1.86Z"></path> <path class="cls-14" d="M154.34,58.41l11.82,12.75,5-20.36s11.56-10.93,27,2.16S246,136.08,237,169.48s-57.91,26.65-64.47,7-4.74-30.65-11.64-42.56S125.67,84.92,154.34,58.41Z"></path> <path class="cls-1" d="M178,183.65S159,240.5,152.43,288.33s17.21,180.41,17.21,180.41,5.63,6.24,19,5.2c0,0,20.74-72.55,19.13-150.91,0,0,15.83,82.47,41.4,142.66,0,0,16.77,3.31,25.79-3.72,0,0,13.85-86.81-19.94-133.6,0,0,41.94-74.21-17.24-158.76Z"></path> <path class="cls-6" d="M175.66,472.56c-.15-1.27-14.9-127.11-15.29-160.28S183,183.2,183.2,182.24l.76.18c-.23,1-23.19,96.74-22.8,129.84s15.13,158.94,15.28,160.2Z"></path> <path class="cls-6" d="M180.2,473.68c-.07-1.5-7.33-150.3-5-166.14s23.9-127.93,24.12-129.06l.77.15c-.22,1.13-21.8,113.23-24.11,129s4.94,164.49,5,166Z"></path> <rect class="cls-6" x="103.93" y="383.16" width="181.16" height="0.78" transform="translate(-200.78 552.92) rotate(-86.3)"></rect> <path class="cls-6" d="M271.07,464.41l-.78-.07c1.35-15.58-9.33-104.08-18.69-122.59-.85-1.68-1.89-3.73-1.37-5.68l-5.27-.13,1.08-.69a3.76,3.76,0,0,0,1.6-2.26,9.92,9.92,0,0,1-5.59-.9l-.51-.25.42-.39a11.38,11.38,0,0,0,2.76-5.46c12.72-47.15,6.83-86.3-.34-110.83-7.77-26.58-18.68-42.19-18.79-42.34l.64-.45c.11.16,11.09,15.88,18.9,42.57,7.21,24.63,13.12,63.93.35,111.26a13,13,0,0,1-2.57,5.42,9.14,9.14,0,0,0,5.15.53l.51-.1,0,.52a4.55,4.55,0,0,1-1.21,2.66l4.06.1-.22.53c-.75,1.77.32,3.87,1.17,5.55C261.7,360,272.42,448.78,271.07,464.41Z"></path> <path class="cls-6" d="M260.91,465.91c-1-18.89-5.5-37.58-9.85-55.66l-15-62.26a12.55,12.55,0,0,0-1.07-3.19l-.27-.46a4,4,0,0,1-.68-3.38l.66-5.22a4.38,4.38,0,0,1-3.76-1.59l-.13-.13v-.18c6.44-88.4-18-157.62-18.21-158.31l.73-.26c.25.69,24.67,70,18.27,158.44,1.1,1,2.07,1.57,3.43,1.15l.58-.18-.8,6.37a4.58,4.58,0,0,0,0,1.69,4.53,4.53,0,0,0,.58,1.19c.1.16.2.32.29.49a13.17,13.17,0,0,1,1.15,3.39l15,62.26c4.36,18.11,8.87,36.84,9.87,55.8Z"></path> <path class="cls-6" d="M248.77,465.78c-.31-1.14-30.68-114.33-30.3-138.69S206.2,178.25,206.07,177l.78-.08c.13,1.26,12.78,125.87,12.4,150.2s30,137.33,30.27,138.47Z"></path> <path class="cls-11" d="M207.75,323l-7.34-38.85L205,383.6S208.84,339.26,207.75,323Z"></path> <path class="cls-11" d="M153,317.44l-.26-.74a16,16,0,0,0,8-6.25,28.23,28.23,0,0,0,3.37-8.45l.75.2a28.9,28.9,0,0,1-3.48,8.68A16.81,16.81,0,0,1,153,317.44Z"></path> <rect class="cls-5" x="146.49" y="159.57" width="0.78" height="9.08" transform="translate(-69.04 207.5) rotate(-59.53)"></rect> <path class="cls-2" d="M205.48,478.64,152,236.88c-3.31-15-15.5-25.43-29.64-25.43H64.76c-15.11,0-27.77,11.8-30.12,28L.06,479.08a5.48,5.48,0,0,0,4.22,6.31,5.14,5.14,0,0,0,5.79-4.6l13.77-95.44H174.43l21.2,95.87a5.18,5.18,0,0,0,4.92,4.23,4.67,4.67,0,0,0,1.19-.16A5.56,5.56,0,0,0,205.48,478.64Zm-180-104.33,19.21-133.1c1.57-10.85,10-18.72,20.1-18.72h57.62c9.44,0,17.57,7,19.79,17L172,374.31Z"></path> <rect class="cls-3" x="65.29" y="211.64" width="58.09" height="10.84" rx="4.61" ry="4.61"></rect> <path class="cls-2" d="M263.52,485,210.06,243.21c-3.31-15-15.5-25.43-29.64-25.43H122.8c-15.11,0-27.77,11.8-30.12,28L58.1,485.41a5.48,5.48,0,0,0,4.22,6.31,5.14,5.14,0,0,0,5.79-4.6l13.77-95.44H232.47l21.2,95.87a5.18,5.18,0,0,0,4.92,4.23,4.69,4.69,0,0,0,1.19-.16A5.56,5.56,0,0,0,263.52,485Zm-180-104.33,19.21-133.1c1.57-10.85,10-18.72,20.1-18.72h57.62c9.44,0,17.57,7,19.79,17L230,380.64Z"></path> <rect class="cls-3" x="123.33" y="217.98" width="58.09" height="10.84" rx="4.61" ry="4.61"></rect> <path class="cls-8" d="M145.51,42.38,153.88,38s-.71,3.88-3.73,5.44A3.43,3.43,0,0,1,145.51,42.38Z"></path> <path class="cls-2" d="M146.5,39.73c.14.84,1.35,1.41,1.35,1.41l9-4.76a13.53,13.53,0,0,0-10.45.61s-5,3-4.48,7.27l2.64-1.39a2.79,2.79,0,0,1-.47-1.87s1,1.16,1.74,1.2l1.21-.64A2.62,2.62,0,0,1,146.5,39.73Z"></path> <path class="cls-2" d="M133,11.64a16.09,16.09,0,0,0,7.45-3.31A5.37,5.37,0,0,1,146.67,8,26,26,0,0,0,152,10.5l5.89,9.6L160,15.37s-2-21.5-22.36-13.49S130.44,28,130.44,28l-1.87-10.19A5.34,5.34,0,0,1,133,11.64Z"></path> <polygon class="cls-11" points="201.9 297.21 193.63 227.3 187.94 214.5 187.94 193.58 188.72 193.58 188.72 214.42 194.4 227.15 202.67 297.12 201.9 297.21"></polygon> <path class="cls-11" d="M223.3,335.66c-5.37,0-10.82-3.27-12.9-8.26l.72-.3a13.29,13.29,0,0,0,15.95,7.16l.25.74A12.33,12.33,0,0,1,223.3,335.66Z"></path> <ellipse class="cls-15" cx="168.23" cy="77.61" rx="1.43" ry="2.34" transform="translate(-9.22 24.35) rotate(-8.06)"></ellipse> <ellipse class="cls-15" cx="170.25" cy="87.28" rx="1.43" ry="2.34" transform="translate(-10.55 24.73) rotate(-8.06)"></ellipse> <path class="cls-15" d="M157.73,128.89s-16.92-22.76-16.24-41.32c0,0-.9,22.82,5.72,40.4Z"></path> <path class="cls-3" d="M145,35.19h-.29a3.07,3.07,0,0,1-1.79-.68,3.15,3.15,0,0,1-1-2,10.59,10.59,0,0,1-.07-1.29c0-.26,0-.53,0-.79a7.94,7.94,0,0,0-2.55-5.34l.39-.43a8.53,8.53,0,0,1,2.74,5.74c0,.27,0,.54,0,.82a10.05,10.05,0,0,0,.06,1.22,2.65,2.65,0,0,0,.76,1.64,2.56,2.56,0,0,0,1.46.53A2.22,2.22,0,0,0,147,33.48l.55.2A2.66,2.66,0,0,1,145,35.19Z"></path> <path class="cls-5" d="M108.43,191.63a6,6,0,0,1-2.79-10.8,3.55,3.55,0,0,1,1.8-.78,4.26,4.26,0,0,1,2.89,1.12q.51.39,1,.82a8.26,8.26,0,0,1,1.07-1.77,10.43,10.43,0,0,1,6.08-3.75,6.91,6.91,0,0,1,4.32.4,4.25,4.25,0,0,1,2.47,3.6h-.78a3.46,3.46,0,0,0-2-2.91,6.16,6.16,0,0,0-3.83-.33A9.64,9.64,0,0,0,113,180.7a7.27,7.27,0,0,0-1.08,1.87,16,16,0,0,1,2.87,4,1.29,1.29,0,0,1,.07,1.32,1.16,1.16,0,0,1-1.29.33,4,4,0,0,1-2.74-3.66,5.27,5.27,0,0,1,.21-1.74,15,15,0,0,0-1.17-1,3.57,3.57,0,0,0-2.35-1,2.79,2.79,0,0,0-1.4.62,5.27,5.27,0,0,0,2.43,9.41Zm3.25-8.19a4.37,4.37,0,0,0-.07,1,3.17,3.17,0,0,0,2.16,2.94c.23.06.42,0,.46,0s.07-.14-.12-.51A15.21,15.21,0,0,0,111.68,183.44Z"></path> <path class="cls-4" d="M215.87,68.5s-47.58,2.93-4.4,80.45l-47.21,73.8s62.07-23.71,90.68-62.53C268.44,141.89,215.87,68.5,215.87,68.5Z"></path> <path class="cls-14" d="M176.81,47.41c-6.11,2-9.63,14.7,11.13,70.92l51.85-18.72S214.77,35.14,176.81,47.41Z"></path> <rect class="cls-5" x="217.24" y="144.18" width="0.78" height="9.08" transform="translate(19.82 322.93) rotate(-75.72)"></rect> <polygon class="cls-15" points="156.8 79.25 147.96 62.31 148.65 61.95 157.05 78.05 166.01 70.77 178.07 70.52 176.91 47.43 177.69 47.39 178.89 71.28 166.3 71.54 156.8 79.25"></polygon> <path class="cls-5" d="M193.23,179.09a.9.9,0,0,1-.48-.13,1.55,1.55,0,0,1-.61-1,5.06,5.06,0,0,1,2.44-5.47,4.08,4.08,0,0,1,2.15-.42,21.29,21.29,0,0,1,.62-4.08,5.66,5.66,0,0,1,1.29-2.66,6.39,6.39,0,0,1,3.41-1.45c1.76-.36,3.76-.65,5.25.43l-.46.63c-1.23-.89-3-.64-4.63-.3a5.8,5.8,0,0,0-3,1.24,5,5,0,0,0-1.09,2.31,20.55,20.55,0,0,0-.6,4l.4.12a3.78,3.78,0,0,1,2.25,2,1.88,1.88,0,0,1,.12,1.45,1.37,1.37,0,0,1-1,.84,2,2,0,0,1-1.74-.53,3.79,3.79,0,0,1-.8-2.66c0-.18,0-.36,0-.54a3.33,3.33,0,0,0-1.77.33,4.26,4.26,0,0,0-2,4.61.83.83,0,0,0,.26.54.17.17,0,0,0,.15,0l.76.11a.73.73,0,0,1-.42.6A1,1,0,0,1,193.23,179.09Zm4.25-6.13q0,.2,0,.39a3.13,3.13,0,0,0,.58,2.13,1.16,1.16,0,0,0,1,.3.6.6,0,0,0,.47-.35,1.18,1.18,0,0,0-.11-.85,3,3,0,0,0-1.8-1.57Z"></path> <path class="cls-4" d="M72,218.46a8,8,0,0,1,2.59-.69,18.23,18.23,0,0,1,10.08,1.6,6.77,6.77,0,0,1,3.82,3.71,1.91,1.91,0,0,1-.12,1.66,2.22,2.22,0,0,1-.73.6,15,15,0,0,1-8,1.85c-2.53-.06-7.74-.3-9.66-2.29S69.95,219.51,72,218.46Z"></path> <path class="cls-4" d="M161.35,221a19.49,19.49,0,0,1,5.09-6.82,9.35,9.35,0,0,1,4-2.21,4.65,4.65,0,0,1,4.3,1.12c1.28,1.34,1.35,3.47.86,5.26s-1.43,3.44-1.93,5.23c-.65,2.32-.75,5.18-2.79,6.45a5.73,5.73,0,0,1-2.44.7C162.39,231.35,158.93,226.39,161.35,221Z"></path> </g> </g> </svg> 