<?xml version="1.0" encoding="UTF-8"?> <!-- Generator: Adobe Illustrator 21.0.0, SVG Export Plug-In . SVG Version: 6.00 Build 0) --> <svg xmlns="http://www.w3.org/2000/svg" xmlns:xlink="http://www.w3.org/1999/xlink" id="Слой_1" x="0px" y="0px" viewBox="0 0 500 524.1" style="enable-background:new 0 0 500 524.1;" xml:space="preserve"> <style type="text/css"> .st0{fill:#F1EFF4;} .st1{fill:#FCBF7C;} .st2{fill:#E8A66F;} .st3{fill:#E88873;} .st4{fill:#360A14;} .st5{fill:#B7AEC5;} .st6{fill:#996888;} .st7{fill:#FFEDE4;} .st8{fill:#915B76;} .st9{fill:#DC6A55;} .st10{fill:#FDEBE2;} .st11{fill:#2E6171;} .st12{fill:#215267;} </style> <title>Ресурс 10</title> <g id="Слой_2"> <g id="_Layer_"> <path class="st0" d="M477.6,267.4c5.3,11.7,13.2,22.3,16.4,34.8c5.1,19.8-3.2,41.6-18,55.7c-14.8,14.1-34.9,21.6-55.2,24.5 c-21.2,3-42.8,1.3-63.4-4.8c-34.8-10.4-65.4-33.5-101.1-40.1c-51.1-9.5-103.7,16.1-154.8,7c-21.9-3.9-42.3-14-61.1-25.8 c-3.5-2.2-7-4.5-9.3-7.8c-3.1-4.6-3.6-10.5-2.8-16c1.6-11,8-20.6,12.4-30.8s6.5-22.8,0-31.9c-3-4.2-7.5-7.1-11.5-10.4 c-14-11.5-22.6-30.4-18.6-48.1c3.4-15,14.9-26.6,26.7-36.5c32.7-27.4,74-47.8,116.5-44.8c35.2,2.5,67.3,20.4,98.6,36.8 s65.2,32,100.5,29.2c20.2-1.6,39.4-9.2,57.8-17.8c5.9-2.7,11.8-5.6,18.2-6.1c7.8-0.6,15.5,2.6,22.2,6.6 c14.4,8.7,26.2,22.2,31.5,38.2C493.5,211.5,463.6,236.5,477.6,267.4z"></path> <path class="st1" d="M378.4,159.3c0,0-4.9,20.3,7.9,45c16,30.8,76.5,36.2,76.5,36.2s-25.8-21.3-36.3-32.7 c-10.6-11.4-14.9-52-14.9-52L378.4,159.3z"></path> <path class="st2" d="M377.5,185.9l2.5-21.6l32-4.7C403.4,172.5,377.5,185.9,377.5,185.9z"></path> <path class="st3" d="M387.6,162.6l0.3,0.1c0.1,1.5,0.3,3,0.7,4.4c0.1,0.3,0.2,0.7,0.4,0.9c0.2,0.2,0.5,0.4,0.9,0.4h0.2 c0.8-0.2,1.5-0.8,1.9-1.6c0.3-0.5,0.5-1,0.7-1.6c0.3,0.8,0.9,1.4,1.7,1.7c0.7,0.3,1.5,0.2,2.2-0.2c1-0.6,1.8-1.5,2.2-2.7 c0-0.1,0-0.1,0-0.2l0.6-0.1c0.6,1.1,1.5,2.1,2.5,2.8c0.4,0.3,0.9,0.5,1.4,0.4c0.9-0.2,1.1-1.2,1.2-1.6c0.2-0.9,0.4-1.8,0.5-2.8 c0.1,0.2,0.1,0.5,0.2,0.7c0.2,0.8,0.7,1.6,1.3,2.1c0.8,0.6,1.9,0.6,2.6,0c0.5-0.6,0.8-1.3,0.7-2.1c0-0.9,0-1.9,0-2.9l0.2-0.1 c0.4,0.9,0.9,1.7,1.5,2.5c0.2,0.3,0.4,0.5,0.7,0.7c0.9,0.4,1.9,0.1,2.4-0.7c0.4-0.7,0.6-1.6,0.4-2.4c-0.1-0.9-0.2-1.7-0.5-2.5 l0.3-0.2c-4.3-53.9-28.6-56.6-28.6-56.6S375.2,157.2,387.6,162.6z M410.7,160.3c1.3-0.7,2.4-1.2,3.1-1.7c0.2,0.7,0.3,1.4,0.4,2.1 c0.1,0.6,0,1.3-0.3,1.9c-0.3,0.5-0.8,0.7-1.3,0.5c-0.2-0.1-0.3-0.3-0.4-0.5C411.5,161.9,411.1,161.2,410.7,160.3z M407,165.1 c-0.5-0.5-0.9-1.1-1.1-1.7c-0.1-0.3-0.2-0.6-0.3-0.9c1.2-0.4,2.4-0.9,3.4-1.3c0,0.9,0,1.7,0,2.6c0,0.5-0.1,1.1-0.4,1.5 C408.1,165.5,407.4,165.5,407,165.1L407,165.1z M402.2,166.2c-0.9-0.6-1.6-1.4-2.1-2.3c1.4-0.2,2.7-0.5,4-0.9 c-0.1,0.9-0.3,1.7-0.5,2.6c-0.1,0.6-0.3,0.9-0.6,1C402.7,166.5,402.4,166.4,402.2,166.2L402.2,166.2z M394.6,166.3 c-0.8-0.4-1.4-1.2-1.5-2.1c1.6,0.2,3.2,0.2,4.7,0c-0.3,0.9-0.9,1.6-1.7,2C395.6,166.4,395.1,166.5,394.6,166.3L394.6,166.3z M389.3,167c-0.3-1.3-0.5-2.6-0.6-3.9c1.1,0.4,2.3,0.7,3.5,0.9c-0.3,0.9-0.6,1.7-1.1,2.6c-0.2,0.5-0.7,0.9-1.2,1.1 c-0.1,0-0.3,0-0.3-0.1C389.4,167.4,389.3,167.2,389.3,167L389.3,167z"></path> <path class="st4" d="M367.7,51.4c2.1-0.8,5.7-0.5,8-0.8c3.3-0.4,6.6-0.5,9.9-0.3c3.2,0,6.5,0.3,9.7,0.8c7.1,1.5,13.8,6.5,16,13.5 c0.8,2.4,0.9,4.9,0.2,7.3c-1.1,2.8-3.2,5.1-5.9,6.5c-2.7,1.3-5.5,2.4-8.5,3l-17,4.4c-1.2,0.3-2.4,0.6-3.6,0.8 c-2,0.2-4.1,0.1-6.1-0.2c-2.4-0.3-5-0.6-7-2c-1.4-1-2.5-2.3-3.4-3.7c-1.3-1.7-2.1-3.8-2.2-6c0-2.5,1.4-4.8,2.8-6.9 c2-3.1,4.1-6.3,4.8-10C365.8,55.6,365.6,52.2,367.7,51.4z"></path> <path class="st5" d="M432.6,513.4l-0.1-260.6l0,0c0-2.1,1.7-3.8,3.8-3.8l0,0c2.1,0,3.7,1.7,3.7,3.7l0.1,260.6l0,0 c0,2.1-1.7,3.8-3.8,3.8l0,0C434.3,517.1,432.6,515.4,432.6,513.4z"></path> <path class="st4" d="M432,275.9v-25.7c0-4.5,1.8-8.8,5-12c3.2-3.1,7.4-4.8,11.9-4.8c9,0.1,16.3,3.4,21.1,9.4 c1.4,1.8,1.1,4.4-0.7,5.8c-1.8,1.5-4.4,1.2-5.9-0.6c-3.2-4.1-8.2-6.2-14.7-6.3c-2.2,0-4.3,0.8-5.9,2.4c-1.6,1.6-2.5,3.7-2.5,6 v25.7l0,0c0,2.3-1.9,4.2-4.2,4.2C433.9,280,432,278.1,432,275.9z"></path> <path class="st4" d="M430.5,511.6v-2.3h11.7v2.3c0,3.2-2.6,5.8-5.8,5.8l0,0C433.1,517.4,430.5,514.8,430.5,511.6z"></path> <path class="st1" d="M333,245.2l28.1,101.7c-6.8,41.4,15.8,128.9,26.2,160.9c2.6,8,6.9,9.4,6.9,9.4L418,358c1.3-9,0-18.2-3.8-26.4 l-47.4-102.8L333,245.2z"></path> <path class="st1" d="M368,241.5c11.1,42.5-45.3,267.7-45.3,267.7c-3.9,2-7.7-1.4-7.7-1.4s-45.5-178.2,15.2-294.2 C335.7,203.2,357,199,368,241.5z"></path> <path class="st1" d="M366.9,226.6c13.2-11.9,19.7-50.1,21.9-65.9c6.2-0.9,10-8,12.3-13.6c7.8-19.1-30.1-41.6-8.8-65.9 c6.2-7-11.8-10-11.8-10s-46.2,48.9-43.9,137.8C329.8,211.9,376.2,265.3,366.9,226.6z"></path> <path class="st3" d="M404.3,145.4c-3.1,14.4-15.5,15.4-15.5,15.4c-5.5,58.2-21.9,68-21.9,68c-1.3,7.6-36.7-15.1-36.7-15.1 C323,105.6,367.4,89.2,367.4,89.2c12,22.8,18.8,12.2,18.8,12.2S406.8,134,404.3,145.4z"></path> <path class="st3" d="M404.7,145.4c-3.1,14.4-15.5,15.4-15.5,15.4c-5.5,58.2-21.9,68-21.9,68c-1.3,7.6-36.7-15.1-36.7-15.1 c-7.2-108.1,37.1-124.4,37.1-124.4c12,22.8,18.8,12.2,18.8,12.2S407.2,134,404.7,145.4z"></path> <polygon class="st4" points="344.9,524.1 312.6,524.1 315.1,507.8 323.1,507.8 "></polygon> <polygon class="st4" points="418.5,524.1 384.8,524.1 387.2,507.8 395.3,507.8 "></polygon> <polygon class="st2" points="385.8,96.8 373.8,79.6 387.5,88.7 "></polygon> <path class="st6" d="M303,457.1c-0.3,1.6-0.4,3.3-0.1,5c0.2,1.4,0.8,2.3,1.8,2.5c0.9,0.1,1.8-0.4,2.3-1.3c0.1-0.2,0.2-0.4,0.3-0.6 c0.1,0.8,0.4,1.5,0.7,2.2c0.1,0.4,0.4,0.8,0.8,0.9c0.3,0.1,0.7,0,1-0.2c1.1-0.6,2-1.5,2.5-2.6c0.1,0.7,0.3,1.5,0.5,2.2 c0.1,0.7,0.5,1,1,1c0.2,0,0.5-0.1,0.6-0.3c1-0.8,1.7-1.9,2.2-3.1c0.2,0.8,0.5,1.6,0.8,2.4c0.3,0.7,0.8,1,1.3,0.9 c0.3-0.1,0.5-0.3,0.7-0.5c0.5-0.7,1-1.4,1.3-2.2c0.2,0.8,0.6,1.6,1.1,2.3c0.2,0.4,0.6,0.6,1.1,0.7c0.1,0,0.2,0,0.3,0 c0.4-0.2,0.6-0.5,0.7-0.9c0.4-1,0.7-2,1-3c0.4,0.9,0.8,1.7,1.3,2.5c0.2,0.3,0.4,0.5,0.7,0.7c0.6,0.3,1.3-0.1,1.8-1 c0.4-0.7,0.7-1.5,0.9-2.2c0.1,0.2,0.2,0.4,0.4,0.6c0.5,0.7,1.4,1.1,2.3,1c0.9-0.3,1.5-1,1.8-1.9c0.1-0.2,0.2-0.5,0.2-0.7h0.2 c0.1,0.5,0.2,1,0.4,1.4c0.3,0.9,0.8,1.1,1.1,1.1l0,0c0.4,0,0.7-0.3,1-0.9c0.3-0.7,0.6-1.4,0.8-2.1c0.1,0.3,0.2,0.5,0.3,0.8 c0.5,1.1,1.7,2,2.7,1.6c0.6-0.3,1-0.9,1.1-1.6c0.1-0.3,0.1-0.5,0.2-0.8c0.3,0.8,0.6,1.6,1,2.4c0.1,0.3,0.3,0.5,0.6,0.6 c0.5,0.2,1-0.2,1.2-0.9c0.7-1.9,0.7-4,0.1-6l14.2-116.7c-2.7,50.8,10.5,117.8,10.5,117.8h0.7c0,1.9,0.7,3.8,1.8,5.4l0.3,0.5 l0.3-0.5c0.4-0.6,0.7-1.2,0.9-1.8c0.4,0.9,1.1,1.7,2,2.2l0.3,0.1l0.2-0.2c0.9-0.9,1.5-2,1.8-3.2c0.4,1,1,1.9,1.8,2.7l0.5,0.5 l0.2-0.6c0.2-0.5,0.3-1.1,0.5-1.7c0.3,0.5,0.8,0.9,1.3,1.2c0.3,0.2,0.7,0.3,1,0.2c0.3-0.1,0.6-0.4,0.7-0.7 c0.4-0.7,0.7-1.5,0.9-2.3c0.1,0.2,0.1,0.5,0.2,0.7c0.2,0.6,0.6,1.1,1.2,1.4c0.3,0.1,0.6,0.1,0.9,0c0.3-0.1,0.5-0.4,0.7-0.7 c0.3-0.5,0.6-1.1,0.8-1.7c0.1,0.5,0.5,1,1,1.2c0.3,0.1,0.7,0.1,1.1-0.1c0.6-0.4,1.1-1,1.3-1.7c0.1-0.3,0.2-0.6,0.2-0.9 c0.3,1.1,1,2,2,2.5l0.3,0.2l0.2-0.3c0.7-1.1,1.2-2.3,1.4-3.5c0.5,1,1.2,1.8,2.2,2.5c0.2,0.2,0.5,0.2,0.7,0.2 c0.3-0.1,0.6-0.3,0.7-0.6c0.4-0.7,0.7-1.4,0.9-2.2c0.2,0.7,0.6,1.3,1,1.9l0.3,0.4l0.3-0.3c0.8-0.7,1.4-1.6,1.7-2.6 c0.3,0.7,0.6,1.4,1,2c0.1,0.3,0.4,0.5,0.6,0.6c0.3,0.1,0.5,0.1,0.8,0c0.4-0.3,0.7-0.8,0.8-1.3c0.2-0.8,0.3-1.6,0.4-2.4 c0.3,0.7,0.6,1.4,1,2c0.5,0.8,1.1,1.1,1.7,0.9c0.4-0.1,0.9-0.6,0.8-1.8l-0.3-3.1c0.8-4.9,13.3-87.2,7.8-110.4 c-5.8-23.9-51.6-113.9-51.6-113.9l-36.7-15.1C270.2,242.6,300.4,441.2,303,457.1z M409.2,456.6c-0.5-0.8-0.9-1.6-1.1-2.5 c0.8-0.2,1.5-0.4,1.9-0.6l0.2,2.7c0,0.6,0,0.9-0.2,1S409.4,456.9,409.2,456.6L409.2,456.6z M405.6,457.8c-0.5-0.9-0.9-1.8-1.1-2.8 c0.8-0.2,1.6-0.4,2.3-0.6c-0.1,1-0.2,1.9-0.4,2.9c0,0.3-0.2,0.6-0.4,0.8c0,0-0.1,0-0.1,0C405.8,458,405.6,457.8,405.6,457.8 L405.6,457.8z M402,457.9c-0.4-0.7-0.7-1.4-0.9-2.1l2.3-0.5C403.2,456.2,402.7,457.1,402,457.9L402,457.9z M398.7,458.8 c-0.8-0.5-1.5-1.3-1.9-2.2c1.1-0.2,2.2-0.4,3.2-0.6c-0.2,0.9-0.5,1.8-1,2.7c0,0.1-0.1,0.1-0.1,0.2 C398.8,458.9,398.8,458.8,398.7,458.8L398.7,458.8z M394.2,459.7c-0.8-0.6-1.3-1.5-1.4-2.4l2.5-0.4 C395.1,457.9,394.7,458.9,394.2,459.7L394.2,459.7z M389.2,458.7c-0.1-0.3-0.1-0.7-0.2-0.9l2.5-0.3c-0.1,0.4-0.2,0.9-0.3,1.3 c-0.1,0.5-0.5,1-0.9,1.3c-0.1,0.1-0.3,0.1-0.4,0C389.5,459.9,389.3,459.5,389.2,458.7L389.2,458.7z M385.8,460.2 c-0.3-0.7-0.5-1.3-0.7-2c1-0.1,2-0.2,3-0.3c-0.1,1.1-0.4,2.1-1,3c-0.1,0.2-0.2,0.3-0.3,0.4c-0.1,0-0.2,0-0.2,0 C386.1,461,385.8,460.7,385.8,460.2L385.8,460.2z M382.7,461.9c-0.7-0.4-1.3-1-1.6-1.8c0.1-0.6,0.1-1.2,0.1-1.8c1,0,2-0.1,3-0.1 c-0.1,1.3-0.4,2.5-1,3.6c-0.1,0.2-0.2,0.3-0.2,0.3C382.9,462.1,382.8,462.1,382.7,461.9L382.7,461.9z M380,462.1 c-0.7-0.9-1.2-1.9-1.6-3c0-0.2,0-0.5,0-0.7h1.6c0,0.4,0.1,0.8,0.1,1.2c0,0.2,0.1,0.5,0.2,0.7C380.3,460.9,380.1,461.5,380,462.1 L380,462.1z M375.9,463c-0.8-0.6-1.4-1.5-1.6-2.5c0.1-0.7,0.2-1.3,0.2-2c1,0,1.9,0,2.9,0c0,0.2,0.1,0.5,0.2,0.8 C377.3,460.6,376.8,461.9,375.9,463L375.9,463z M372.5,462.5c-0.8-1.3-1.2-2.7-1.3-4.2l2,0.1c0,0.7,0,1.3,0.1,2 C373.2,461.1,372.9,461.9,372.5,462.5L372.5,462.5z M343.8,463c-0.6-1.1-1.1-2.4-1.4-3.6c1-0.4,1.7-0.6,2.1-0.8 c0.2,1.5,0.1,3-0.4,4.4c0,0.2-0.1,0.3-0.3,0.4c0,0,0,0-0.1-0.2L343.8,463z M340.4,462.7c-0.6,0.3-1.3-0.5-1.6-1.1 c-0.1-0.3-0.3-0.6-0.4-0.9c1.1-0.3,2.1-0.6,2.9-0.9c0,0.7-0.2,1.3-0.3,1.9C340.9,462.3,340.7,462.6,340.4,462.7L340.4,462.7z M335.6,462.7c-0.1-0.4-0.2-0.9-0.4-1.3l1.7-0.4c-0.2,0.6-0.4,1.2-0.7,1.8c-0.1,0.3-0.3,0.4-0.3,0.4l0,0 C335.8,463.2,335.7,463.1,335.6,462.7L335.6,462.7z M332,463.4c-0.5,0.1-1.1-0.1-1.4-0.6c-0.1-0.2-0.2-0.3-0.3-0.5 c1-0.2,2-0.3,3-0.5c0,0.1-0.1,0.2-0.1,0.2C332.9,462.9,332.5,463.4,332,463.4L332,463.4z M326.9,464.8c-0.4-0.7-0.8-1.4-1.1-2.1 c1-0.1,2-0.1,3-0.3c-0.2,0.7-0.5,1.4-0.8,2.1c-0.2,0.4-0.5,0.7-0.8,0.6C327.1,465.1,327,465,326.9,464.8L326.9,464.8z M322.5,465.5c-0.6-0.8-1-1.7-1.2-2.7c0.9,0,1.8,0,2.7,0c-0.3,0.9-0.6,1.8-0.9,2.7c0,0.1-0.2,0.4-0.2,0.4S322.7,465.8,322.5,465.5 L322.5,465.5z M318.1,465.1c-0.4-0.8-0.7-1.7-0.9-2.6c1,0.1,2,0.2,2.9,0.2c-0.3,1-0.8,1.9-1.4,2.7c-0.1,0.1-0.2,0.2-0.2,0.2 S318.2,465.5,318.1,465.1L318.1,465.1z M313.4,465.3c-0.3-1.1-0.6-2.3-0.7-3.5c1.1,0.2,2.2,0.4,3.3,0.6c-0.4,1.3-1.2,2.4-2.2,3.2 c0,0-0.1,0.1-0.2,0.1C313.5,465.6,313.4,465.5,313.4,465.3L313.4,465.3z M308.6,464.9c-0.5-1.2-0.8-2.4-0.8-3.6 c0.1-0.3,0.1-0.5,0.1-0.8c1.3,0.5,2.6,0.9,4,1.2c-0.3,1.6-1.2,2.9-2.6,3.7c-0.1,0-0.2,0.1-0.4,0.1 C308.7,465.3,308.5,465,308.6,464.9L308.6,464.9z M303.6,462.2c-0.2-1.2-0.2-2.4-0.1-3.6c1.1,0.6,2.3,1.1,3.5,1.5 c0,0.4,0,0.7,0,1.1c-0.1,0.7-0.4,1.4-0.8,2c-0.2,0.2-0.7,1.1-1.5,0.9S303.6,462.7,303.6,462.2L303.6,462.2z"></path> <path class="st1" d="M371.9,73.8c1.2,7.8,8.4,17.7,20.7,15.8c15.9-2.4,9.5-35.2,9.3-36.3c-0.5-2.3-4.3-6.9-10.7-9.5 c-9.4-3.9-16.2,2.2-20.5,8.2c-4.1,5.7-6,7-3.1,13.4l0.2,0.4c-2-0.8-4.7-1.4-4.5,1.8C363.6,71.4,369.1,73.9,371.9,73.8z"></path> <path class="st4" d="M383.5,40.7c22.7,0.7,19.4,19.7,19.4,19.7c-7.9-0.9-15.4-10.2-15.4-10.2C385,65,367.8,65.8,367.8,65.8 C356,45.4,383.5,40.7,383.5,40.7z"></path> <path class="st4" d="M399.4,64.3c0.5,0.1,0.9,0.9,0.7,1.8c-0.2,0.9-0.5,1.4-1,1.4c-0.7-0.2-1.1-0.9-0.9-1.6 C398.4,65,398.9,64.3,399.4,64.3z"></path> <path class="st4" d="M388.3,64.6c0.5,0.1,0.9,0.9,0.7,1.8c-0.2,0.9-0.5,1.4-1,1.4c-0.7-0.2-1.1-0.9-0.9-1.6 C387.3,65.2,387.8,64.5,388.3,64.6z"></path> <path class="st4" d="M386.5,61c0.7-0.1,1.4-0.1,2.1,0.1c1.9,0.9-2.2,1.2-2.8,1C384.3,61.8,385.8,61.1,386.5,61z"></path> <path class="st4" d="M397.2,60.8c-0.2,0.1-0.4,0.3-0.4,0.5c-0.1,0.4,0.2,0.8,0.6,0.9c0.3,0.1,0.6,0.1,0.9,0l1.3-0.2 c0.2,0,0.4-0.1,0.6-0.2c0.2-0.1,0.2-0.4,0.2-0.5c-0.1-0.2-0.3-0.3-0.5-0.3C399.1,60.9,397.9,60.5,397.2,60.8z"></path> <path class="st7" d="M385.7,80.1c4.2,0.9,8.6,0.7,12.8-0.4C394,92,385.7,80.1,385.7,80.1z"></path> <path class="st4" d="M392.7,76.1l0.5-0.6c0.3,0.3,0.7,0.4,1.2,0.4c1,0,1.9-0.8,1.9-1.9c0-0.3-0.1-0.7-0.2-1l-1.2-4.8l0.7-0.2 l1.2,4.8c0.1,0.4,0.2,0.8,0.2,1.2c0,1-0.6,1.9-1.5,2.4c-0.3,0.2-0.7,0.2-1.1,0.2C393.8,76.7,393.2,76.5,392.7,76.1z"></path> <circle class="st7" cx="371.7" cy="75.8" r="3.4"></circle> <path class="st2" d="M364.8,69.4c-0.5-0.6-0.6-1.4-0.4-2.1c0.2-0.4,0.5-0.8,0.9-0.9c0.4-0.2,0.8-0.2,1.1,0l-0.4,0.9 c-0.1,0-0.3,0-0.4,0c-0.2,0.1-0.3,0.2-0.4,0.4c-0.1,0.4,0,0.9,0.2,1.2c0.3,0.4,0.7,0.8,1.2,1l-0.5,0.9 C365.7,70.3,365.2,69.9,364.8,69.4z"></path> <path class="st7" d="M369.2,63.7c1.7-0.4,3.4-0.5,5.1-0.5c1.9,0.2,3.8,0.7,5.6,1.4l4,1.4c-0.1,1,0.2,2.1,0.7,2.9 c0.5,1,1.4,1.6,2.4,1.8c0.5,0.1,1,0,1.4-0.2c0.5-0.2,0.9-0.5,1.3-0.9c0.7-0.8,1.2-1.7,1.3-2.8l0,0c0.7-0.4,1.5-0.6,2.4-0.6 c0.5,0,0.9,0.1,1.3,0.3c0,0.7,0.2,1.3,0.5,1.9c0.5,1,1.3,1.6,2.4,1.9c0.6,0.1,1.3,0.1,1.9-0.2c0.4-0.2,0.7-0.4,1-0.6 c0.9-0.7,1.5-1.8,1.7-2.9c0.5-2.4-0.8-4.8-2.8-5.2c-1-0.2-2.1,0.1-2.9,0.8c-0.9,0.7-1.5,1.8-1.7,2.9c0,0.1,0,0.3,0,0.4 c-0.4-0.1-0.9-0.2-1.4-0.2c-0.8,0-1.6,0.1-2.3,0.4c-0.1-2.1-1.3-3.9-3.1-4.1c-1.9-0.2-3.6,1.4-4,3.6l-3.8-1.3 c-1.9-0.8-3.9-1.2-5.9-1.5c-1.8-0.1-3.6,0.1-5.3,0.5L369.2,63.7z M395.8,66.1L395.8,66.1L395.8,66.1c0-0.3,0-0.6,0.1-0.8 c0.2-0.9,0.6-1.7,1.4-2.4c0.2-0.2,0.5-0.4,0.8-0.5c0.4-0.2,0.9-0.2,1.3-0.1c1.5,0.3,2.4,2.1,2,4.1c-0.2,0.9-0.6,1.7-1.3,2.4 c-0.2,0.2-0.4,0.3-0.7,0.5c-1.2,0.5-2.6,0-3.1-1.2C395.9,67.4,395.7,66.8,395.8,66.1z M385.5,68.6c-0.5-0.8-0.7-1.8-0.5-2.7 c0.1-1.3,0.8-2.5,2-3.2c0.3-0.1,0.7-0.2,1-0.1c1.5,0.2,2.5,1.9,2.3,3.9c-0.1,0.9-0.5,1.8-1.1,2.5c-0.2,0.2-0.4,0.4-0.7,0.6 C387.4,70,386,69.6,385.5,68.6L385.5,68.6z"></path> <path class="st8" d="M396.7,456.6l-26.9,1.5c-12.2-50.4-10.5-117.8-10.5-117.8C366.8,414.9,396.7,456.6,396.7,456.6z"></path> <polygon class="st8" points="358.8,340.2 366.4,285 366.6,262.1 367.4,262.1 367.2,285 359.6,340.3 "></polygon> <path class="st9" d="M414.8,158c-7.6,5.3-17.1,7.1-26.1,5.1l0.1-2.4c0,0,24.5-5.7,12.1-31.3L414.8,158z"></path> <path class="st1" d="M462.3,239.6c-3.6,1.4-10.9-1.6-14.5-2.3c-0.7-0.1-1.3-0.4-1.8-0.8c-0.3-0.4-0.4-1-0.4-1.5 c0.3-2,1.8-3.6,3.7-4.2c1.9-0.5,3.9-0.6,5.9-0.2c1.8,0.2,3.5,0.6,5.2,1.4C463.2,233.3,466.5,237.9,462.3,239.6z"></path> <rect x="410.7" y="202.7" transform="matrix(0.9659 -0.2589 0.2589 0.9659 -38.4306 114.3675)" class="st2" width="8.5" height="0.8"></rect> <path class="st8" d="M339.4,457.6c0.2,0,0.4-0.2,0.5-0.5c0.1-0.5,0-0.9-0.4-1.3c-0.8-0.4-1.8-0.6-2.8-0.4 c-7,0.5-14.1-0.4-20.8-2.7c-1-0.2-1.9-0.7-2.6-1.4c-0.8-0.9-0.9-2.2-0.1-3.1c0.5-0.4,1.1-0.6,1.8-0.7c4.9-0.6,9.8-0.8,14.8-0.5 h0.3c1.3,0.1,2.7,0.1,4-0.2c1.3-0.3,2.4-1.3,2.7-2.7c0.3-2.1-2-3.8-3.4-4.6c-6.5-3.8-14-5.5-21.2-7.1c-0.6-0.1-1.1-0.3-1.5-0.7 c-0.5-0.6-0.7-1.5-0.4-2.3c1-3.1,5.1-3.5,6.8-3.5h0.7c2.3,0,4.8-0.1,6.3-1.6c0.4-0.4,0.7-0.9,0.7-1.5c0-0.8-0.8-1.6-2.3-2.2 c-7.8-3.2-16.1-4.8-24.6-4.6v-0.8c8.5-0.2,17,1.4,24.9,4.6c1.8,0.8,2.8,1.7,2.8,2.9c0,0.8-0.4,1.5-0.9,2.1 c-1.8,1.8-4.5,1.8-6.9,1.9h-0.7c-1.5,0.1-5.2,0.4-6,3c-0.2,0.5-0.1,1.1,0.2,1.5c0.3,0.3,0.7,0.4,1.1,0.5 c7.2,1.6,14.8,3.4,21.4,7.2c2.8,1.6,4.1,3.5,3.8,5.4c-0.4,1.6-1.7,2.9-3.3,3.3c-1.4,0.3-2.9,0.4-4.3,0.3h-0.3 c-4.9-0.3-9.8-0.1-14.6,0.5c-0.5,0-0.9,0.2-1.3,0.5c-0.5,0.6-0.4,1.5,0.1,2c0.6,0.6,1.4,1,2.2,1.2c6.6,2.2,13.5,3.1,20.5,2.7 c1.1-0.2,2.3-0.1,3.3,0.5c0.6,0.5,0.9,1.4,0.6,2.1c-0.1,0.5-0.6,0.9-1.2,1L339.4,457.6z"></path> <path class="st8" d="M338.1,424.4c-2.3-0.3-4.5-0.8-5.6-2.5c-1.1-1.7-0.4-3.9,0.4-6c0.2-0.6,0.6-1.2,1.1-1.5 c0.6-0.3,1.2-0.3,1.8-0.2c3.8,0.3,7.7,0.1,11.4-0.7c0.6,0,1.1-0.3,1.5-0.7c0.2-0.4,0.2-0.8,0.1-1.2c-0.5-3.4-2.2-6.4-4.8-8.6 c-2.6-2.2-5.5-4-8.6-5.4l-0.2-0.1c-2-1-4.1-2-5.5-3.8c-0.6-0.7-0.9-1.7-0.8-2.6c0.3-1.9,2.3-3,5.6-3l18.8-0.2v0.8l-18.8,0.2 c-1.3,0-4.5,0.3-4.8,2.3c0,0.7,0.2,1.4,0.7,2c1.2,1.7,3.2,2.6,5.2,3.6l0.2,0.1c3.2,1.4,6.2,3.3,8.9,5.5c2.7,2.3,4.5,5.6,5,9.1 c0.1,0.6,0,1.2-0.3,1.8c-0.5,0.6-1.2,1-2,1.1c-3.8,0.8-7.7,1-11.6,0.7c-0.4-0.1-0.9,0-1.3,0.1c-0.4,0.3-0.6,0.7-0.7,1.1 c-0.7,1.8-1.4,3.8-0.5,5.3s2.9,1.9,5,2.1l10.1,1.1l-0.1,0.8L338.1,424.4z"></path> <path class="st8" d="M309,411.4c-3.6-0.5-7.2-0.6-10.8-0.3c-0.9,0.1-1.1-0.3-1.2-0.6c-0.1-0.3,0-0.5,0.2-0.7 c0.2-0.2,0.6-0.2,0.8,0c0.1,0.1,0.2,0.3,0.1,0.4c3.6-0.3,7.3-0.2,10.9,0.3c0.7,0.1,1.4,0.2,1.7-0.3c0.4-0.5-0.1-1.2-0.7-2.1 c-0.6-0.9-1.4-2.1-0.5-3l0.1-0.1h0.2c6.2,0.9,12.5,1.5,18.8,1.6c0.4,0.1,0.9,0,1.3-0.2c0.2-0.2,0.4-0.4,0.4-0.7 c0-0.9-0.4-1.7-1-2.4c-2.6-2.9-6.4-4.4-10-5.8c-6.5-2.6-13.2-5.3-19.7-8l0.3-0.8c6.5,2.7,13.1,5.4,19.7,8c3.5,1.4,7.6,3,10.3,6 c0.8,0.8,1.2,1.9,1.2,3c-0.1,0.5-0.4,1-0.8,1.3c-0.5,0.3-1.1,0.4-1.7,0.3c-6.2-0.1-12.5-0.6-18.6-1.5c-0.2,0.4,0.1,0.9,0.7,1.8 s1.4,2,0.7,3c-0.4,0.5-1,0.7-1.7,0.7C309.5,411.4,309.3,411.4,309,411.4z M297.4,410c-0.1,0.1-0.1,0.2,0,0.3 c0,0.1,0.1,0.1,0.2,0.1c0.1-0.1,0.1-0.2,0.1-0.3L297.4,410z"></path> <path class="st8" d="M298.4,378.7c0.5-3.5,5.4-3.6,6.9-3.6c6.2,0.1,12.4,0.6,18.6,1.4l2,0.3c4.9,0.7,10,1.4,14.9,0.5 c0.4,0,0.8-0.2,1.1-0.4c0.2-0.2,0.3-0.5,0.3-0.8c-0.3-1-0.9-1.8-1.8-2.2c-1.4-0.8-2.9-1.4-4.4-2c-2.2-0.8-4.2-1.8-6.1-3.2 c-0.9-0.6-1.5-1.5-1.8-2.5c-0.2-1.6,0.7-3.1,2.2-3.7c1.3-0.5,2.8-0.7,4.2-0.6c7,0.1,13.9,0.6,20.9,1.5l-0.1,0.8 c-6.9-0.9-13.8-1.4-20.8-1.5c-1.3-0.1-2.6,0.1-3.8,0.5c-1.1,0.5-1.8,1.6-1.7,2.8c0.2,0.8,0.8,1.5,1.5,2c1.9,1.3,3.9,2.3,6,3 c1.5,0.6,3,1.3,4.5,2.1c1.1,0.6,1.9,1.6,2.2,2.9c0.1,0.6-0.1,1.1-0.6,1.5c-0.4,0.3-0.9,0.5-1.5,0.6c-5,0.9-10.1,0.2-15.1-0.5 l-2-0.3c-6.1-0.8-12.3-1.3-18.5-1.4c-1.3,0-5.7,0.1-6.1,2.9L298.4,378.7z"></path> <path class="st8" d="M322.7,361.2c-2.6-0.2-5.2-0.6-7.8-1.4c-1.1-0.3-2.3-0.6-3.5-0.8c-4.6-0.9-8.2-0.5-10.7,1.2h-0.1 c-0.5,0.4-1.1,0.6-1.8,0.6c-0.5-0.2-0.9-0.6-0.8-1.2c0-0.4,0.3-0.7,0.7-0.8l0.1,0.8c0,0.1,0,0.2,0,0.2c0,0.1,0.1,0.1,0.1,0.2 c0.3,0.1,0.8-0.2,1.1-0.5l0.1,0c2.8-1.8,6.6-2.3,11.3-1.3c1.2,0.2,2.4,0.6,3.5,0.9c2.5,0.7,5,1.2,7.6,1.4c0.6,0.1,1.2-0.1,1.7-0.5 c0.1-0.1,0.2-0.3,0.1-0.4c0-0.3-0.4-0.6-0.8-0.9s-0.9-0.5-1.4-0.7c-0.9-0.3-1.7-0.8-2.5-1.4c-0.8-0.6-1.3-1.6-1.4-2.6 c-0.1-0.7,0.1-1.3,0.5-1.8c0.5-0.6,1.2-1,2-1.1c3.7-1,7.6-0.4,11.5,0.1c3.9,0.5,7.8,1.1,11.5,0c-0.2-1.2-1.5-2.1-2.8-2.4 c-0.5-0.1-1-0.2-1.5-0.3c-1.1-0.2-2.1-0.5-3.1-1c-1-0.6-1.6-1.5-1.8-2.6c-0.1-0.7,0-1.4,0.5-2c0.9-1,2.2-1,3.6-0.9l18.7,1.5 l-0.1,0.8l-18.7-1.5c-1.1-0.1-2.3-0.1-2.9,0.6c-0.3,0.4-0.4,0.8-0.3,1.3c0.2,0.8,0.7,1.6,1.4,2c0.9,0.4,1.9,0.7,2.8,0.9 c0.5,0.1,1.1,0.2,1.6,0.4c1.5,0.5,3.4,1.6,3.4,3.5v0.3l-0.3,0.1c-3.9,1.3-8.1,0.7-12.2,0.1c-3.7-0.5-7.6-1.1-11.1-0.1 c-0.6,0.1-1.2,0.4-1.6,0.9c-0.3,0.3-0.4,0.8-0.3,1.2c0.1,0.8,0.5,1.5,1.1,2c0.7,0.5,1.5,0.9,2.3,1.2c0.5,0.2,1,0.4,1.5,0.7 c0.7,0.3,1.1,0.8,1.2,1.5c0,0.4-0.1,0.8-0.4,1.1c-0.6,0.5-1.4,0.8-2.2,0.8L322.7,361.2z"></path> <path class="st8" d="M295.6,345c5.6-1.3,11.5-1.2,17.1-1.1c4.6,0.2,9.2,0,13.8-0.5c1.3-0.2,3.6-0.8,3.9-2.5c0.3-2.1-2.7-3.2-4-3.6 l-14-4.1l0.4-0.5c2.4-2.7,6.3-2.8,9.8-2.8l9.4,0.1c0.8,0,3.4-0.1,3.6-1.6c0-0.6-0.2-1.2-0.6-1.7c-2.2-2.8-6.3-3.1-9.9-3.2 l-29.3-0.9v-0.8l29.3,0.9c3.8,0.1,8.1,0.5,10.5,3.5c0.6,0.6,0.9,1.5,0.8,2.3c-0.2,1.5-1.8,2.3-4.4,2.3l-9.4-0.1 c-3.1-0.1-6.6,0-8.7,2l12.7,3.8c1.5,0.5,5,1.8,4.6,4.5c-0.3,2.2-3,2.9-4.6,3.2c-4.6,0.6-9.3,0.7-14,0.5 c-5.6-0.1-11.4-0.2-16.9,1.1L295.6,345z"></path> <path class="st8" d="M306.1,320.1c-3.7-0.1-7.4-0.5-11.1-1c-0.9-0.1-1.1-0.5-1.2-0.9c0-0.3,0.1-0.5,0.3-0.7 c0.3-0.2,0.6-0.1,0.9,0.1c0.2,0.2,0.2,0.4,0.1,0.6l-0.7-0.3c0,0.1,0,0.2,0,0.2c0,0.1,0.1,0.1,0.1,0.1c0.1,0,0.1-0.1,0.1-0.2 c0,0,0.1,0.1,0.5,0.2c3.6,0.5,7.3,0.8,11,0.9c1.5,0.1,3-0.3,4.2-1.1c0.4-0.3,0.6-0.8,0.6-1.3c0-1.4-1.5-2.3-3.3-3.2 c-1.9-0.9-3.5-2.9-2.7-4.5c0.8-1.7,3.2-1.6,4.6-1.5c3.1,0.1,6.1-0.4,8.9-1.6c0.8-0.3,1.6-0.8,2.1-1.5c0.5-1.2,0.1-2.6-0.8-3.4 c-0.9-0.8-2-1.4-3.1-1.9l-0.5-0.2c-3.7-1.7-7.1-4-10.1-6.8c-0.8-0.6-1.3-1.4-1.7-2.4c-0.5-2,1-3.8,2.8-4.5 c1.7-0.5,3.6-0.5,5.3-0.1c12.3,1.8,24.8,3,37.1,3.7c1,0.1,2.1-0.1,2.9-0.7c0.2-0.2,0.4-0.5,0.4-0.8c0-0.7-0.7-1.3-1.3-1.8 c-7.2-5.3-15.7-8.5-24.7-9.2c-1.3-0.1-2.7-0.2-4-0.2c-2.5,0-5-0.2-7.4-0.6c-2.7-0.5-5.4-1.4-7.9-2.7c-1-0.4-1.8-1.2-2.3-2.1 c-0.7-1.6,0.4-3.5,1.8-4.3c1.4-0.7,3-1,4.6-1l5.1-0.3c0.5,0,1-0.1,1.4-0.4c0.2-0.2,0.2-0.4,0.2-0.6c-0.2-0.8-0.7-1.5-1.3-2 c-3.3-2.7-6.8-5.2-10.4-7.4l-0.2-0.1l0.1-0.3c0.8-3.2,4.8-3.9,8.1-3.9h11.2c1.3,0.2,2.7-0.1,3.9-0.8c1.7-1.3,1.5-3.9,0.3-5.6 c-1.3-1.8-3.5-2.7-5.5-3.4c-4.8-1.7-9.7-3-14.7-3.6l0.1-0.8c5.1,0.7,10.1,1.9,14.9,3.7c2.1,0.8,4.5,1.8,5.9,3.7s1.6,5.2-0.4,6.7 c-1.3,0.8-2.8,1.1-4.4,1h-11.2c-2.9,0-6.4,0.5-7.2,3c3.5,2.2,7,4.7,10.2,7.3c0.8,0.6,1.4,1.5,1.6,2.5c0,0.4-0.1,0.9-0.4,1.2 c-0.5,0.5-1.3,0.7-2,0.7l-5.1,0.3c-1.4,0-2.9,0.3-4.2,0.9c-1.1,0.7-2,2.1-1.4,3.3c0.4,0.8,1.1,1.4,1.9,1.7 c2.4,1.3,4.9,2.2,7.6,2.7c2.4,0.4,4.9,0.6,7.3,0.6c1.3,0,2.7,0.1,4,0.2c9.1,0.7,17.8,4,25.1,9.4c0.9,0.5,1.5,1.4,1.6,2.5 c0,0.5-0.2,1-0.6,1.4c-1,0.7-2.3,1-3.5,0.9c-12.4-0.7-24.9-1.9-37.2-3.7c-1.6-0.4-3.3-0.4-5,0.1c-1.4,0.5-2.7,2-2.3,3.5 c0.3,0.8,0.8,1.5,1.4,2c2.9,2.7,6.2,5,9.8,6.6l0.4,0.2c1.2,0.5,2.3,1.1,3.3,2c1.2,1.1,1.6,2.8,1,4.4c-0.6,0.9-1.5,1.6-2.5,1.9 c-2.9,1.2-6.1,1.8-9.3,1.6c-1.6-0.1-3.2-0.1-3.8,1c-0.6,1.4,1,2.8,2.4,3.5c1.5,0.7,3.7,1.9,3.7,3.9c0,0.7-0.3,1.4-0.8,1.9 c-1.3,1.2-3.5,1.4-4.5,1.4L306.1,320.1z"></path> <path class="st8" d="M349.8,336.8c-2-0.1-3.9-0.6-5.6-1.6c-1.7-1.1-2.8-3.5-1.8-5.4c1.1-2.2,3.9-2.2,6.4-2.2c2.4,0,4.7,0,5.7-1.8 s-0.5-4.1-2.1-5.5c-3.7-3.2-8.5-5-13.1-6.7c-1-0.4-2.1-0.8-3.1-1.2c-1.5-0.6-6.2-2.7-5.5-6.4c0.5-1.8,2.1-3.1,3.9-3.4 c1.6-0.2,3.2-0.2,4.8,0.2l0.4,0.1c6.4,0.9,12.8,1,19.2,0.3c1.3-0.2,3.4-0.6,3.7-2.2c0.2-1.3-0.9-2.1-2.3-3 c-1.2-0.7-2.2-1.7-2.8-2.9c-0.8-1.9,0.6-4.1,2.4-4.9c1.8-0.7,3.7-0.7,5.5-0.2l-0.2,0.8c-1.6-0.5-3.4-0.4-5,0.1 c-1.4,0.6-2.6,2.4-2,3.9c0.6,1,1.4,1.9,2.5,2.5c1.4,1,2.9,2,2.6,3.8c-0.3,1.5-1.8,2.5-4.4,2.8c-6.5,0.8-13,0.7-19.4-0.3l-0.4-0.1 c-1.5-0.3-3-0.4-4.5-0.2c-1.5,0.2-2.8,1.3-3.3,2.8c-0.6,3,3.7,4.9,5,5.4c1,0.4,2.1,0.8,3.1,1.2c4.7,1.8,9.5,3.6,13.4,6.9 c1.9,1.7,3.5,4.2,2.3,6.5c-1.1,2.2-4,2.2-6.4,2.2s-4.7,0-5.6,1.8c-0.8,1.5,0.2,3.4,1.6,4.4c1.6,0.9,3.4,1.4,5.2,1.4l8.6,1 l-0.1,0.8L349.8,336.8z"></path> <path class="st1" d="M341.9,215.4c-2,12.2,1.8,89,1.8,89s-33.6-74.1-33.4-95.1c0.2-14.9,9.6-56,9.6-56l37.9,7.8 C357.8,161.1,343.9,203.2,341.9,215.4z"></path> <path class="st1" d="M337.2,292.4c-1.1,2-1.7,4.2-1.8,6.5c-0.4,4.2-0.4,8.5,1.3,12.4c0.7,1.6,1.8,3.2,3.5,3.7 c1.9,0.6,4.1-0.7,5.1-2.4c0.9-1.8,1.4-3.8,1.4-5.8C346.9,302.6,344,281.8,337.2,292.4z"></path> <path class="st2" d="M315.7,172.8l3.4-17l37.9,7.1C337.8,175.6,315.7,172.8,315.7,172.8z"></path> <rect x="337" y="209.9" transform="matrix(0.1896 -0.9819 0.9819 0.1896 62.8558 505.1261)" class="st2" width="0.8" height="9.1"></rect> <path class="st8" d="M345.3,269.2l0.1-0.8c4.3,0.4,8.7,0.4,13,0c0.7,0,1.4-0.2,1.9-0.6c0.3-0.4,0.4-0.8,0.4-1.3 c0.2-2.7-1.4-5.6-4.4-7.6c-1.6-1.1-3.3-2-5.1-2.7c-1.1-0.5-2.3-1.1-3.5-1.7c-0.9-0.4-1.7-1.1-2.1-2.1c-0.3-1.2,0.1-2.6,1.1-3.4 c0.9-0.7,2-1.2,3.1-1.4c5.3-1.4,10.7-2.3,16.1-2.7c0.4,0,1.5-0.2,1.5-0.7c0-0.3-0.1-0.5-0.2-0.7c-1.3-2.1-3.5-3.3-5.8-4.6 c-1.7-0.8-3.3-1.9-4.8-3.1c-0.7-0.5-1.1-1.3-1.1-2.2c0.1-1.2,1.4-1.8,1.9-2h0.1c3.4-1.6,5.1-2.3,8.9-1.7l-0.1,0.8 c-3.6-0.6-5.1,0.1-8.5,1.7h-0.1c-0.9,0.4-1.3,0.9-1.4,1.3c0,0.5,0.2,0.9,0.8,1.5c1.4,1.2,2.9,2.2,4.6,3c2.3,1.2,4.7,2.5,6.1,4.8 c0.3,0.4,0.4,0.8,0.4,1.2c-0.1,0.4-0.4,1.3-2.3,1.4c-5.4,0.4-10.7,1.3-15.9,2.7c-1,0.2-2,0.6-2.8,1.2c-0.8,0.6-1.1,1.5-0.9,2.5 c0.4,0.7,1,1.3,1.7,1.6c1.1,0.6,2.3,1.2,3.4,1.7c1.8,0.8,3.5,1.7,5.2,2.8c3.2,2.2,5,5.4,4.8,8.4c0,0.6-0.2,1.3-0.6,1.8 c-0.7,0.6-1.5,0.9-2.4,0.9c-2.2,0.2-4.4,0.3-6.5,0.3C349.7,269.5,347.5,269.4,345.3,269.2z"></path> <path class="st8" d="M376,321.3c-1.9-0.7-3.7-2.6-3.4-4.8c0.2-1.1,0.7-2.1,1.5-2.9c2.9-3.5,7.1-5.7,11.1-7.7 c3.4-1.7,6.9-3.5,9.6-6.1c0.5-0.4,0.9-1,1.1-1.6c0-1-0.6-1.9-1.6-2.2c-1.1-0.3-2.2-0.4-3.3-0.2c-5.2,0.4-10.5,0.6-15.7,0.4 c-1.3,0.1-2.7-0.3-3.7-1.2c-1.7-1.9-0.2-4.7,1.7-6.6c3.1-3.1,6.4-5.9,9.9-8.5c1.2-0.8,5-3.8,3.3-6.3c-1-1.5-3.2-1.3-5.2-1.1 l-0.7,0.1c-1.7,0.1-3.4-0.5-4.6-1.7c-0.5-0.6-0.7-1.4-0.4-2.2c0.3-0.8,0.9-1.5,1.6-1.9c2.1-1.5,4.4-2.8,6.9-3.6l0.3,0.8 c-2.4,0.8-4.6,2-6.7,3.5c-0.6,0.4-1,0.9-1.3,1.5c-0.2,0.5-0.1,1.1,0.3,1.5c1,1,2.5,1.5,3.9,1.4l0.7-0.1c2.2-0.2,4.7-0.4,6,1.5 c2.1,3-2.2,6.4-3.5,7.4c-3.5,2.5-6.8,5.3-9.8,8.4c-1.3,1.3-3.1,3.9-1.7,5.5c0.9,0.7,2,1,3.1,1c5.2,0.2,10.4,0.1,15.6-0.4 c1.2-0.2,2.4-0.1,3.6,0.2c1.3,0.4,2.2,1.7,2.1,3.1c-0.2,0.8-0.7,1.5-1.3,2c-2.8,2.7-6.4,4.5-9.8,6.2c-4,2-8,4.1-10.8,7.5 c-0.6,0.7-1.1,1.6-1.3,2.5c-0.2,1.8,1.3,3.4,2.9,4c1.8,0.5,3.7,0.6,5.6,0.3l26.4-2.5l0.1,0.8l-26.4,2.5c-0.9,0.1-1.8,0.2-2.7,0.2 C378.1,321.8,377,321.6,376,321.3z"></path> <path class="st8" d="M369,393.1c8.6-1.9,17.1-4.3,25.5-7c0.6-0.2,3.2-1.1,2.9-2.8c-0.2-0.7-0.7-1.2-1.3-1.5 c-3.3-1.9-7.1-1.4-11.2-0.9c-3.5,0.5-7,0.9-10.3-0.2c-1.3-0.3-2.3-1.2-2.9-2.4c-0.2-0.7-0.2-1.5,0.2-2.2c0.9-1.6,3.1-2.6,4.9-3 l5.9-1.4c0.6-0.1,1.2-0.3,1.7-0.7c0.4-0.4,0.6-1,0.5-1.6c-0.2-1-0.8-2-1.7-2.5c-1.1-0.5-2.3-0.8-3.6-0.9c-0.6-0.1-1.2-0.2-1.9-0.3 c-2.1-0.4-4.2-1.8-4.2-3.9c0-1.3,0.7-2.6,2.3-3.8c3.8-3,8.6-4.1,13.3-5.2l2.4-0.5c6.1-1.5,12-3.6,17.6-6.3c-1.3-1.9-3.5-3-5.8-3.1 c-2.3-0.1-4.5,0.2-6.7,0.7l-0.7,0.1c-9,1.8-18.2,2.5-27.4,1.9h-0.3v-0.3c-0.3-2.7,2-5.1,4.5-6.2c1-0.4,2-0.8,3.1-1.1 c1.4-0.4,2.7-0.9,4-1.6c0.9-0.4,1.5-1.2,1.7-2.1c0-0.5-0.1-1-0.5-1.3c-0.9-0.9-2.8-1.2-4.4-1.2l-15.1,0.5v-0.8l15.1-0.5 c1.6-0.1,3.9,0.3,5,1.5c0.5,0.5,0.8,1.2,0.7,1.9c-0.2,1.2-1,2.2-2.1,2.7c-1.3,0.7-2.7,1.3-4.2,1.7c-1,0.3-2,0.7-3,1.1 c-2.1,1-4.1,2.9-4,5.1c9,0.5,18-0.1,26.8-1.9l0.7-0.1c2.3-0.6,4.6-0.8,7-0.7c2.3,0.2,5.3,1.4,6.6,4l0.2,0.4l-0.4,0.2 c-5.8,2.8-11.9,5-18.1,6.6l-2.4,0.5c-4.6,1-9.4,2.1-13,5c-1.4,1.1-2,2.2-2,3.2c0.1,1.6,1.9,2.8,3.6,3.2c0.6,0.1,1.2,0.2,1.8,0.3 c1.3,0.1,2.6,0.4,3.9,1c1.1,0.7,1.9,1.8,2.1,3.1c0.1,0.8-0.2,1.7-0.8,2.2c-0.6,0.5-1.3,0.8-2.1,0.9l-5.9,1.4 c-1.5,0.4-3.6,1.3-4.3,2.6c-0.3,0.5-0.3,1-0.2,1.6c0.5,1,1.3,1.7,2.3,1.9c3.1,1.1,6.6,0.6,9.9,0.2c4-0.5,8.2-1.1,11.7,1 c0.8,0.4,1.5,1.1,1.7,2c0.3,1.5-1,2.9-3.4,3.7c-8.4,2.7-17,5.1-25.6,7L369,393.1z"></path> <path class="st8" d="M395.5,376.2c2.7-2.6,6.7-3,9.8-3.2l1.8-0.1c2.6,0.1,5.3-0.3,7.8-1c-0.4-1.3-1.3-2.4-2.6-2.9 c-1.1-0.5-2.2-0.8-3.3-1l-1-0.2c-2.8-0.7-6.4-2.2-8.1-5.4c-0.5-0.7-0.5-1.7-0.1-2.4c0.3-0.3,0.7-0.6,1.1-0.7 c6.1-2.4,12.5-3.9,19-4.5l0.1,0.8c-6.4,0.6-12.7,2.1-18.7,4.4c-0.3,0.1-0.5,0.2-0.8,0.5c-0.3,0.4,0,1.2,0.2,1.5c1.6,3,5,4.4,7.6,5 l1,0.2c1.2,0.2,2.4,0.6,3.5,1.1c1.6,0.7,2.7,2.1,3,3.8v0.3l-0.3,0.1c-2.7,0.9-5.6,1.3-8.4,1.2l-1.8,0.1c-3,0.2-6.8,0.6-9.3,3 L395.5,376.2z"></path> <path class="st8" d="M382.6,449.2c0.9-4.1,4.9-6.5,8.4-7.4c2.4-0.5,4.9-0.8,7.4-0.8c1.3-0.1,2.6-0.1,3.9-0.2 c1-0.1,1.5-0.4,1.7-0.8c0.1-0.3,0-0.6-0.1-0.8c-0.7-1.7-2.8-2.2-4.1-2.5c-0.4-0.1-0.8-0.1-1.2-0.2c-1.4-0.1-2.8-0.5-4.1-1.1 c-1-0.6-1.8-1.7-2-2.9c-0.2-0.8,0-1.6,0.5-2.3c0.8-1.1,2.3-1.3,3.6-1.4l5.5-0.4c1.2-0.1,4-0.5,4.1-2.3c0.1-1.6-1.9-2.5-3.7-2.8 c-2.9-0.4-5.9-0.7-8.9-0.8c-4.5-0.2-9.1-0.4-13.4-1.9c-3.1-1-6-3.4-5.4-6.3c0.4-2.3,2.8-3.8,6.9-4.4c8.9-1.2,17.8-1.6,26.8-1.2 c0.2-0.4,0.3-0.8,0.3-1.2c-0.2-0.9-0.7-1.8-1.5-2.3c-0.8-0.5-1.7-0.9-2.6-1.1c-0.7-0.2-1.4-0.5-2-0.8c-1.7-0.8-3.1-2.7-2.6-4.4 c0.6-1.7,2.6-2.3,4.3-2.6l13.1-2.4l0.1,0.8l-13.1,2.4c-1.5,0.3-3.3,0.7-3.7,2.1s0.8,2.8,2.1,3.4c0.6,0.3,1.2,0.5,1.9,0.7 c1,0.3,1.9,0.7,2.8,1.2c1,0.7,1.6,1.7,1.8,2.9c0.1,0.7-0.1,1.5-0.6,2l-0.1,0.1h-0.2c-9-0.4-17.9,0-26.8,1.2 c-2.6,0.4-5.7,1.3-6.2,3.7c-0.5,2.4,2.2,4.5,4.9,5.4c4.2,1.4,8.8,1.6,13.2,1.8c3,0.1,6,0.3,9,0.8c2.1,0.4,4.5,1.5,4.4,3.6 c-0.1,1.7-1.9,2.9-4.9,3.1l-5.4,0.4c-1.2,0.1-2.4,0.2-3.1,1.1c-0.3,0.5-0.5,1-0.4,1.6c0.2,1,0.8,1.8,1.7,2.3 c1.2,0.6,2.5,0.9,3.8,1c0.4,0,0.9,0.1,1.3,0.2c1.7,0.3,3.9,1.1,4.7,3c0.2,0.4,0.2,0.9,0.1,1.4c-0.2,0.8-1,1.3-2.4,1.4 s-2.7,0.2-4,0.2c-2.4,0-4.8,0.3-7.2,0.8c-3.1,0.8-7,3-7.8,6.8L382.6,449.2z"></path> <path class="st3" d="M316,161c0.3,0.3,0.7,0.4,1.1,0.4c0.6-0.1,1.1-0.4,1.4-0.9c0.2-0.2,0.4-0.5,0.6-0.8c0.3,1,0.7,1.9,1.4,2.7 l0.2,0.2l0.3-0.1c1.3-0.5,2.4-1.5,3.1-2.6c0.2,1.1,0.5,2.2,1,3.2c0.1,0.3,0.3,0.5,0.6,0.7c0.5,0.3,1.1,0.1,1.7-0.6 c0.6-0.7,1.1-1.5,1.5-2.4c0.1,1.1,0.4,2.1,0.9,3.1c0.2,0.5,0.6,1,1.1,1.2c0.4,0.1,1.2,0.1,1.9-1.4l1.5-3.1c0,1.3,0.2,2.7,0.7,3.9 c0.1,0.4,0.3,0.7,0.6,0.9c0.8,0.6,1.8,0,2.4-0.6c0.7-0.7,1.3-1.4,1.8-2.2c0,0.7,0,1.4,0.1,2.1c0,0.4,0.2,0.7,0.4,1 c0.6,0.7,1.7,0.4,2.5-0.3c0.5-0.5,0.9-1,1.3-1.5c0,0.4,0.1,0.7,0.2,1.1c0.1,0.8,0.5,1.6,1.1,2.2c0.6,0.7,1.6,0.9,2.5,0.6 c0.6-0.3,1.1-0.8,1.4-1.4c0.3-0.5,0.6-1.1,0.9-1.7c0.2,1.1,0.5,2.1,1.1,3c0.1,0.3,0.4,0.5,0.7,0.6h0.2c0.4,0,0.7-0.2,0.9-0.6 c0.7-0.9,1.3-1.9,1.6-3c0.2,0.4,0.4,0.9,0.6,1.3c0.7,1.2,2.1,2.1,3.3,1.5c1.1-0.5,1.3-2.1,1.3-3.1v-1.6c1.1-0.2,2.2-0.4,3.2-0.8 l4.3-73c0,0-45,6.8-51.1,65.6h0.1c-0.4,1.2-0.7,2.4-0.9,3.7C315.3,159.4,315.5,160.3,316,161z M355.1,163.2c1.3,0,2.7-0.1,4-0.2 v1.5c0,0.8-0.1,2-0.8,2.3s-1.7-0.4-2.2-1.2C355.6,164.9,355.3,164.1,355.1,163.2z M351.9,167.3c-0.7-1.3-1.1-2.7-1-4.2 c1.1,0.1,2.2,0.2,3.3,0.2c-0.2,1.5-0.8,2.8-1.7,4c-0.2,0.3-0.3,0.3-0.3,0.3C352.1,167.5,352.1,167.5,351.9,167.3L351.9,167.3z M345,164.9c-0.2-0.8-0.2-1.6-0.1-2.4c1.7,0.3,3.4,0.5,5,0.6c-0.3,1.1-0.8,2.1-1.3,3c-0.2,0.4-0.6,0.8-1,1c-0.6,0.2-1.2,0-1.6-0.4 C345.5,166.1,345.2,165.5,345,164.9L345,164.9z M340.7,164.7c-0.2-1-0.2-2.1,0-3.1c1.1,0.2,2.3,0.4,3.4,0.6 c-0.4,1-1.1,1.9-1.9,2.6c-0.3,0.4-1,0.7-1.3,0.4C340.8,165.1,340.7,164.9,340.7,164.7L340.7,164.7z M335.6,164.3 c-0.4-1.3-0.6-2.6-0.6-3.9c1.5,0.3,3,0.7,4.5,1c-0.6,1.1-1.3,2.1-2.2,2.9c-0.3,0.3-1,0.8-1.4,0.5 C335.9,164.7,335.8,164.5,335.6,164.3L335.6,164.3z M330.4,163.7c-0.7-1.5-0.9-3.1-0.9-4.8c1.3,0.4,2.7,0.7,4.1,1.1l-1.6,3.4 c-0.1,0.4-0.6,1.1-1,1C330.8,164.3,330.6,164.1,330.4,163.7L330.4,163.7z M325.7,162.8c-0.6-1.3-1-2.8-1-4.2 c0.1-0.3,0.2-0.6,0.3-0.9c1.2,0.3,2.4,0.7,3.7,1.1l0,0c-0.4,1.5-1.1,2.8-2.1,4c-0.2,0.3-0.5,0.5-0.7,0.4 C325.9,163.1,325.8,163,325.7,162.8L325.7,162.8z M320.9,161.8c-0.6-0.9-1-1.9-1.2-3c0.4-0.8,0.7-1.7,0.8-2.6 c1,0.3,2.2,0.7,3.5,1.1c0,0.4-0.1,0.7-0.1,1.1C323.4,159.9,322.4,161.1,320.9,161.8L320.9,161.8z M316.6,160.4 c-0.3-0.6-0.4-1.2-0.2-1.8c0.2-1.2,0.5-2.4,0.9-3.5l2,0.7c-0.3,0.9-0.4,1.9-0.3,2.9c-0.3,0.5-0.6,1-1,1.4 c-0.3,0.4-0.6,0.6-0.9,0.6C316.9,160.6,316.8,160.6,316.6,160.4L316.6,160.4z"></path> <path class="st9" d="M366.6,144.9c7.6-26.8,0.5-39.2,0.4-39.3l0.7-0.4c0.3,0.6,7.4,12.8-0.4,40L366.6,144.9z"></path> <path class="st9" d="M361.8,90.7l0.7-0.5c9.7,13.9,15.6,16.4,19.1,15.9c3.5-0.4,4.8-4,4.8-4l0.8,0.3c-0.1,0.2-1.5,4.1-5.5,4.6 c-0.3,0-0.6,0.1-0.9,0.1C375.8,107.1,369.4,101.6,361.8,90.7z"></path> <path class="st9" d="M363.8,160.6l0.2-0.8c3.3,1,7.2,2.1,10.7,1.1c4.6-1.3,7.6-5.4,10.5-9.9l0.7,0.4c-3,4.6-6.2,8.9-11,10.2 c-1.1,0.3-2.2,0.4-3.2,0.4C369,162,366.3,161.5,363.8,160.6z"></path> <path class="st7" d="M391.8,108.8c0.4-0.9,0.7-1.9,0.8-2.8l0.8,0.1c-0.1,1.1-0.4,2.1-0.9,3.1L391.8,108.8z"></path> <path class="st7" d="M389.5,122.6c0.4-0.9,0.7-1.9,0.8-2.8l0.8,0.1c-0.1,1.1-0.4,2.1-0.9,3.1L389.5,122.6z"></path> <path class="st7" d="M404.1,127c0.4-0.9,0.7-1.9,0.8-2.8l0.8,0.1c-0.1,1.1-0.4,2.1-0.9,3.1L404.1,127z"></path> <path class="st7" d="M408.2,139.2c0.4-0.9,0.7-1.9,0.8-2.9l0.8,0.1c-0.1,1.1-0.4,2.1-0.9,3.1L408.2,139.2z"></path> <path class="st7" d="M399.3,118c0.4-0.9,0.7-1.9,0.8-2.8l0.8,0.1c-0.1,1.1-0.4,2.1-0.9,3.1L399.3,118z"></path> <path class="st7" d="M395,130.8c0.4-0.9,0.7-1.9,0.8-2.9l0.8,0.1c-0.1,1.1-0.4,2.1-0.9,3.1L395,130.8z"></path> <path class="st7" d="M383.2,113.3c0.4-0.9,0.7-1.9,0.8-2.8l0.8,0.1c-0.1,1.1-0.4,2.1-0.9,3.1L383.2,113.3z"></path> <path class="st7" d="M372,110.3c0.4-0.9,0.7-1.9,0.8-2.8l0.8,0.1c-0.1,1.1-0.4,2.1-0.9,3.1L372,110.3z"></path> <path class="st7" d="M364.1,114.8c0.4-0.9,0.7-1.9,0.8-2.8l0.8,0.1c-0.1,1.1-0.4,2.1-0.9,3.1L364.1,114.8z"></path> <path class="st7" d="M353.8,118c0.4-0.9,0.7-1.9,0.8-2.8l0.8,0.1c-0.1,1.1-0.4,2.1-0.9,3.1L353.8,118z"></path> <path class="st7" d="M342.4,129.3c0.4-0.9,0.7-1.9,0.8-2.8l0.8,0.1c-0.1,1.1-0.4,2.1-0.9,3.1L342.4,129.3z"></path> <path class="st7" d="M332,140.7c0.4-0.9,0.7-1.9,0.8-2.9l0.8,0.1c-0.1,1.1-0.4,2.1-0.9,3.1L332,140.7z"></path> <path class="st7" d="M333.2,152.6c0.4-0.9,0.7-1.9,0.8-2.9l0.8,0.1c-0.1,1.1-0.4,2.1-0.9,3.1L333.2,152.6z"></path> <path class="st7" d="M342.9,118c0.4-0.9,0.7-1.9,0.8-2.8l0.8,0.1c-0.1,1.1-0.4,2.1-0.9,3.1L342.9,118z"></path> <path class="st7" d="M359.5,139.2c0.4-0.9,0.7-1.9,0.8-2.9l0.8,0.1c-0.1,1.1-0.4,2.1-0.9,3.1L359.5,139.2z"></path> <path class="st7" d="M359.9,160c0.4-0.9,0.7-1.9,0.8-2.9l0.8,0.1c-0.1,1.1-0.4,2.1-0.9,3.1L359.9,160z"></path> <path class="st7" d="M384.3,179.9c0.4-0.9,0.7-1.9,0.8-2.9l0.8,0.1c-0.1,1.1-0.4,2.1-0.9,3.1L384.3,179.9z"></path> <path class="st7" d="M362.5,105.8c0.4-0.9,0.7-1.9,0.8-2.8l0.8,0.1c-0.1,1.1-0.4,2.1-0.9,3.1L362.5,105.8z"></path> <path class="st7" d="M358.7,95.9c0.4-0.9,0.7-1.9,0.8-2.8l0.8,0.1c-0.1,1.1-0.4,2.1-0.9,3.1L358.7,95.9z"></path> <path class="st7" d="M376.3,124.1c0.4-0.9,0.7-1.9,0.8-2.8l0.8,0.1c-0.1,1.1-0.4,2.1-0.9,3.1L376.3,124.1z"></path> <path class="st7" d="M371.6,132.9c0.4-0.9,0.7-1.9,0.8-2.9l0.8,0.1c-0.1,1.1-0.4,2.1-0.9,3.1L371.6,132.9z"></path> <path class="st7" d="M353.4,106.8c0.4-0.9,0.7-1.9,0.8-2.8l0.8,0.1c-0.1,1.1-0.4,2.1-0.9,3.1L353.4,106.8z"></path> <path class="st7" d="M342.9,108c0.4-0.9,0.7-1.9,0.8-2.8l0.8,0.1c-0.1,1.1-0.4,2.1-0.9,3.1L342.9,108z"></path> <path class="st7" d="M353.8,129.2c0.4-0.9,0.7-1.9,0.8-2.8l0.8,0.1c-0.1,1.1-0.4,2.1-0.9,3.1L353.8,129.2z"></path> <path class="st7" d="M361.4,149.5c0.4-0.9,0.7-1.9,0.8-2.9l0.8,0.1c-0.1,1.1-0.4,2.1-0.9,3.1L361.4,149.5z"></path> <path class="st7" d="M349.1,142.8c0.4-0.9,0.7-1.9,0.8-2.9l0.8,0.1c-0.1,1.1-0.4,2.1-0.9,3.1L349.1,142.8z"></path> <path class="st7" d="M342.4,137.7c0.4-0.9,0.7-1.9,0.8-2.9l0.8,0.1c-0.1,1.1-0.4,2.1-0.9,3.1L342.4,137.7z"></path> <path class="st7" d="M332.8,128.7c0.4-0.9,0.7-1.9,0.8-2.8l0.8,0.1c-0.1,1.1-0.4,2.1-0.9,3.1L332.8,128.7z"></path> <path class="st7" d="M323.9,133.7c0.4-0.9,0.7-1.9,0.8-2.9l0.8,0.1c-0.1,1.1-0.4,2.1-0.9,3.1L323.9,133.7z"></path> <path class="st7" d="M321,146.4c0.4-0.9,0.7-1.9,0.8-2.9l0.8,0.1c-0.1,1.1-0.4,2.1-0.9,3.1L321,146.4z"></path> <path class="st7" d="M344.1,158.5c0.4-0.9,0.7-1.9,0.8-2.9l0.8,0.1c-0.1,1.1-0.4,2.1-0.9,3.1L344.1,158.5z"></path> <path class="st7" d="M325.5,154.1c0.4-0.9,0.7-1.9,0.8-2.9l0.8,0.1c-0.1,1.1-0.4,2.1-0.9,3.1L325.5,154.1z"></path> <path class="st7" d="M341.5,151c0.4-0.9,0.7-1.9,0.8-2.9l0.8,0.1c-0.1,1.1-0.4,2.1-0.9,3.1L341.5,151z"></path> <path class="st7" d="M351.3,154.1c0.4-0.9,0.7-1.9,0.8-2.9l0.8,0.1c-0.1,1.1-0.4,2.1-0.9,3.1L351.3,154.1z"></path> <path class="st7" d="M332.8,118c0.4-0.9,0.7-1.9,0.8-2.8l0.8,0.1c-0.1,1.1-0.4,2.1-0.9,3.1L332.8,118z"></path> <path class="st7" d="M364.1,126.6c0.4-0.9,0.7-1.9,0.8-2.8l0.8,0.1c-0.1,1.1-0.4,2.1-0.9,3.1L364.1,126.6z"></path> <path class="st7" d="M382.7,132.2c0.4-0.9,0.7-1.9,0.8-2.9l0.8,0.1c-0.1,1.1-0.4,2.1-0.9,3.1L382.7,132.2z"></path> <path class="st7" d="M375.3,142.8c0.4-0.9,0.7-1.9,0.8-2.9l0.8,0.1c-0.1,1.1-0.4,2.1-0.9,3.1L375.3,142.8z"></path> <path class="st7" d="M368.3,154.9c0.4-0.9,0.7-1.9,0.8-2.9l0.8,0.1c-0.1,1.1-0.4,2.1-0.9,3.1L368.3,154.9z"></path> <path class="st7" d="M401.3,142.8c0.4-0.9,0.7-1.9,0.8-2.9l0.8,0.1c-0.1,1.1-0.4,2.1-0.9,3.1L401.3,142.8z"></path> <path class="st7" d="M390.9,140.7c0.4-0.9,0.7-1.9,0.8-2.9l0.8,0.1c-0.1,1.1-0.4,2.1-0.9,3.1L390.9,140.7z"></path> <path class="st7" d="M381.9,152.5c0.4-0.9,0.7-1.9,0.8-2.9l0.8,0.1c-0.1,1.1-0.4,2.1-0.9,3.1L381.9,152.5z"></path> <path class="st7" d="M359.5,172.2c0.4-0.9,0.7-1.9,0.8-2.9l0.8,0.1c-0.1,1.1-0.4,2.1-0.9,3.1L359.5,172.2z"></path> <path class="st7" d="M359.1,187.3c0.4-0.9,0.7-1.9,0.8-2.9l0.8,0.1c-0.1,1.1-0.4,2.1-0.9,3.1L359.1,187.3z"></path> <path class="st7" d="M361.4,196.9c0.4-0.9,0.7-1.9,0.8-2.9l0.8,0.1c-0.1,1.1-0.4,2.1-0.9,3.1L361.4,196.9z"></path> <path class="st7" d="M349.6,202.3c0.4-0.9,0.7-1.9,0.8-2.9l0.8,0.1c-0.1,1.1-0.4,2.1-0.9,3.1L349.6,202.3z"></path> <path class="st7" d="M354.3,220.3c0.4-0.9,0.7-1.9,0.8-2.9l0.8,0.1c-0.1,1.1-0.4,2.1-0.9,3.1L354.3,220.3z"></path> <path class="st7" d="M358.3,210.4c0.4-0.9,0.7-1.9,0.8-2.9l0.8,0.1c-0.1,1.1-0.4,2.1-0.9,3.1L358.3,210.4z"></path> <path class="st7" d="M361.8,225.3c0.4-0.9,0.7-1.9,0.8-2.9l0.8,0.1c-0.1,1.1-0.4,2.1-0.9,3.1L361.8,225.3z"></path> <path class="st7" d="M354.3,179.9c0.4-0.9,0.7-1.9,0.8-2.9l0.8,0.1c-0.1,1.1-0.4,2.1-0.9,3.1L354.3,179.9z"></path> <path class="st7" d="M382.7,168.4c0.4-0.9,0.7-1.9,0.8-2.9l0.8,0.1c-0.1,1.1-0.4,2.1-0.9,3.1L382.7,168.4z"></path> <path class="st7" d="M374.9,181.9c0.4-0.9,0.7-1.9,0.8-2.9l0.8,0.1c-0.1,1.1-0.4,2.1-0.9,3.1L374.9,181.9z"></path> <path class="st7" d="M374.5,197.4c0.4-0.9,0.7-1.9,0.8-2.9l0.8,0.1c-0.1,1.1-0.4,2.1-0.9,3.1L374.5,197.4z"></path> <path class="st7" d="M374.5,213c0.4-0.9,0.7-1.9,0.8-2.9l0.8,0.1c-0.1,1.1-0.4,2.1-0.9,3.1L374.5,213z"></path> <path class="st7" d="M379.8,189.5c0.4-0.9,0.7-1.9,0.8-2.9l0.8,0.1c-0.1,1.1-0.4,2.1-0.9,3.1L379.8,189.5z"></path> <path class="st7" d="M379.8,203c0.4-0.9,0.7-1.9,0.8-2.9l0.8,0.1c-0.1,1.1-0.4,2.1-0.9,3.1L379.8,203z"></path> <path class="st7" d="M392.7,154.7c0.4-0.9,0.7-1.9,0.8-2.9l0.8,0.1c-0.1,1.1-0.4,2.1-0.9,3.1L392.7,154.7z"></path> <path class="st7" d="M372,169.9c0.4-0.9,0.7-1.9,0.8-2.9l0.8,0.1c-0.1,1.1-0.4,2.1-0.9,3.1L372,169.9z"></path> <path class="st7" d="M365,178.9c0.4-0.9,0.7-1.9,0.8-2.9l0.8,0.1c-0.1,1.1-0.4,2.1-0.9,3.1L365,178.9z"></path> <path class="st7" d="M367.9,191c0.4-0.9,0.7-1.9,0.8-2.9l0.8,0.1c-0.1,1.1-0.4,2.1-0.9,3.1L367.9,191z"></path> <path class="st7" d="M368.3,203.8c0.4-0.9,0.7-1.9,0.8-2.9l0.8,0.1c-0.1,1.1-0.4,2.1-0.9,3.1L368.3,203.8z"></path> <path class="st7" d="M366.2,216.7c0.4-0.9,0.7-1.9,0.8-2.9l0.8,0.1c-0.1,1.1-0.4,2.1-0.9,3.1L366.2,216.7z"></path> <path class="st7" d="M370.3,223.9c0.4-0.9,0.7-1.9,0.8-2.9l0.8,0.1c-0.1,1.1-0.4,2.1-0.9,3.1L370.3,223.9z"></path> <path class="st7" d="M352.1,192c0.4-0.9,0.7-1.9,0.8-2.9l0.8,0.1c-0.1,1.1-0.4,2.1-0.9,3.1L352.1,192z"></path> <path class="st7" d="M348.2,213.4c0.4-0.9,0.7-1.9,0.8-2.9l0.8,0.1c-0.1,1.1-0.4,2.1-0.9,3.1L348.2,213.4z"></path> <path class="st0" d="M1,239.4c-0.7,2.1-1.1,4.4-0.9,6.7c0,7.7,0.4,15.3,1.3,22.9c0.5,4.3,1.8,9.3,5.8,10.9 c4.5,1.7,9.2-2.1,12.5-5.7c5.1-5.5,10.6-11.9,9.8-19.4C28.4,244.3,8.4,221.6,1,239.4z"></path> <path class="st0" d="M486.1,156.4c1.2,4.9-0.7,13.6,6.2,14.4c7.3,0.9,8-8.7,7.7-13.7c-0.3-5.3-0.7-10.7-2.6-15.7 c-1.8-4.6-4.8-8.5-8-12.2c-11.6-13.5-27.8-25-45.6-24.1c-3.9,0.2-8.2,1.3-10.3,4.5c-3.2,4.9,0.7,11.8,6,14.4 c5.3,2.6,11.4,2.5,17.2,3.7C470.7,130.8,482.6,142.5,486.1,156.4z"></path> <path class="st6" d="M213,196.1c43.8,24.7,112.7,11.2,112.7,11.2l-76.2-40.5c7.9-92.2-29.1-105.6-29.1-105.6 S192.3,184.4,213,196.1z"></path> <path class="st8" d="M213,196c4.4,3.1,15.6,7,15.6,7c-11.9-31.7-3.9-62.9-3.9-62.9C216,161,213,196.1,213,196z"></path> <path class="st1" d="M192.2,245.6C175.3,440.7,210.6,508,210.6,508l7.9,0.4c4.1-47.5,10.8-94.7,20.3-141.5L192.2,245.6z"></path> <path class="st1" d="M193.8,261.7c-6.7,26.2-7.8,60.7-14.5,95c-13.2,67-40.9,127.6-53.1,146.4c-1.2,1.8-7.5-0.1-7.6-0.7 c-17.9-101.2,14.2-155.5,14.2-155.5c-13.5-25.5-15.3-82.9-5.1-117.5c14.9-67.1,47.4-68,47.4-68l0,0l1.6-8.4l36.4,27.3 C213,180.4,198.4,243.7,193.8,261.7z"></path> <polygon class="st4" points="208.3,502.8 208.7,522.8 249.5,522.8 218.9,504.3 "></polygon> <polygon class="st4" points="117.6,497.2 113.5,515.2 150.1,524.1 127.6,500.7 "></polygon> <path class="st1" d="M230.4,19.7c0,0-15.4,5.2-19,10.4c-8.1,11.5-10.5,28.8-10.5,28.8c15.6,20,19.3,5.8,19.3,5.8 c1.2-19,13.2-43,13.2-43L230.4,19.7z"></path> <path class="st2" d="M202.6,51.6c1-5.9,4.4-13.7,4.4-13.7l15.8,12.3L202.6,51.6z"></path> <path class="st1" d="M207.1,26.9c-1.8,4.5-2.2,9.5-1,14.2c2.7,10.4,14.2,10.7,18.9,11.8c5.8,1.4,14.8-24,15.7-26.7 c0-0.1,0.1-0.1,0.1-0.2c0.1-0.3,0.2-0.6,0.3-0.9L241,25c1.3-4.3,2.1-8.3,1.9-11.1C241.9,2.8,216.3-1,215.7,1.2s-7.6,16.3-7.6,16.3 s-2.8-5-4.9,0.6C201.4,23.1,203.6,26.7,207.1,26.9z"></path> <ellipse transform="matrix(0.2899 -0.9571 0.9571 0.2899 139.7957 241.9826)" class="st4" cx="233" cy="26.8" rx="1.4" ry="0.8"></ellipse> <ellipse transform="matrix(0.2899 -0.9571 0.9571 0.2899 134.5777 227.5596)" class="st4" cx="220.6" cy="23.1" rx="1.4" ry="0.8"></ellipse> <path class="st4" d="M224.6,19.1c-0.1,0.2-0.3,0.4-0.6,0.4c-0.7,0.1-1.4-0.1-2-0.4c-0.6-0.2-1.1-0.5-1.7-0.8 c-0.2-0.1-0.3-0.2-0.4-0.3c-0.1-0.1-0.1-0.3,0-0.5c0.1-0.1,0.4-0.2,0.6-0.2C221.2,17.2,225,17.7,224.6,19.1z"></path> <path class="st4" d="M233.2,22c0,0.2,0.1,0.5,0.2,0.6c0.6,0.4,1.2,0.7,1.9,0.8c0.6,0.1,1.2,0.2,1.8,0.2c0.2,0,0.3,0,0.5-0.1 c0.2-0.1,0.3-0.2,0.3-0.4c0-0.2-0.2-0.3-0.4-0.5C237,22.3,233.5,20.6,233.2,22z"></path> <path class="st5" d="M207.5,10.2c-0.5,1.2-1.7,3.2-1.6,4.4s1.2,1.4,1.9,2.2c0.8,0.8,1.3,1.9,1.5,3.1c0.1,1,0.2,2.3,1.2,2.4 c0.8,0.1,1.3-0.7,1.6-1.4l7.6-15.7c0.6-1.2,1.1-2.7,0.4-3.8c-0.7-0.7-1.6-1.1-2.6-1.1c-1.9-0.2-3.9-0.2-5.5,0.9 c-1.3,1.1-2.2,2.6-2.6,4.2L207.5,10.2z"></path> <path class="st5" d="M237.7,11.1c-1.1-2.3-2.5-4.5-4.1-6.5c-1.7-2.1-3.9-3.6-6.5-4.3c-3.1-0.8-6.4,0.1-9.2,0.8l0.2,0.9 c2.8-0.7,5.9-1.5,8.8-0.8c2.4,0.7,4.5,2.1,6,4c1.6,2,2.9,4.1,4,6.3L237.7,11.1z"></path> <path class="st5" d="M232.6,10.7c-1.5-2.4-3.4-5.3-6.3-6.8c-2.7-1.4-5.8-1.5-8.5-0.2l0.4,0.9c2.4-1.1,5.3-1.1,7.7,0.2 c2.7,1.4,4.5,4.1,6,6.5L232.6,10.7z"></path> <path class="st5" d="M240.2,6.3c-1.3-2.2-3.1-4.1-5.2-5.6l-0.5,0.8c2,1.3,3.7,3.1,4.9,5.2c1.2,2.1,1.5,4.5,1,6.9l0.9,0.2 C241.9,11.3,241.5,8.6,240.2,6.3z"></path> <path class="st5" d="M216.1,51.1c-17.8-6.1-9-24.2-9-24.2l3.1-1.4c-0.4,8.1,7.2,11.9,7.2,11.9c8.3-2.8,12.8,2.9,13.1,3 s4.3,0.2,4.3,0.2C232.4,48.6,233.9,57.3,216.1,51.1z"></path> <path class="st4" d="M225.8,35.8c0.9-0.1,1.7-0.6,2.2-1.4c0.4-0.7,0.6-1.4,0.7-2.2c0.3-2,0.5-4,0.6-6h-0.7c-0.1,2-0.3,4-0.6,5.9 c-0.1,0.7-0.3,1.3-0.6,1.9c-0.1,0.1-0.1,0.2-0.2,0.3c-0.9,1-2.4,1.1-3.4,0.2l-0.5,0.5c0.4,0.3,0.9,0.6,1.4,0.7 C225.1,35.8,225.5,35.9,225.8,35.8z"></path> <path class="st2" d="M204.7,21c-0.2-0.7-0.1-1.4,0.3-2c0.4-0.5,1.1-0.6,1.6-0.3c0.3,0.2,0.4,0.6,0.3,0.9l0.9,0.2 c0.1-0.7-0.1-1.4-0.7-1.9c-1-0.7-2.3-0.5-3,0.4c-0.6,0.8-0.8,1.9-0.5,2.9L204.7,21z"></path> <path class="st6" d="M224.7,140.1c-5.4,13.3-1.9,24.5-5.8,45.6s-53.4,35.4-67.6,2.2s9-110.2,23-126s27.5-6.2,27.5-6.2l6.4,32.6 l12.1-27.2C253.8,84.3,230.1,126.8,224.7,140.1z"></path> <path class="st10" d="M208.2,88.4l-5.4-27.6c9.9,7,16,3.7,16,3.7L208.2,88.4z"></path> <path class="st7" d="M228.1,43c0.1,0.9-1.7,1.8-2.3,2.3c-0.6,0.6-1.4,0.9-2.2,0.8c-1,0.1-2-0.1-2.9-0.6c-0.6-0.5-1.1-1.1-1.4-1.9 c-0.8-1.6-1.3-3.2-1.8-4.8l8.2,2.9C226.4,41.9,228,42.2,228.1,43z"></path> <path class="st5" d="M298,518.9c-2.3,0-4.1-1.8-4.1-4.1l-0.1-284.1c0-2.3,1.8-4.1,4.1-4.1l0,0c2.3,0,4.1,1.8,4.1,4.1l0.1,284.1 l0,0C302.1,517.1,300.3,518.9,298,518.9L298,518.9C298,518.9,298,518.9,298,518.9z"></path> <path class="st4" d="M297.6,260.4c-2.5,0-4.5-2.1-4.5-4.6v-28c0-4.9,2-9.6,5.5-13c3.4-3.4,8.1-5.3,13-5.2 c9.8,0.2,17.8,3.7,23,10.3c1.6,2,1.2,4.8-0.7,6.4c-2,1.6-4.8,1.3-6.4-0.7c-3.5-4.5-8.9-6.8-16-6.9c-2.4,0-4.7,0.9-6.4,2.6 c-1.8,1.7-2.8,4.1-2.8,6.6v28c0,2.5-2,4.5-4.5,4.5C297.7,260.4,297.7,260.4,297.6,260.4z"></path> <path class="st4" d="M291.7,512.9v-2.5h12.7v2.5c0,3.5-2.8,6.4-6.4,6.4l0,0C294.5,519.2,291.7,516.4,291.7,512.9z"></path> <path class="st11" d="M150.6,181.4c-61.7,88.2-18,165.5-18,165.5c-35.2,48.8-20.8,139.3-20.8,139.3c9.4,7.3,26.9,3.9,26.9,3.9 c26.7-62.8,43.2-148.8,43.2-148.8c-1.7,81.7,19.9,157.4,19.9,157.4c13.9,1.1,19.8-5.4,19.8-5.4s24.8-138.2,18-188.1 S213,196.1,213,196.1L150.6,181.4z"></path> <path class="st6" d="M159.2,156.1c2,36.3-22.4,112.6-22.4,112.6S113,195.5,118,160.2c0.8-5,2.2-9.9,4-14.6 c42-116.4,79.8-89.9,79.8-89.9C206.5,106.6,159.2,156.1,159.2,156.1z"></path> <path class="st1" d="M313.5,208.8c-0.2,2.1,2.7,3.7,4.2,4.5l10.8,6.4c0.6,0.4,1.2,0.7,1.9,0.8c1.9,0.3,3.7-1.6,3.9-3.5 c0-2-0.7-3.9-1.9-5.4c-1.1-1.6-2.4-3.1-3.9-4.4c-1.3-1.2-2.9-2.1-4.6-2.6c-2-0.4-4-0.1-5.9,0.7 C316.6,205.8,313.7,206.9,313.5,208.8z"></path> <path class="st1" d="M134.7,249.7c-1.9,1-1.6,4.3-1.5,6l0.6,12.5c0,0.7,0.1,1.4,0.4,2.1c0.8,1.8,3.4,2.2,5.1,1.3 c1.7-1.1,2.9-2.7,3.5-4.6c0.7-1.8,1.2-3.7,1.5-5.6c0.3-1.8,0.2-3.6-0.3-5.3c-0.8-1.9-2.1-3.4-3.8-4.5 C138.9,250.6,136.3,248.9,134.7,249.7z"></path> <path class="st8" d="M157,183c0.7-4.6,1.7-26.6,1.7-26.8V156l0.1-0.1c0.4-0.4,37.2-39.4,40.8-74.2l0.8,0.1 c-3.6,34.1-38.7,72.2-40.9,74.5c-0.1,2.1-1.1,22.2-1.8,26.8L157,183z"></path> <path class="st12" d="M185.7,404.5l3.8-103.7l-7.6,40.5C180.8,358.3,185.7,404.5,185.7,404.5z"></path> <path class="st12" d="M161.5,353.9l0.3-0.8c6.6,2,13.7-1.2,16.6-7.5l0.8,0.3c-2.2,5.2-7.9,8.6-13.5,8.6 C164.3,354.6,162.8,354.3,161.5,353.9z"></path> <path class="st12" d="M230.2,328.7c-1.7-2.8-2.9-5.8-3.6-9l0.8-0.2c0.7,3.1,1.9,6.1,3.5,8.8c2,3,4.9,5.3,8.4,6.5l-0.3,0.8 C235.4,334.3,232.3,331.9,230.2,328.7z"></path> <polygon class="st12" points="187.2,314.4 195.8,241.4 201.7,228.1 201.7,206.4 202.6,206.4 202.6,228.2 196.6,241.6 188,314.5 "></polygon> <path class="st8" d="M159.2,156.1l-1.8,26.9l12.5,2.9c-8-17.1-1.1-41.1-1.1-41.1L159.2,156.1z"></path> <path class="st12" d="M212.9,476.1c1.6-16.2,0.2-32.9-1.2-49c-1-11.9-2.1-24.2-1.9-36.3c0.1-6.4,0.5-12.7,1.3-19 c0.1-1.1,0.3-2.2,0.4-3.4c0.5-3.6,1-7.3,1.1-11c0.2-7.3-1-14.7-2.3-21.9c-0.2-1-0.4-2.1-0.5-3.1c-1.2-7.2-2.9-15.6-4.8-24.4 c-4.6-22.5-9.9-48-9.2-66.6h0.8c-0.7,18.5,4.5,43.9,9.2,66.4c1.8,8.9,3.5,17.2,4.8,24.5c0.2,1,0.4,2.1,0.5,3.1 c1.2,7.2,2.5,14.6,2.3,22c-0.1,3.7-0.6,7.4-1.1,11c-0.1,1.1-0.3,2.2-0.4,3.4c-0.8,6.3-1.2,12.6-1.3,19 c-0.2,12.1,0.9,24.4,1.9,36.2c1.4,16.1,2.8,32.8,1.2,49.2L212.9,476.1z"></path> <path class="st12" d="M132.2,454.3c0.5-1.3,1-2.7,1.5-4c1.3-4,2.4-8.1,3.1-12.3c4.9-24,8.4-48.3,10.5-72.7 c0.2-2.3,0.5-4.7,2.3-6.1c0.2-0.2,0.4-0.3,0.6-0.4c0.3-0.2,0.6-0.4,0.9-0.7c0.9-1,0.4-2.5-0.2-4.1c-0.2-0.6-0.4-1.1-0.6-1.7 c-0.9-3.3,1-6.5,2.6-9.4l0.5-1c4.5-8.1,6.5-18.1,6.2-31.5c-0.1-4.6-0.4-9.3-0.7-13.8c-0.4-6.2-0.9-12.5-0.7-18.8 c0.5-19.5,6.5-38.3,12.4-56.5l0.8,0.2c-5.8,18.1-11.9,36.9-12.3,56.2c-0.1,6.2,0.3,12.6,0.7,18.7c0.3,4.5,0.6,9.2,0.7,13.9 c0.3,13.5-1.7,23.6-6.3,31.9l-0.5,1c-1.6,2.9-3.3,5.8-2.5,8.8c0.2,0.6,0.3,1.1,0.5,1.6c0.6,1.6,1.3,3.5,0.1,4.9 c-0.3,0.3-0.6,0.6-1,0.8c-0.2,0.1-0.4,0.2-0.5,0.4c-1.5,1.2-1.8,3.4-2,5.5c-2.1,24.5-5.6,48.8-10.6,72.9 c-0.8,4.2-1.8,8.3-3.2,12.4c-0.5,1.3-1,2.7-1.5,4c-2.2,5.7-4.5,11.6-2.7,17.3l-0.8,0.2C127.6,466.2,129.9,460.2,132.2,454.3z"></path> <rect x="149.1" y="148.8" transform="matrix(0.1759 -0.9844 0.9844 0.1759 -28.3823 274.0635)" class="st8" width="0.8" height="10.4"></rect> <rect x="240.6" y="168.7" transform="matrix(0.8619 -0.5071 0.5071 0.8619 -51.8855 147.7807)" class="st8" width="9.5" height="0.8"></rect> <path class="st8" d="M228.7,130c9-18.9,8.9-34.3,8.9-34.5h0.8c0,0.2,0,15.8-9,34.8L228.7,130z"></path> <polygon class="st8" points="214.6,181.9 207.4,185.2 204.3,177.9 196.4,182 192.5,175.1 186.3,179.9 182.8,173.4 177.1,177.9 174.1,170.9 167.9,175.6 164.8,164.8 171.6,161 175.7,167 180.3,162.9 184.2,169.7 189.2,164.7 192.5,171.8 198,167 201.3,173.9 207.5,170.1 211.6,176.7 217.7,172.8 220.2,179.9 219.4,180.1 217.3,174 211.3,177.8 207.2,171.2 201,175 197.8,168.3 192.2,173.1 188.9,166.1 184,171 180.1,164.2 175.6,168.2 171.4,162.1 165.7,165.2 168.3,174.3 174.4,169.6 177.4,176.6 183.1,172.2 186.5,178.7 192.8,173.9 196.7,180.9 204.7,176.8 207.8,184.1 214.9,180.9 218.6,187.7 217.9,188.1 "></polygon> <polygon class="st8" points="216.5,165.6 209.5,168.9 206.5,161.6 198.7,165.6 195,158.8 188.9,163.6 185.5,157.1 179.9,161.6 177,154.6 171,159.2 166.4,148.4 174.6,144.7 177.6,150.2 183.1,146.6 186.8,153.4 191.7,148.4 195,155.4 200.4,150.6 203.6,157.5 209.6,153.8 213.6,160.4 218.9,156.3 222,163.5 221.2,163.8 218.6,157.6 213.4,161.5 209.3,154.9 203.2,158.7 200.1,152 194.7,156.7 191.5,149.8 186.6,154.7 182.8,147.8 177.3,151.3 174.3,145.7 167.4,148.8 171.3,158 177.3,153.3 180.2,160.3 185.8,155.9 189.1,162.4 195.2,157.6 199.1,164.5 206.9,160.5 209.9,167.8 216.9,164.6 220.5,171.4 219.8,171.7 "></polygon> <rect x="190.2" y="158.3" transform="matrix(0.2402 -0.9707 0.9707 0.2402 -34.7863 325.6408)" class="st8" width="0.8" height="53.5"></rect> <rect x="188.1" y="161.2" transform="matrix(0.2423 -0.9702 0.9702 0.2423 -39.4277 325.2949)" class="st8" width="0.8" height="53.5"></rect> <path class="st8" d="M217.3,154.9c0.1-7.6,3.1-14.8,6.1-21.7c0.9-2.2,1.9-4.4,2.8-6.7c2.1-5.7,3.8-11.6,5.2-17.6 c1.5-5.5,2.5-11.2,3-16.9c0.4-6.4-0.5-12.9-2.5-19l0.8-0.3c2.1,6.2,3,12.8,2.6,19.4c-0.6,5.7-1.6,11.4-3.1,17 c-1.4,6-3.1,11.9-5.3,17.7c-0.9,2.2-1.8,4.5-2.8,6.7c-2.9,6.8-5.9,13.9-6,21.4L217.3,154.9z"></path> <path class="st8" d="M211,152.9c1.5-8.4,4.3-16.6,7-24.5c0.8-2.4,1.7-4.9,2.5-7.4c1.7-5.3,3.3-10.7,4.7-16 c4.2-16.2,4.9-28.8,2.2-38.5l0.8-0.2c2.8,9.9,2.1,22.7-2.2,39c-1.4,5.3-3,10.7-4.7,16c-0.8,2.5-1.7,5-2.5,7.4 c-2.7,7.9-5.5,16.1-7,24.4L211,152.9z"></path> <path class="st8" d="M204.1,151.1c2.5-13.1,7.1-25.9,11.6-38.2c2-5.6,4.1-11.4,6-17.1c1.7-5.3,3.6-11.4,3.4-17.5 c-0.1-4.7-0.5-9.9-2.8-13.5l0.7-0.4c2.4,3.7,2.8,9.1,2.9,13.9c0.1,6.2-1.7,12.4-3.5,17.8c-1.9,5.8-4.1,11.5-6.1,17.1 c-4.5,12.3-9.2,25-11.6,38.1L204.1,151.1z"></path> <path class="st8" d="M198.2,148l3.5-14.4c0.8-3.2,1.6-6.6,2.6-9.8c2.3-6.9,5.1-13.6,8.5-20l0.5-1c2.2-4,4.1-8.3,5.4-12.7 c1.2-5.1,0.8-10.5-1.3-15.4l0.8-0.3c2.1,5,2.6,10.6,1.4,15.9c-1.4,4.5-3.2,8.8-5.5,12.9l-0.5,1c-3.4,6.4-6.2,13-8.5,19.8 c-1,3.2-1.8,6.5-2.5,9.8l-3.4,14.5L198.2,148z"></path> <path class="st8" d="M193,146c1.2-3.8,2.1-7.8,2.6-11.7c0.6-4.2,1.5-8.3,2.8-12.3c1.1-2.9,2.4-5.8,3.8-8.5l4.5-9 c2.2-4.4,4.2-11.3,3.4-15.3L211,89c0.9,4.7-1.6,12-3.5,15.8l-4.5,9c-1.4,2.7-2.7,5.5-3.8,8.4c-1.3,4-2.2,8-2.7,12.2 c-0.5,4-1.4,8-2.6,11.9L193,146z"></path> <path class="st8" d="M186.8,144.8c1.6-5.6,2.8-11.2,3.6-16.9c0.1-0.4,0.1-0.9,0.2-1.4c0.2-2.1,0.6-4.1,1.1-6.1 c0.9-2.6,2.2-5.1,3.7-7.5l0.6-1c2.1-3.5,4-7.2,5.9-10.8c1.2-2,2.1-4.1,2.8-6.3c0.4-2,0.7-4.1,0.7-6.1h0.8c0,2.1-0.3,4.2-0.7,6.3 c-0.7,2.3-1.6,4.5-2.8,6.5c-1.9,3.6-3.9,7.3-6,10.8l-0.6,1c-1.5,2.3-2.7,4.7-3.6,7.3c-0.5,2-0.9,4-1.1,6c-0.1,0.4-0.1,1-0.2,1.4 c-0.9,5.7-2.1,11.4-3.7,17L186.8,144.8z"></path> <path class="st8" d="M177.8,143c3.1-6.7,5.3-13.7,6.5-20.9l0.8,0.1c-1.3,7.3-3.5,14.4-6.6,21.1L177.8,143z"></path> <polygon class="st10" points="196.1,53.8 196.9,53.5 208.2,93.2 223.1,62.7 223.9,63 208,95.5 "></polygon> </g> </g> </svg> 