<svg width="574" height="154" viewBox="0 0 574 154" fill="none" xmlns="http://www.w3.org/2000/svg">
<g clip-path="url(#clip0)">
<path fill-rule="evenodd" clip-rule="evenodd" d="M550.52 0C545.971 0 541.524 1.34892 537.742 3.87619C533.96 6.40346 531.012 9.99557 529.271 14.1983C527.53 18.401 527.075 23.0255 527.962 27.4871C528.849 31.9487 531.04 36.0469 534.257 39.2635C537.473 42.4801 541.571 44.6706 546.033 45.5581C550.495 46.4455 555.119 45.9901 559.322 44.2492C563.524 42.5084 567.117 39.5604 569.644 35.7781C572.171 31.9958 573.52 27.549 573.52 23C573.52 16.9 571.097 11.0499 566.783 6.73654C562.47 2.4232 556.62 0 550.52 0Z" fill="#DA2128"/>
<path fill-rule="evenodd" clip-rule="evenodd" d="M541.4 34.73C541.231 34.9104 541.026 35.0542 540.799 35.1525C540.572 35.2508 540.327 35.3015 540.08 35.3015C539.832 35.3015 539.588 35.2508 539.361 35.1525C539.134 35.0542 538.929 34.9104 538.76 34.73V34.73C538.38 34.36 537.96 33.88 537.55 33.4C537.161 32.9109 536.801 32.4001 536.47 31.87C534.794 29.2024 533.897 26.12 533.88 22.97V22.97C533.888 18.5601 535.644 14.3333 538.763 11.216C541.882 8.09873 546.11 6.34525 550.52 6.33996V6.33996C550.778 6.32112 551.036 6.35565 551.28 6.44134C551.524 6.52703 551.748 6.66205 551.937 6.83801C552.126 7.01396 552.277 7.22704 552.38 7.46395C552.484 7.70087 552.537 7.95653 552.537 8.21496C552.537 8.47339 552.484 8.72905 552.38 8.96597C552.277 9.20288 552.126 9.41596 551.937 9.59191C551.748 9.76787 551.524 9.90292 551.28 9.98861C551.036 10.0743 550.778 10.1088 550.52 10.09V10.09C547.1 10.0979 543.822 11.4592 541.403 13.8764C538.984 16.2936 537.62 19.5702 537.61 22.99V22.99C537.602 25.4434 538.296 27.8478 539.61 29.92C539.862 30.3211 540.136 30.7083 540.43 31.08C540.71 31.4465 541.028 31.7818 541.38 32.08C541.561 32.2495 541.705 32.454 541.804 32.681C541.904 32.908 541.956 33.1529 541.958 33.4007C541.96 33.6485 541.911 33.8941 541.815 34.1226C541.719 34.3511 541.578 34.5577 541.4 34.73ZM546.88 29.26C546.711 29.4401 546.508 29.5838 546.282 29.682C546.055 29.7802 545.811 29.8308 545.565 29.8308C545.318 29.8308 545.074 29.7802 544.848 29.682C544.622 29.5838 544.418 29.4401 544.25 29.26C544.19 29.26 544.17 29.21 544.1 29.14C543.917 28.9514 543.747 28.7509 543.59 28.54C543.376 28.2901 543.179 28.0262 543 27.75C542.099 26.3189 541.624 24.661 541.63 22.97V22.97C541.631 21.7992 541.863 20.6402 542.313 19.5592C542.762 18.4782 543.421 17.4965 544.25 16.67C544.25 16.67 544.35 16.6 544.35 16.57C546.004 14.9709 548.219 14.0841 550.52 14.1V14.1C551.018 14.1025 551.495 14.2994 551.85 14.6487C552.205 14.998 552.409 15.4721 552.42 15.97C552.417 16.2169 552.366 16.4608 552.269 16.6879C552.172 16.915 552.032 17.1208 551.855 17.2935C551.679 17.4662 551.47 17.6025 551.241 17.6945C551.012 17.7866 550.767 17.8326 550.52 17.83V17.83C549.198 17.8466 547.93 18.3608 546.97 19.27C546.97 19.33 546.92 19.33 546.88 19.37C545.916 20.3335 545.37 21.6373 545.36 23C545.365 23.9809 545.646 24.9406 546.17 25.77C546.255 25.9565 546.374 26.1259 546.52 26.27C546.6 26.37 546.69 26.48 546.81 26.61C546.93 26.74 546.81 26.61 546.88 26.67C547.212 27.0194 547.397 27.483 547.397 27.965C547.397 28.447 547.212 28.9106 546.88 29.26V29.26ZM557.19 23.34V27.75C557.19 27.9841 557.143 28.2159 557.053 28.432C556.963 28.648 556.831 28.844 556.664 29.0087C556.498 29.1733 556.3 29.3033 556.083 29.391C555.866 29.4788 555.634 29.5226 555.4 29.52C554.926 29.5227 554.47 29.3383 554.131 29.0069C553.792 28.6755 553.598 28.2239 553.59 27.75V25.11H550.99C550.747 25.1283 550.503 25.0962 550.273 25.0158C550.043 24.9354 549.832 24.8084 549.653 24.6427C549.475 24.477 549.332 24.2762 549.235 24.0529C549.137 23.8296 549.087 23.5886 549.087 23.345C549.087 23.1013 549.137 22.8603 549.235 22.637C549.332 22.4137 549.475 22.2129 549.653 22.0472C549.832 21.8816 550.043 21.7545 550.273 21.6741C550.503 21.5937 550.747 21.5617 550.99 21.58H555.4C555.865 21.5807 556.312 21.7596 556.65 22.08C556.818 22.2379 556.953 22.4283 557.046 22.6397C557.139 22.8511 557.188 23.0791 557.19 23.31V23.34Z" fill="white"/>
<path d="M0 78.96C0 63.17 12.3 50.24 29.12 50.24C39.12 50.24 45.12 52.93 50.94 57.85L43.25 67.14C38.96 63.57 35.15 61.47 28.76 61.47C19.84 61.47 12.76 69.36 12.76 78.96C12.76 89.12 19.76 96.57 29.58 96.57C33.6678 96.694 37.691 95.529 41.08 93.24V85.31H28.81V74.75H52.93V98.88C46.3425 104.583 37.9133 107.709 29.2 107.68C11.91 107.68 0 95.54 0 78.96ZM60.63 82.96V51.19H72.85V82.61C72.85 91.61 77.37 96.34 84.85 96.34C92.33 96.34 96.85 91.81 96.85 83.01V51.19H109.07V82.53C109.07 99.35 99.63 107.6 84.71 107.6C69.79 107.6 60.63 99.27 60.63 82.93V82.96ZM118.32 51.22H130.53V95.65H158.23V106.76H118.32V51.22ZM164.26 51.22H206.55V62.33H176.48V74.15H202.98V85.26H176.48V106.76H164.26V51.22ZM209.33 98.67L216.55 90.02C221.55 94.14 226.79 96.76 233.13 96.76C238.13 96.76 241.13 94.76 241.13 91.37C241.13 88.27 239.22 86.69 229.94 84.31C218.75 81.45 211.53 78.31 211.53 67.17C211.53 57.09 219.62 50.43 230.97 50.43C238.464 50.2946 245.769 52.7852 251.62 57.47L245.27 66.67C240.35 63.26 235.51 61.2 230.83 61.2C226.15 61.2 223.69 63.34 223.69 66.2C223.69 69.86 226.07 71.05 235.69 73.5C246.96 76.44 253.31 80.5 253.31 90.33C253.31 101.33 244.9 107.54 232.92 107.54C224.23 107.575 215.832 104.406 209.33 98.64V98.67ZM272.49 62.47H255.59V51.19H301.59V62.47H284.76V106.74H272.49V62.47ZM307.81 51.2H333.2C340.26 51.2 345.73 53.2 349.38 56.83C352.48 59.93 354.14 64.29 354.14 69.69C354.14 78.69 349.3 84.29 342.24 86.9L355.81 106.74H341.53L329.47 88.97H320.02V106.74H307.81V51.2ZM332.4 78.2C338.35 78.2 341.77 75.02 341.77 70.2C341.77 64.97 338.12 62.27 332.16 62.27H320.02V78.17L332.4 78.2ZM362 51.2H403.9V62.07H374.14V73.34H400.33V84.21H374.14V95.87H404.29V106.74H362V51.2ZM431 50.8H442.26L466.07 106.74H453.33L448.25 94.28H424.76L419.68 106.74H407.23L431 50.8ZM443.89 83.47L436.51 65.47L429.13 83.47H443.89ZM471.51 51.18H484.68L499.28 74.67L513.88 51.18H527.05V106.72H514.91V70.47L499.28 94.19H498.96L483.49 70.71V106.71H471.49L471.51 51.18ZM146.06 150.72L147.06 149.53C147.711 150.176 148.483 150.686 149.333 151.029C150.183 151.372 151.093 151.543 152.01 151.53C153.95 151.53 155.22 150.53 155.22 149.04C155.22 147.55 154.5 146.93 151.47 146.29C148.15 145.57 146.63 144.5 146.63 142.09C146.63 139.68 148.63 138.15 151.37 138.15C153.22 138.099 155.024 138.729 156.44 139.92L155.49 141.18C154.338 140.172 152.861 139.615 151.33 139.61C149.45 139.61 148.26 140.61 148.26 141.99C148.26 143.37 149 144.11 152.17 144.79C155.34 145.47 156.87 146.67 156.87 148.91C156.87 151.39 154.81 152.99 151.95 152.99C149.767 153.025 147.655 152.211 146.06 150.72V150.72ZM163.5 138.4H173.94V139.88H165.13V144.81H173.01V146.29H165.13V151.34H174.04V152.83H163.5V138.4ZM179.98 145.61C179.955 144.637 180.125 143.669 180.481 142.763C180.836 141.856 181.371 141.031 182.051 140.335C182.732 139.64 183.546 139.088 184.444 138.712C185.342 138.337 186.307 138.146 187.28 138.15C188.321 138.124 189.356 138.317 190.317 138.716C191.278 139.116 192.145 139.713 192.86 140.47L191.76 141.63C191.181 141.006 190.48 140.507 189.701 140.163C188.922 139.819 188.081 139.638 187.23 139.63C185.768 139.8 184.42 140.501 183.441 141.599C182.462 142.698 181.922 144.118 181.922 145.59C181.922 147.062 182.462 148.482 183.441 149.581C184.42 150.679 185.768 151.38 187.23 151.55C188.109 151.549 188.978 151.364 189.781 151.006C190.584 150.647 191.302 150.124 191.89 149.47L192.96 150.6C192.234 151.403 191.342 152.038 190.345 152.461C189.349 152.885 188.272 153.085 187.19 153.05C186.223 153.052 185.266 152.859 184.375 152.483C183.484 152.107 182.678 151.555 182.006 150.861C181.333 150.166 180.807 149.344 180.459 148.441C180.111 147.539 179.948 146.576 179.98 145.61ZM198.91 146.79V138.4H200.54V146.68C200.54 149.8 202.19 151.55 204.95 151.55C207.71 151.55 209.3 149.94 209.3 146.79V138.4H210.93V146.66C210.93 150.87 208.51 153.05 204.93 153.05C201.35 153.05 198.91 150.87 198.91 146.79ZM218.08 138.4H224.29C225.794 138.318 227.268 138.836 228.39 139.84C228.758 140.224 229.045 140.677 229.236 141.173C229.427 141.669 229.516 142.199 229.5 142.73C229.5 145.12 227.86 146.52 225.59 146.93L230.02 152.83H228.02L223.84 147.22H219.76V152.83H218.13L218.08 138.4ZM224.15 145.76C226.31 145.76 227.86 144.64 227.86 142.76C227.86 140.88 226.5 139.91 224.17 139.91H219.76V145.77L224.15 145.76ZM236.44 138.4H238.06V152.83H236.44V138.4ZM249.44 139.9H244.56V138.4H255.9V139.9H251.05V152.83H249.4L249.44 139.9ZM266.76 147.12L260.76 138.4H262.76L267.62 145.61L272.53 138.4H274.42L268.42 147.1V152.83H266.76V147.12ZM288.84 150.72L289.84 149.53C290.491 150.176 291.263 150.686 292.113 151.029C292.963 151.372 293.873 151.543 294.79 151.53C296.73 151.53 298 150.53 298 149.04C298 147.55 297.28 146.93 294.25 146.29C290.93 145.57 289.41 144.5 289.41 142.09C289.41 139.68 291.41 138.15 294.15 138.15C296 138.099 297.804 138.729 299.22 139.92L298.22 141.18C297.068 140.172 295.591 139.615 294.06 139.61C292.18 139.61 290.99 140.61 290.99 141.99C290.99 143.37 291.73 144.11 294.9 144.79C298.07 145.47 299.6 146.67 299.6 148.91C299.6 151.39 297.54 152.99 294.68 152.99C292.517 153.009 290.43 152.196 288.85 150.72H288.84ZM310.18 147.12L304.18 138.4H306.18L311.05 145.61L315.95 138.4H317.85L311.85 147.1V152.83H310.2L310.18 147.12ZM322.06 150.72L323.06 149.53C323.71 150.177 324.483 150.687 325.333 151.031C326.183 151.374 327.093 151.544 328.01 151.53C329.94 151.53 331.22 150.53 331.22 149.04C331.22 147.55 330.5 146.93 327.47 146.29C324.15 145.57 322.63 144.5 322.63 142.09C322.63 139.68 324.63 138.15 327.37 138.15C329.22 138.099 331.024 138.729 332.44 139.92L331.49 141.18C330.338 140.172 328.861 139.615 327.33 139.61C325.45 139.61 324.26 140.61 324.26 141.99C324.26 143.37 325 144.11 328.17 144.79C331.34 145.47 332.87 146.67 332.87 148.91C332.87 151.39 330.81 152.99 327.94 152.99C325.763 153.021 323.66 152.207 322.07 150.72H322.06ZM343.01 139.9H338.16V138.4H349.5V139.9H344.66V152.83H343.01V139.9ZM355.86 138.4H366.29V139.88H357.48V144.81H365.36V146.29H357.48V151.34H366.39V152.83H355.87L355.86 138.4ZM372.97 138.4H374.62L379.87 146.27L385.13 138.4H386.76V152.83H385.16V141.14L379.91 148.87H379.82L374.57 141.16V152.83H372.98L372.97 138.4ZM393.22 150.72L394.22 149.53C394.87 150.177 395.643 150.687 396.493 151.031C397.343 151.374 398.253 151.544 399.17 151.53C401.1 151.53 402.38 150.53 402.38 149.04C402.38 147.55 401.66 146.93 398.63 146.29C395.31 145.57 393.78 144.5 393.78 142.09C393.78 139.68 395.78 138.15 398.53 138.15C400.38 138.101 402.183 138.73 403.6 139.92L402.65 141.18C401.495 140.171 400.014 139.613 398.48 139.61C396.61 139.61 395.41 140.61 395.41 141.99C395.41 143.37 396.16 144.11 399.33 144.79C402.5 145.47 404.03 146.67 404.03 148.91C404.03 151.39 401.97 152.99 399.1 152.99C396.923 153.021 394.82 152.207 393.23 150.72H393.22Z" fill="white"/>
</g>
<defs>
<clipPath id="clip0">
<rect width="573.51" height="153.08" fill="white"/>
</clipPath>
</defs>
</svg>
