<?xml version="1.0" encoding="UTF-8"?> <svg xmlns="http://www.w3.org/2000/svg" id="Capa_1" height="512px" viewBox="0 0 512 512" width="512px"> <path d="m286.575 122.922c8.985 0 19.774-2.679 32.069-7.963.086-.037.194-.082.377.053 12.687 9.504 16.436 12.287 59.264 20.145.742.136 1.337.693 1.517 1.42 2.649 10.71 4.835 17.584 4.464 18.777-3.341 10.776-14.981 49.419-24.491 94.272-.874 4.123 1.76 8.173 5.882 9.047 4.121.874 8.172-1.759 9.047-5.882 25.542-120.473 29.97-79.191 19.912-119.877-1.616-6.539-6.945-11.55-13.577-12.768-40.973-7.518-42.648-9.693-52.891-17.365-4.385-3.274-10.308-4.089-15.53-1.845-10.381 4.461-19.143 6.724-26.044 6.724-9.143 0-11.482-4.015-11.86-4.822-12.13-40.832-12.098-34.466-11.181-54.83.101-2.246.111-3.201.305-4.219 1.154-5.77 4.859-9.394 9.377-10.856 19.395-6.29 52.847-14.97 62.638-17.48 11.007-2.822 82.946 48.321 92.8 55.478 14.57 11.902 22.658 28.334 24.042 48.843 1.662 24.785 3.776 46.799 6.462 67.299.548 4.178 4.376 7.125 8.557 6.574 4.178-.547 7.121-4.378 6.574-8.557-2.644-20.178-4.727-41.877-6.368-66.341-1.823-27.013-14.825-48.866-30.115-60.031-2.734-1.994-67.265-48.933-93.777-57.667-3.832-1.262-8.013-1.394-11.965-.381-9.899 2.538-43.739 11.32-63.551 17.745-10.269 3.323-17.804 11.969-19.676 22.575-.595 3.171-.911 14.883-.911 17.389 0 12.145 2.449 16.095 12.271 49.175 1.769 5.71 9.315 15.368 26.379 15.368z" fill="#EF4151"></path> <path d="m487.677 297.158c-.608-34.719-4.407-54.078-8.959-82.152-.675-4.16-4.597-6.987-8.753-6.311-4.16.675-6.985 4.593-6.311 8.753 4.454 27.478 8.177 46.4 8.765 79.977 1.019 57.693-11.704 114.763-16.432 153.245-1.45 11.801-9.647 21.932-20.882 25.807-71.84 24.782-164.195 35.477-217.208-19.457-5.908-6.122-14.959-8.649-23.487-6.073-27.699 8.369-59.576 10.169-88.447 2.558-45.808-12.078-66.312-72.06-66.312-126.147v-40.52c0-13.004 11.133-23.451 24.348-22.273 30.425 2.707 61.394 15.945 87.463 40.075 10.802 10.008 19.228 20.309 26.729 29.956 4.852 6.793 15.939 8.119 22.46 1.144 40.005-42.786 107.879-37.034 141.147 8.812 6.277 8.649 19.958 4.566 20.489-6.066.811-16.185 3.058-35.021 6.677-55.985.717-4.152-2.068-8.1-6.221-8.817-4.153-.716-8.101 2.069-8.817 6.221-2.995 17.348-5.079 33.327-6.217 47.658-41.748-47.166-114.721-48.191-157.765-2.712-7.821-10.044-16.648-20.785-28.113-31.407-28.377-26.265-63.533-41.213-96.128-44.047-23.066-2.058-41.313 15.946-41.313 37.441 0 41.085-2.741 82.259 17.194 125.506 13.721 29.766 34.637 49.102 60.487 55.918 31.32 8.257 66.021 6.58 96.751-2.705 2.853-.86 6.065-.038 8.093 2.062 57.575 59.661 154.687 50.358 233.165 23.286 16.707-5.763 28.896-20.825 31.052-38.372 4.708-38.297 17.58-95.965 16.545-155.375z" fill="#EF4151"></path> <path d="m173.323 254.553c33.973 30.324 32.37 29.768 36.258 29.768 6.945 0 10.328-8.641 5.083-13.322l-31.179-27.83c-3.143-2.806-7.966-2.532-10.773.611s-2.533 7.967.611 10.773z" fill="#EF4151"></path> <path d="m320.077 227.515-24.075 34.162c-2.428 3.445-1.603 8.205 1.841 10.632 3.441 2.426 8.204 1.605 10.632-1.841l24.075-34.162c2.428-3.445 1.603-8.205-1.841-10.632-3.443-2.43-8.205-1.604-10.632 1.841z" fill="#EF4151"></path> <path d="m246.554 256.752c.446 3.892 3.746 6.762 7.571 6.762 4.562 0 8.11-3.964 7.59-8.499l-5.289-46.157c-.48-4.186-4.258-7.192-8.449-6.712-4.187.48-7.192 4.263-6.712 8.449z" fill="#EF4151"></path> </svg> 